SplineFontDB: 3.2
FontName: Loma-BoldOblique
FullName: Loma Bold Oblique
FamilyName: Loma
Weight: Bold
Copyright: Copyright (c) NECTEC, 2003. All rights reserved.\nModified under GNU General Public License by TLWG.
Version: 001.002
ItalicAngle: -12
UnderlinePosition: -170
UnderlineWidth: 10
Ascent: 1638
Descent: 410
InvalidEm: 0
LayerCount: 3
Layer: 0 0 "Back" 1
Layer: 1 0 "Fore" 0
Layer: 2 1 "Quad" 0
FSType: 0
OS2Version: 4
OS2_WeightWidthSlopeOnly: 0
OS2_UseTypoMetrics: 1
CreationTime: 1153662534
ModificationTime: 1587809707
PfmFamily: 33
TTFWeight: 700
TTFWidth: 5
LineGap: 0
VLineGap: 0
Panose: 2 11 6 4 2 2 2 2 2 4
OS2TypoAscent: 2353
OS2TypoAOffset: 0
OS2TypoDescent: -902
OS2TypoDOffset: 0
OS2TypoLinegap: 0
OS2WinAscent: 0
OS2WinAOffset: 1
OS2WinDescent: 0
OS2WinDOffset: 1
HheadAscent: 0
HheadAOffset: 1
HheadDescent: 0
HheadDOffset: 1
OS2Vendor: 'PfEd'
Lookup: 4 0 1 "'liga' Standard Ligatures lookup 0" { "'liga' Standard Ligatures lookup 0"  } ['liga' ('latn' <'dflt' > ) ]
Lookup: 6 0 0 "'ccmp' Thai Tone Tilde Reordering" { "'ccmp' Thai Tone Tilde Reordering"  } ['ccmp' ('DFLT' <'dflt' > 'latn' <'dflt' > 'thai' <'KUY ' 'MLY ' 'PAL ' 'SAN ' 'THA ' 'dflt' > ) ]
Lookup: 6 0 0 "'ccmp' Thai Tone Macron Reordering" { "'ccmp' Thai Tone Macron Reordering"  } ['ccmp' ('DFLT' <'dflt' > 'latn' <'dflt' > 'thai' <'KUY ' 'MLY ' 'PAL ' 'SAN ' 'THA ' 'dflt' > ) ]
Lookup: 6 0 0 "'ccmp' Thai Below Vowel Macron Reordering" { "'ccmp' Thai Below Vowel Macron Reordering"  } ['ccmp' ('DFLT' <'dflt' > 'latn' <'dflt' > 'thai' <'KUY ' 'MLY ' 'PAL ' 'SAN ' 'THA ' 'dflt' > ) ]
Lookup: 4 0 0 "'ccmp' Patani Malay Ligatures" { "'ccmp' Patani Malay Ligatures"  } ['ccmp' ('DFLT' <'dflt' > 'thai' <'KUY ' 'MLY ' 'PAL ' 'SAN ' 'THA ' 'dflt' > ) ]
Lookup: 6 0 0 "'ccmp' Thai Conditional Descender Removal" { "'ccmp' Thai Conditional Descender Removal"  } ['ccmp' ('DFLT' <'dflt' > 'thai' <'KUY ' 'MLY ' 'THA ' 'dflt' > ) ]

StartChar: .notdef
Encoding: 65536 -1 0
Width: 1536
Flags: W
HStem: 0 32<295 1255> 1248 32<553 1513>
DStem2: 256 0 288.198 0 0.207912 0.978148<39.4093 1282.48> 1248.2 0 1280 0 0.207912 0.978148<32.7149 1275.78>
LayerCount: 3
Fore
SplineSet
256 0 m 1
 528 1280 l 1
 1552 1280 l 1
 1280 0 l 1
 256 0 l 1
295 32 m 1
 1255 32 l 1
 1513 1248 l 1
 553 1248 l 1
 295 32 l 1
EndSplineSet
Validated: 1
Layer: 2
SplineSet
256 0 m 1,0,-1
 528 1280 l 1,1,-1
 1552 1280 l 1,2,-1
 1280 0 l 1,3,-1
 256 0 l 1,0,-1
295 32 m 1,4,-1
 1255 32 l 1,5,-1
 1513 1248 l 1,6,-1
 553 1248 l 1,7,-1
 295 32 l 1,4,-1
EndSplineSet
EndChar

StartChar: uni0E47.high
Encoding: 63263 63263 1
Width: 0
Flags: W
HStem: 1792 140<-220.093 -142> 1871 162<-379.578 -265.816> 2042 78<-74.8373 31.9974>
VStem: -585 175<1992 2067.75> -166 90<1985.4 2041.3> -16 115<1985.92 2040.93>
AnchorPoint: "AboveMark" -176 2300 basemark 0
AnchorPoint: "AboveMark" -295 1740 mark 0
LayerCount: 3
Back
SplineSet
-10 2014 m 0
 -9.45683 2016.31 -9.19026 2018.62 -9.19026 2020.88 c 0
 -9.19026 2035.3 -19.9874 2048 -39 2048 c 0
 -60 2048 -78 2031 -82 2014 c 0
 -82.3477 2011.91 -82.5208 2009.84 -82.5208 2007.81 c 0
 -82.5208 1992.29 -72.4502 1979 -53 1979 c 0
 -31 1979 -13 1996 -10 2014 c 0
-332 2027 m 0
 -258 2027 -206 1926 -153 1926 c 0
 -137 1926 -131 1933 -131 1933 c 1
 -149.966 1947.22 -160.189 1966.44 -160.189 1991.15 c 0
 -160.189 1997.71 -159.468 2004.66 -158 2012 c 0
 -148 2059 -94 2114 -22 2114 c 0
 73.9674 2114 93.3996 2060.37 93.3996 2015.11 c 0
 93.3996 1997.64 90.506 1981.42 88 1970 c 0
 68 1878 -8 1798 -107 1798 c 0
 -175 1798 -229 1812 -270 1842 c 0
 -293 1855 -311 1877 -348 1877 c 0
 -388 1877 -389 1801 -401 1798 c 1
 -542.181 1798 -578.803 1881.91 -578.803 1954.63 c 0
 -578.803 1971.02 -576.943 1986.84 -574 2001 c 0
 -554 2095 -470 2192 -361 2218 c 0
 -191 2258 -10 2209 65 2347 c 1
 228 2347 l 1
 199 2255 73 2156 -13 2136 c 0
 -173 2099 -389 2131 -414 2012 c 0
 -415.333 2006.67 -415.889 2002.33 -415.889 1998.56 c 0
 -415.889 1991 -413.667 1985.67 -411 1979 c 1
 -388 2011 -362 2027 -332 2027 c 0
EndSplineSet
Fore
SplineSet
-52 1985 m 0x3c
 -32 1985 -16 2006 -16 2022 c 0
 -16 2033 -23 2042 -40 2042 c 0
 -61 2042 -76 2021 -76 2005 c 0
 -76 1994 -69 1985 -52 1985 c 0x3c
99 2015 m 0
 99 1893 5 1792 -108 1792 c 0xbc
 -277 1792 -302 1871 -348 1871 c 0x7c
 -386 1871 -372 1800 -401 1792 c 1xbc
 -546 1792 -585 1878 -585 1953 c 0
 -585 2072 -483 2194 -360 2224 c 0
 -181 2267 -13 2216 61 2353 c 1
 236 2353 l 1
 204 2253 80 2151 -12 2130 c 0
 -173 2093 -410 2122 -410 1999 c 0
 -410 1996 -409 1994 -409 1992 c 1
 -386 2019 -360 2033 -331 2033 c 0x7c
 -253 2033 -198 1932 -152 1932 c 0xbc
 -148 1932 -144 1933 -142 1933 c 1
 -158 1947 -166 1966 -166 1989 c 0
 -166 2056 -101 2120 -20 2120 c 0
 80 2120 99 2062 99 2015 c 0
EndSplineSet
Validated: 1
Layer: 2
SplineSet
-52 1985 m 0,0,1
 -38 1985 -38 1985 -27 1997 c 128,-1,2
 -16 2009 -16 2009 -16 2022 c 0,3,4
 -16 2042 -16 2042 -40 2042 c 0,5,6
 -55 2042 -55 2042 -65.5 2030 c 128,-1,7
 -76 2018 -76 2018 -76 2005 c 0,8,9
 -76 1985 -76 1985 -52 1985 c 0,0,1
99 2015 m 0,10,11
 99 1924 99 1924 38 1858 c 128,-1,12
 -23 1792 -23 1792 -108 1792 c 0,13,14
 -166 1792 -166 1792 -210 1804.5 c 128,-1,15
 -254 1817 -254 1817 -274.5 1831.5 c 128,-1,16
 -295 1846 -295 1846 -314.5 1858.5 c 128,-1,17
 -334 1871 -334 1871 -348 1871 c 0,18,19
 -368 1871 -368 1871 -378 1833.5 c 128,-1,20
 -388 1796 -388 1796 -401 1792 c 1,21,22
 -500 1792 -500 1792 -542.5 1839 c 128,-1,23
 -585 1886 -585 1886 -585 1953 c 0,24,25
 -585 2042 -585 2042 -518.5 2121.5 c 128,-1,26
 -452 2201 -452 2201 -360 2224 c 0,27,28
 -314 2235 -314 2235 -255.5 2240.5 c 128,-1,29
 -197 2246 -197 2246 -154.5 2249 c 128,-1,30
 -112 2252 -112 2252 -69 2260.5 c 128,-1,31
 -26 2269 -26 2269 7 2291.5 c 128,-1,32
 40 2314 40 2314 61 2353 c 1,33,-1
 236 2353 l 1,34,35
 213 2280 213 2280 136 2213 c 128,-1,36
 59 2146 59 2146 -12 2130 c 0,37,38
 -52 2121 -52 2121 -114 2114.5 c 128,-1,39
 -176 2108 -176 2108 -223 2103 c 128,-1,40
 -270 2098 -270 2098 -315.5 2088 c 128,-1,41
 -361 2078 -361 2078 -385.5 2056 c 128,-1,42
 -410 2034 -410 2034 -410 1999 c 0,43,44
 -410 1997 -410 1997 -409.5 1995 c 128,-1,45
 -409 1993 -409 1993 -409 1992 c 1,46,47
 -374 2033 -374 2033 -331 2033 c 0,48,49
 -305 2033 -305 2033 -277 2017 c 128,-1,50
 -249 2001 -249 2001 -229.5 1982.5 c 128,-1,51
 -210 1964 -210 1964 -188.5 1948 c 128,-1,52
 -167 1932 -167 1932 -152 1932 c 0,53,54
 -150 1932 -150 1932 -146.5 1932.5 c 128,-1,55
 -143 1933 -143 1933 -142 1933 c 1,56,57
 -166 1954 -166 1954 -166 1989 c 0,58,59
 -166 2040 -166 2040 -123 2080 c 128,-1,60
 -80 2120 -80 2120 -20 2120 c 0,61,62
 99 2120 99 2120 99 2015 c 0,10,11
EndSplineSet
EndChar

StartChar: uni0E4D.high
Encoding: 63262 63262 2
Width: 0
VWidth: 2561
Flags: W
HStem: 1719 104<83.2359 188.116> 1928 107<86.0393 191.555>
VStem: -24 106<1823.17 1923.21> 193 105<1827.11 1927.24>
AnchorPoint: "AboveMark" 208 2208 basemark 0
AnchorPoint: "AboveMark" 108 1740 mark 0
LayerCount: 3
Fore
SplineSet
-24 1842 m 0
 -24 1932 62 2035 172 2035 c 0
 252 2035 298 1978 298 1911 c 0
 298 1813 208 1719 104 1719 c 0
 17 1719 -24 1786 -24 1842 c 0
82 1861 m 0
 82 1831 113 1823 126 1823 c 0
 168 1823 193 1859 193 1887 c 0
 193 1912 176 1928 149 1928 c 0
 115 1928 82 1902 82 1861 c 0
EndSplineSet
Validated: 1
Layer: 2
SplineSet
-24 1842 m 0,0,1
 -24 1913 -24 1913 34.5 1974 c 128,-1,2
 93 2035 93 2035 172 2035 c 0,3,4
 230 2035 230 2035 264 1999 c 128,-1,5
 298 1963 298 1963 298 1911 c 0,6,7
 298 1837 298 1837 239.5 1778 c 128,-1,8
 181 1719 181 1719 104 1719 c 0,9,10
 43 1719 43 1719 9.5 1757 c 128,-1,11
 -24 1795 -24 1795 -24 1842 c 0,0,1
82 1861 m 0,12,13
 82 1841 82 1841 97 1832 c 128,-1,14
 112 1823 112 1823 126 1823 c 0,15,16
 155 1823 155 1823 174 1843.5 c 128,-1,17
 193 1864 193 1864 193 1887 c 0,18,19
 193 1906 193 1906 181 1917 c 128,-1,20
 169 1928 169 1928 149 1928 c 0,21,22
 122 1928 122 1928 102 1909.5 c 128,-1,23
 82 1891 82 1891 82 1861 c 0,12,13
EndSplineSet
EndChar

StartChar: exclam
Encoding: 33 33 5
Width: 569
Flags: W
HStem: 0 194<217 400> 1430 20G<471.743 716>
VStem: 290 153<365 416.35>
DStem2: 176 0 400 0 0.207912 0.978148<46.5722 198.285 555.033 1480.69>
LayerCount: 3
Fore
SplineSet
380 999 m 1
 476 1450 l 1
 716 1450 l 1
 620 999 l 1
 443 365 l 1
 290 365 l 1
 380 999 l 1
217 194 m 1
 441 194 l 1
 400 0 l 1
 176 0 l 1
 217 194 l 1
EndSplineSet
Validated: 1
Layer: 2
SplineSet
380 999 m 1,0,-1
 476 1450 l 1,1,-1
 716 1450 l 1,2,-1
 620 999 l 1,3,-1
 443 365 l 1,4,-1
 290 365 l 1,5,-1
 380 999 l 1,0,-1
217 194 m 1,6,-1
 441 194 l 1,7,-1
 400 0 l 1,8,-1
 176 0 l 1,9,-1
 217 194 l 1,6,-1
EndSplineSet
EndChar

StartChar: quotedbl
Encoding: 34 34 6
Width: 727
Flags: W
HStem: 947 503<414 492 697 773>
VStem: 357 570
LayerCount: 3
Fore
SplineSet
357 947 m 1
 365 1217 l 1
 414 1450 l 1
 644 1450 l 1
 595 1217 l 1
 492 947 l 1
 357 947 l 1
638 947 m 1
 648 1217 l 1
 697 1450 l 1
 927 1450 l 1
 878 1217 l 1
 773 947 l 1
 638 947 l 1
EndSplineSet
Validated: 1
Layer: 2
SplineSet
357 947 m 1,0,-1
 365 1217 l 1,1,-1
 414 1450 l 1,2,-1
 644 1450 l 1,3,-1
 595 1217 l 1,4,-1
 492 947 l 1,5,-1
 357 947 l 1,0,-1
638 947 m 1,6,-1
 648 1217 l 1,7,-1
 697 1450 l 1,8,-1
 927 1450 l 1,9,-1
 878 1217 l 1,10,-1
 773 947 l 1,11,-1
 638 947 l 1,6,-1
EndSplineSet
EndChar

StartChar: numbersign
Encoding: 35 35 7
Width: 1139
Flags: W
HStem: -10 21G<55 303.427 514 769.32> 365 220<145 213 545 672 1008 1191> 875 220<254 427 760 886 1221 1299> 1450 20G<668.627 917 1127.63 1376>
DStem2: 55 -10 295 -10 0.387444 0.921893<92.9866 406.926 738.374 960.005 1291.84 1605.39> 514 -10 761 -10 0.387444 0.921893<95.6987 406.926 739.924 960.005 1292.61 1605.39>
LayerCount: 3
Fore
SplineSet
295 -10 m 1
 55 -10 l 1
 213 365 l 1
 99 365 l 1
 145 585 l 1
 305 585 l 1
 427 875 l 1
 207 875 l 1
 254 1095 l 1
 520 1095 l 1
 677 1470 l 1
 917 1470 l 1
 760 1095 l 1
 979 1095 l 1
 1136 1470 l 1
 1376 1470 l 1
 1221 1095 l 1
 1346 1095 l 1
 1299 875 l 1
 1129 875 l 1
 1008 585 l 1
 1237 585 l 1
 1191 365 l 1
 917 365 l 1
 761 -10 l 1
 514 -10 l 1
 672 365 l 1
 453 365 l 1
 295 -10 l 1
886 875 m 1
 667 875 l 1
 545 585 l 1
 764 585 l 1
 886 875 l 1
EndSplineSet
Validated: 1
Layer: 2
SplineSet
295 -10 m 1,0,-1
 55 -10 l 1,1,-1
 213 365 l 1,2,-1
 99 365 l 1,3,-1
 145 585 l 1,4,-1
 305 585 l 1,5,-1
 427 875 l 1,6,-1
 207 875 l 1,7,-1
 254 1095 l 1,8,-1
 520 1095 l 1,9,-1
 677 1470 l 1,10,-1
 917 1470 l 1,11,-1
 760 1095 l 1,12,-1
 979 1095 l 1,13,-1
 1136 1470 l 1,14,-1
 1376 1470 l 1,15,-1
 1221 1095 l 1,16,-1
 1346 1095 l 1,17,-1
 1299 875 l 1,18,-1
 1129 875 l 1,19,-1
 1008 585 l 1,20,-1
 1237 585 l 1,21,-1
 1191 365 l 1,22,-1
 917 365 l 1,23,-1
 761 -10 l 1,24,-1
 514 -10 l 1,25,-1
 672 365 l 1,26,-1
 453 365 l 1,27,-1
 295 -10 l 1,0,-1
886 875 m 1,28,-1
 667 875 l 1,29,-1
 545 585 l 1,30,-1
 764 585 l 1,31,-1
 886 875 l 1,28,-1
EndSplineSet
EndChar

StartChar: dollar
Encoding: 36 36 8
Width: 1139
Flags: W
VStem: 151 246<227.452 417> 314 240<876.806 1114.02> 893 246<295.519 561.464> 993 245<1050.98 1176.08>
DStem2: 414 -137 654 -137 0.207912 0.978148<49.8988 105.323 391.362 783.195 1018.44 1363.69 1647.77 1680.64>
LayerCount: 3
Fore
SplineSet
654 -137 m 1x20
 414 -137 l 1
 436 -34 l 1
 250 -4 151 101 151 285 c 3
 151 325 156 369 165 417 c 1
 405 417 l 1
 400 391 397 368 397 346 c 3xa0
 397 274 426 224 485 198 c 1
 576 625 l 1
 428 666 314 758 314 931 c 3
 314 1211 501 1386 746 1425 c 1
 763 1507 l 1
 1003 1507 l 1
 986 1426 l 1
 1154 1400 1238 1309 1238 1143 c 3
 1238 1114 1236 1083 1231 1050 c 1
 991 1050 l 1
 992 1059 993 1068 993 1077 c 3x50
 993 1120 978 1162 936 1188 c 1
 855 811 l 1
 990 782 1139 711 1139 508 c 3
 1139 203 892 -24 676 -32 c 1
 654 -137 l 1x20
725 197 m 1
 823 232 893 324 893 461 c 3
 893 530 862 564 807 582 c 1
 725 197 l 1
626 859 m 1
 697 1197 l 1
 624 1172 554 1088 554 966 c 3x40
 554 915 584 881 626 859 c 1
EndSplineSet
Validated: 1
Layer: 2
SplineSet
654 -137 m 1,0,-1
 414 -137 l 1,1,-1
 436 -34 l 1,2,3
 151 12 151 12 151 285 c 0,4,5
 151 342 151 342 165 417 c 1,6,-1
 405 417 l 1,7,8
 397 375 397 375 397 346 c 0,9,10
 397 237 397 237 485 198 c 1,11,-1
 576 625 l 1,12,13
 314 698 314 698 314 931 c 0,14,15
 314 1134 314 1134 434.5 1264.5 c 128,-1,16
 555 1395 555 1395 746 1425 c 1,17,-1
 763 1507 l 1,18,-1
 1003 1507 l 1,19,-1
 986 1426 l 1,20,21
 1238 1387 1238 1387 1238 1143 c 0,22,23
 1238 1096 1238 1096 1231 1050 c 1,24,-1
 991 1050 l 1,25,26
 993 1068 993 1068 993 1077 c 0,27,28
 993 1153 993 1153 936 1188 c 1,29,-1
 855 811 l 1,30,31
 1139 750 1139 750 1139 508 c 0,32,33
 1139 398 1139 398 1097 297 c 128,-1,34
 1055 196 1055 196 988.5 126 c 128,-1,35
 922 56 922 56 839.5 13.5 c 128,-1,36
 757 -29 757 -29 676 -32 c 1,37,-1
 654 -137 l 1,0,-1
725 197 m 1,38,39
 801 224 801 224 847 292.5 c 128,-1,40
 893 361 893 361 893 461 c 0,41,42
 893 554 893 554 807 582 c 1,43,-1
 725 197 l 1,38,39
626 859 m 1,44,-1
 697 1197 l 1,45,46
 638 1177 638 1177 596 1115 c 128,-1,47
 554 1053 554 1053 554 966 c 0,48,49
 554 897 554 897 626 859 c 1,44,-1
EndSplineSet
EndChar

StartChar: percent
Encoding: 37 37 9
Width: 1821
Flags: W
HStem: -55 172<1331.52 1493.17> -10 21G<409 700.364> 548 172<1414.92 1571.93> 716 172<546.521 708.166> 1319 172<629.924 786.929>
VStem: 340 193<899.159 1202.21> 801 193<1004.08 1307.73> 1125 193<128.159 431.212> 1586 193<233.076 536.725>
DStem2: 409 -10 686 -10 0.583335 0.812232<161.584 1847.99>
LayerCount: 3
Fore
SplineSet
1369 -55 m 3xaf80
 1203 -55 1125 47 1125 205 c 3
 1125 495 1298 720 1534 720 c 3
 1701 720 1779 618 1779 460 c 3
 1779 170 1605 -55 1369 -55 c 3xaf80
1586 431 m 3
 1586 512 1552 548 1497 548 c 3
 1406 548 1318 403 1318 233 c 3
 1318 152 1351 117 1406 117 c 3
 1497 117 1586 259 1586 431 c 3
584 716 m 3x1f80
 418 716 340 818 340 976 c 3
 340 1266 513 1491 749 1491 c 3
 916 1491 994 1389 994 1231 c 3
 994 941 820 716 584 716 c 3x1f80
801 1202 m 3
 801 1283 767 1319 712 1319 c 3
 621 1319 533 1174 533 1004 c 3
 533 923 566 888 621 888 c 3
 712 888 801 1030 801 1202 c 3
1487 1491 m 1
 1764 1491 l 1
 686 -10 l 1
 409 -10 l 1x4f80
 1487 1491 l 1
EndSplineSet
Validated: 1
Layer: 2
SplineSet
1369 -55 m 3,0,1
 1248 -55 1248 -55 1186.5 14 c 128,-1,2
 1125 83 1125 83 1125 205 c 0,3,4
 1125 348 1125 348 1177.5 466 c 128,-1,5
 1230 584 1230 584 1324 652 c 128,-1,6
 1418 720 1418 720 1534 720 c 0,7,8
 1656 720 1656 720 1717.5 651 c 128,-1,9
 1779 582 1779 582 1779 460 c 0,10,11
 1779 241 1779 241 1662 93 c 128,-1,12
 1545 -55 1545 -55 1369 -55 c 3,0,1
1586 431 m 3,13,14
 1586 548 1586 548 1497 548 c 0,15,16
 1428 548 1428 548 1373 453.5 c 128,-1,17
 1318 359 1318 359 1318 233 c 0,18,19
 1318 117 1318 117 1406 117 c 0,20,21
 1476 117 1476 117 1531 210.5 c 128,-1,22
 1586 304 1586 304 1586 431 c 3,13,14
584 716 m 3,23,24
 463 716 463 716 401.5 785 c 128,-1,25
 340 854 340 854 340 976 c 0,26,27
 340 1119 340 1119 392.5 1237 c 128,-1,28
 445 1355 445 1355 539 1423 c 128,-1,29
 633 1491 633 1491 749 1491 c 0,30,31
 871 1491 871 1491 932.5 1422 c 128,-1,32
 994 1353 994 1353 994 1231 c 0,33,34
 994 1012 994 1012 877 864 c 128,-1,35
 760 716 760 716 584 716 c 3,23,24
801 1202 m 3,36,37
 801 1319 801 1319 712 1319 c 0,38,39
 643 1319 643 1319 588 1224.5 c 128,-1,40
 533 1130 533 1130 533 1004 c 0,41,42
 533 888 533 888 621 888 c 0,43,44
 691 888 691 888 746 981.5 c 128,-1,45
 801 1075 801 1075 801 1202 c 3,36,37
1487 1491 m 1,46,-1
 1764 1491 l 1,47,-1
 686 -10 l 1,48,-1
 409 -10 l 1,49,-1
 1487 1491 l 1,46,-1
EndSplineSet
EndChar

StartChar: ampersand
Encoding: 38 38 10
Width: 1366
Flags: W
HStem: -13 220<465.232 774.729> 1250 220<791.145 971.389>
VStem: 165 247<260.931 491.176> 506 247<995.602 1211.78> 982 248<1058.98 1238.39>
LayerCount: 3
Fore
SplineSet
891 806 m 1
 1037 522 l 1
 1079 579 1116 648 1148 721 c 1
 1358 643 l 1
 1307 540 1244 442 1171 357 c 1
 1220 270 1279 195 1352 132 c 1
 1159 -67 l 1
 1097 -19 1037 50 978 140 c 1
 950 115 791 -13 573 -13 c 3
 264 -13 165 166 165 323 c 3
 165 540 340 732 585 837 c 1
 538 912 506 980 506 1064 c 3
 506 1305 720 1470 949 1470 c 3
 1110 1470 1230 1371 1230 1223 c 3
 1230 1035 1070 892 891 806 c 1
893 1250 m 3
 829 1250 753 1201 753 1120 c 3
 753 1079 773 1026 815 968 c 1
 899 1007 982 1070 982 1163 c 3
 982 1203 956 1250 893 1250 c 3
412 378 m 3
 412 287 470 207 584 207 c 3
 683 207 802 239 869 326 c 1
 669 656 l 1
 518 576 412 477 412 378 c 3
EndSplineSet
Validated: 1
Layer: 2
SplineSet
891 806 m 1,0,-1
 1037 522 l 1,1,2
 1096 602 1096 602 1148 721 c 1,3,-1
 1358 643 l 1,4,5
 1278 482 1278 482 1171 357 c 1,6,7
 1246 223 1246 223 1352 132 c 1,8,-1
 1159 -67 l 1,9,10
 1067 4 1067 4 978 140 c 1,11,12
 960 124 960 124 931 104.5 c 128,-1,13
 902 85 902 85 849 55.5 c 128,-1,14
 796 26 796 26 722.5 6.5 c 128,-1,15
 649 -13 649 -13 573 -13 c 0,16,17
 462 -13 462 -13 379.5 17 c 128,-1,18
 297 47 297 47 252 97 c 128,-1,19
 207 147 207 147 186 203.5 c 128,-1,20
 165 260 165 260 165 323 c 0,21,22
 165 482 165 482 280.5 619 c 128,-1,23
 396 756 396 756 585 837 c 1,24,25
 506 963 506 963 506 1064 c 0,26,27
 506 1181 506 1181 569 1275 c 128,-1,28
 632 1369 632 1369 733 1419.5 c 128,-1,29
 834 1470 834 1470 949 1470 c 0,30,31
 1071 1470 1071 1470 1150.5 1401.5 c 128,-1,32
 1230 1333 1230 1333 1230 1223 c 0,33,34
 1230 1091 1230 1091 1134.5 984 c 128,-1,35
 1039 877 1039 877 891 806 c 1,0,-1
893 1250 m 3,36,37
 841 1250 841 1250 797 1213.5 c 128,-1,38
 753 1177 753 1177 753 1120 c 0,39,40
 753 1054 753 1054 815 968 c 1,41,42
 982 1046 982 1046 982 1163 c 0,43,44
 982 1197 982 1197 959.5 1223.5 c 128,-1,45
 937 1250 937 1250 893 1250 c 3,36,37
412 378 m 3,46,47
 412 306 412 306 457 256.5 c 128,-1,48
 502 207 502 207 584 207 c 0,49,50
 667 207 667 207 744.5 236 c 128,-1,51
 822 265 822 265 869 326 c 1,52,-1
 669 656 l 1,53,54
 550 593 550 593 481 521 c 128,-1,55
 412 449 412 449 412 378 c 3,46,47
EndSplineSet
EndChar

StartChar: quotesingle
Encoding: 39 39 11
Width: 391
Flags: W
HStem: 947 519<373 477>
VStem: 308 328
LayerCount: 3
Fore
SplineSet
308 947 m 1
 321 1221 l 1
 373 1466 l 1
 636 1466 l 1
 584 1221 l 1
 477 947 l 1
 308 947 l 1
EndSplineSet
Validated: 1
Layer: 2
SplineSet
308 947 m 1,0,-1
 321 1221 l 1,1,-1
 373 1466 l 1,2,-1
 636 1466 l 1,3,-1
 584 1221 l 1,4,-1
 477 947 l 1,5,-1
 308 947 l 1,0,-1
EndSplineSet
EndChar

StartChar: parenleft
Encoding: 40 40 12
Width: 682
Flags: W
VStem: 164 271<-95.2881 570.516>
LayerCount: 3
Fore
SplineSet
973 1491 m 1
 717 1171 435 764 435 200 c 3
 435 -11 478 -221 564 -431 c 1
 344 -431 l 1
 244 -258 164 -20 164 249 c 3
 164 764 427 1151 753 1491 c 1
 973 1491 l 1
EndSplineSet
Validated: 1
Layer: 2
SplineSet
973 1491 m 1,0,1
 900 1399 900 1399 843.5 1321.5 c 128,-1,2
 787 1244 787 1244 720.5 1141 c 128,-1,3
 654 1038 654 1038 607 935.5 c 128,-1,4
 560 833 560 833 518.5 716 c 128,-1,5
 477 599 477 599 456 468 c 128,-1,6
 435 337 435 337 435 200 c 0,7,8
 435 -116 435 -116 564 -431 c 1,9,-1
 344 -431 l 1,10,11
 263 -291 263 -291 213.5 -116.5 c 128,-1,12
 164 58 164 58 164 249 c 0,13,14
 164 399 164 399 194.5 543.5 c 128,-1,15
 225 688 225 688 276.5 810.5 c 128,-1,16
 328 933 328 933 405.5 1056 c 128,-1,17
 483 1179 483 1179 565.5 1280.5 c 128,-1,18
 648 1382 648 1382 753 1491 c 1,19,-1
 973 1491 l 1,0,1
EndSplineSet
EndChar

StartChar: parenright
Encoding: 41 41 13
Width: 682
Flags: W
VStem: 480 267<518.543 1152.17>
LayerCount: 3
Fore
SplineSet
343 1491 m 1
 563 1491 l 1
 676 1280 747 1075 747 832 c 3
 747 308 438 -147 154 -431 c 1
 -66 -431 l 1
 270 -28 480 408 480 889 c 3
 480 1126 416 1297 343 1491 c 1
EndSplineSet
Validated: 1
Layer: 2
SplineSet
343 1491 m 1,0,-1
 563 1491 l 1,1,2
 654 1322 654 1322 700.5 1163.5 c 128,-1,3
 747 1005 747 1005 747 832 c 0,4,5
 747 680 747 680 712 526.5 c 128,-1,6
 677 373 677 373 620.5 242.5 c 128,-1,7
 564 112 564 112 485 -14.5 c 128,-1,8
 406 -141 406 -141 325 -241 c 128,-1,9
 244 -341 244 -341 154 -431 c 1,10,-1
 -66 -431 l 1,11,12
 480 224 480 224 480 889 c 0,13,14
 480 974 480 974 470 1051.5 c 128,-1,15
 460 1129 460 1129 437 1210.5 c 128,-1,16
 414 1292 414 1292 396.5 1344 c 128,-1,17
 379 1396 379 1396 343 1491 c 1,0,-1
EndSplineSet
EndChar

StartChar: asterisk
Encoding: 42 42 14
Width: 797
Flags: W
HStem: 1176 181<819.132 965>
VStem: 315 650
LayerCount: 3
Fore
SplineSet
795 1491 m 1
 779 1416 767 1361 747 1284 c 1
 813 1316 893 1335 965 1357 c 1
 969 1176 l 1
 900 1161 826 1149 754 1136 c 1
 773 1115 809 1059 864 968 c 1
 690 862 l 1
 655 915 632 981 613 1041 c 1
 568 981 517 915 460 862 c 1
 332 968 l 1
 425 1059 485 1115 512 1136 c 1
 446 1149 378 1161 315 1176 c 1
 395 1357 l 1
 457 1335 531 1316 583 1284 c 1
 595 1361 607 1416 623 1491 c 1
 795 1491 l 1
EndSplineSet
Validated: 1
Layer: 2
SplineSet
795 1491 m 1,0,1
 768 1367 768 1367 747 1284 c 1,2,3
 770 1295 770 1295 800 1306 c 128,-1,4
 830 1317 830 1317 852 1324 c 128,-1,5
 874 1331 874 1331 911 1341.5 c 128,-1,6
 948 1352 948 1352 965 1357 c 1,7,-1
 969 1176 l 1,8,9
 937 1169 937 1169 754 1136 c 1,10,11
 779 1108 779 1108 864 968 c 1,12,-1
 690 862 l 1,13,14
 651 921 651 921 613 1041 c 1,15,16
 522 920 522 920 460 862 c 1,17,-1
 332 968 l 1,18,19
 471.5 1104.5 471.5 1104.5 512 1136 c 1,20,21
 344 1169 344 1169 315 1176 c 1,22,-1
 395 1357 l 1,23,24
 411 1351 411 1351 442.5 1341 c 128,-1,25
 474 1331 474 1331 494 1324 c 128,-1,26
 514 1317 514 1317 539.5 1306 c 128,-1,27
 565 1295 565 1295 583 1284 c 1,28,29
 594 1356 594 1356 623 1491 c 1,30,-1
 795 1491 l 1,0,1
EndSplineSet
EndChar

StartChar: plus
Encoding: 43 43 15
Width: 1196
Flags: W
HStem: 614 220<291 609 895 1213>
DStem2: 528 237 768 237 0.207912 0.978148<49.8988 385.603 660.258 990.655>
LayerCount: 3
Fore
SplineSet
528 237 m 1
 609 614 l 1
 245 614 l 1
 291 834 l 1
 655 834 l 1
 734 1206 l 1
 974 1206 l 1
 895 834 l 1
 1259 834 l 1
 1213 614 l 1
 849 614 l 1
 768 237 l 1
 528 237 l 1
EndSplineSet
Validated: 1
Layer: 2
SplineSet
528 237 m 1,0,-1
 609 614 l 1,1,-1
 245 614 l 1,2,-1
 291 834 l 1,3,-1
 655 834 l 1,4,-1
 734 1206 l 1,5,-1
 974 1206 l 1,6,-1
 895 834 l 1,7,-1
 1259 834 l 1,8,-1
 1213 614 l 1,9,-1
 849 614 l 1,10,-1
 768 237 l 1,11,-1
 528 237 l 1,0,-1
EndSplineSet
EndChar

StartChar: comma
Encoding: 44 44 16
Width: 569
Flags: W
HStem: -300 531
VStem: 67 401
LayerCount: 3
Fore
SplineSet
117 -22 m 1
 171 231 l 1
 468 231 l 1
 414 -22 l 2
 376 -201 299 -258 204 -300 c 1
 67 -207 l 1
 185 -159 228 -65 239 -22 c 1
 117 -22 l 1
EndSplineSet
Validated: 1
Layer: 2
SplineSet
117 -22 m 1,0,-1
 171 231 l 1,1,-1
 468 231 l 1,2,-1
 414 -22 l 2,3,4
 396 -107 396 -107 362.5 -164.5 c 128,-1,5
 329 -222 329 -222 293.5 -249 c 128,-1,6
 258 -276 258 -276 204 -300 c 1,7,-1
 67 -207 l 1,8,9
 145 -175 145 -175 186 -122 c 128,-1,10
 227 -69 227 -69 239 -22 c 1,11,-1
 117 -22 l 1,0,-1
EndSplineSet
EndChar

StartChar: hyphen
Encoding: 45 45 17
Width: 682
Flags: W
HStem: 411 220<199 705>
VStem: 152 600
LayerCount: 3
Fore
SplineSet
152 411 m 1
 199 631 l 1
 752 631 l 1
 705 411 l 1
 152 411 l 1
EndSplineSet
Validated: 1
Layer: 2
SplineSet
152 411 m 1,0,-1
 199 631 l 1,1,-1
 752 631 l 1,2,-1
 705 411 l 1,3,-1
 152 411 l 1,0,-1
EndSplineSet
EndChar

StartChar: period
Encoding: 46 46 18
Width: 569
Flags: W
HStem: 0 220<201 430>
VStem: 154 323
LayerCount: 3
Fore
SplineSet
154 0 m 1
 201 220 l 1
 477 220 l 1
 430 0 l 1
 154 0 l 1
EndSplineSet
Validated: 1
Layer: 2
SplineSet
154 0 m 1,0,-1
 201 220 l 1,1,-1
 477 220 l 1,2,-1
 430 0 l 1,3,-1
 154 0 l 1,0,-1
EndSplineSet
EndChar

StartChar: slash
Encoding: 47 47 19
Width: 595
Flags: W
HStem: -10 21G<-112 140.162> 1450 20G<775.838 1028>
DStem2: -112 -10 128 -10 0.519581 0.854421<124.699 1732.17>
LayerCount: 3
Fore
SplineSet
-112 -10 m 1
 788 1470 l 1
 1028 1470 l 1
 128 -10 l 1
 -112 -10 l 1
EndSplineSet
Validated: 1
Layer: 2
SplineSet
-112 -10 m 1,0,-1
 788 1470 l 1,1,-1
 1028 1470 l 1,2,-1
 128 -10 l 1,3,-1
 -112 -10 l 1,0,-1
EndSplineSet
EndChar

StartChar: zero
Encoding: 48 48 20
Width: 1139
Flags: W
HStem: -13 220<497.453 727.112> 1250 220<702.623 939.166>
VStem: 202 241<258.394 754.234> 992 241<690.688 1195.51>
LayerCount: 3
Fore
SplineSet
557 -13 m 3
 308 -13 202 141 202 405 c 3
 202 632 307 1470 872 1470 c 3
 1124 1470 1233 1313 1233 1046 c 3
 1233 800 1122 -13 557 -13 c 3
826 1250 m 3
 496 1250 443 497 443 435 c 3
 443 278 496 207 604 207 c 3
 934 207 992 938 992 1014 c 3
 992 1176 936 1250 826 1250 c 3
EndSplineSet
Validated: 1
Layer: 2
SplineSet
557 -13 m 3,0,1
 202 -13 202 -13 202 405 c 0,2,3
 202 461 202 461 209 536 c 128,-1,4
 216 611 216 611 236.5 715 c 128,-1,5
 257 819 257 819 287.5 920 c 128,-1,6
 318 1021 318 1021 371.5 1122 c 128,-1,7
 425 1223 425 1223 492 1299 c 128,-1,8
 559 1375 559 1375 657.5 1422.5 c 128,-1,9
 756 1470 756 1470 872 1470 c 0,10,11
 1233 1470 1233 1470 1233 1046 c 0,12,13
 1233 986 1233 986 1225.5 909.5 c 128,-1,14
 1218 833 1218 833 1197.5 729 c 128,-1,15
 1177 625 1177 625 1145.5 525.5 c 128,-1,16
 1114 426 1114 426 1060 327 c 128,-1,17
 1006 228 1006 228 938.5 153.5 c 128,-1,18
 871 79 871 79 772 33 c 128,-1,19
 673 -13 673 -13 557 -13 c 3,0,1
826 1250 m 3,20,21
 759 1250 759 1250 701.5 1208 c 128,-1,22
 644 1166 644 1166 605.5 1100 c 128,-1,23
 567 1034 567 1034 537 948.5 c 128,-1,24
 507 863 507 863 490 782 c 128,-1,25
 473 701 473 701 461.5 623.5 c 128,-1,26
 450 546 450 546 446.5 500 c 128,-1,27
 443 454 443 454 443 435 c 0,28,29
 443 318 443 318 482.5 262.5 c 128,-1,30
 522 207 522 207 604 207 c 0,31,32
 672 207 672 207 729.5 248 c 128,-1,33
 787 289 787 289 825.5 353.5 c 128,-1,34
 864 418 864 418 895 501 c 128,-1,35
 926 584 926 584 943.5 664 c 128,-1,36
 961 744 961 744 972.5 821 c 128,-1,37
 984 898 984 898 988 945 c 128,-1,38
 992 992 992 992 992 1014 c 0,39,40
 992 1250 992 1250 826 1250 c 3,20,21
EndSplineSet
EndChar

StartChar: one
Encoding: 49 49 21
Width: 1139
Flags: W
HStem: 0 21G<523 767.253> 1452 20G<789 1076>
VStem: 402 674
DStem2: 523 0 763 0 0.207912 0.978148<49.8988 1068.32 1362.65 1504.91>
LayerCount: 3
Fore
SplineSet
458 1104 m 1
 641 1183 742 1274 836 1472 c 1
 1076 1472 l 1
 763 0 l 1
 523 0 l 1
 745 1045 l 1
 596 908 465 858 402 844 c 1
 458 1104 l 1
EndSplineSet
Validated: 1
Layer: 2
SplineSet
458 1104 m 1,0,1
 598 1164 598 1164 682.5 1245 c 128,-1,2
 767 1326 767 1326 836 1472 c 1,3,-1
 1076 1472 l 1,4,-1
 763 0 l 1,5,-1
 523 0 l 1,6,-1
 745 1045 l 1,7,8
 646 954 646 954 555.5 906 c 128,-1,9
 465 858 465 858 402 844 c 1,10,-1
 458 1104 l 1,0,1
EndSplineSet
EndChar

StartChar: two
Encoding: 50 50 22
Width: 1139
Flags: W
HStem: 0 220<429 1031> 1250 220<678.933 968.608>
VStem: 1022 244<969.801 1193.28>
LayerCount: 3
Fore
SplineSet
884 1470 m 3
 1125 1470 1266 1344 1266 1156 c 3
 1266 725 661 487 429 220 c 1
 1078 220 l 1
 1031 0 l 1
 62 0 l 1
 196 532 1022 744 1022 1100 c 3
 1022 1191 931 1250 834 1250 c 3
 689 1250 590 1163 555 1030 c 1
 315 1030 l 1
 371 1295 596 1470 884 1470 c 3
EndSplineSet
Validated: 1
Layer: 2
SplineSet
884 1470 m 3,0,1
 1063 1470 1063 1470 1164.5 1384.5 c 128,-1,2
 1266 1299 1266 1299 1266 1156 c 0,3,4
 1266 1068 1266 1068 1232.5 983.5 c 128,-1,5
 1199 899 1199 899 1140.5 828 c 128,-1,6
 1082 757 1082 757 1010.5 691.5 c 128,-1,7
 939 626 939 626 855.5 564 c 128,-1,8
 772 502 772 502 697 447.5 c 128,-1,9
 622 393 622 393 548 332.5 c 128,-1,10
 474 272 474 272 429 220 c 1,11,-1
 1078 220 l 1,12,-1
 1031 0 l 1,13,-1
 62 0 l 1,14,15
 89 108 89 108 157 209 c 128,-1,16
 225 310 225 310 311 389 c 128,-1,17
 397 468 397 468 495.5 543 c 128,-1,18
 594 618 594 618 686.5 685.5 c 128,-1,19
 779 753 779 753 854.5 818.5 c 128,-1,20
 930 884 930 884 976 956 c 128,-1,21
 1022 1028 1022 1028 1022 1100 c 0,22,23
 1022 1166 1022 1166 966 1208 c 128,-1,24
 910 1250 910 1250 834 1250 c 0,25,26
 727 1250 727 1250 654.5 1191 c 128,-1,27
 582 1132 582 1132 555 1030 c 1,28,-1
 315 1030 l 1,29,30
 357 1229 357 1229 512.5 1349.5 c 128,-1,31
 668 1470 668 1470 884 1470 c 3,0,1
EndSplineSet
EndChar

StartChar: three
Encoding: 51 51 23
Width: 1139
Flags: W
HStem: -13 220<478.697 752.912> 659 220<628 832.645> 1061 21G<330 588> 1250 220<674.511 926.262>
VStem: 166 249<274.967 424> 904 251<348.704 591.994> 972 246<989.762 1204.72>
LayerCount: 3
Fore
SplineSet
549 -13 m 3xfc
 327 -13 166 125 166 332 c 3
 166 361 169 392 176 424 c 1
 416 424 l 1
 415 417 415 410 415 403 c 3
 415 285 499 207 597 207 c 3
 766 207 904 341 904 483 c 3xfc
 904 588 811 659 677 659 c 3
 644 659 611 654 578 645 c 1
 628 879 l 1
 846 882 972 971 972 1117 c 3
 972 1190 892 1250 815 1250 c 3
 704 1250 606 1179 570 1061 c 1
 330 1061 l 1
 379 1293 608 1470 857 1470 c 3
 1071 1470 1218 1351 1218 1170 c 3xfa
 1218 980 1108 833 979 788 c 1
 1101 768 1155 692 1155 570 c 3
 1155 226 865 -13 549 -13 c 3xfc
EndSplineSet
Validated: 1
Layer: 2
SplineSet
549 -13 m 3,0,1
 381 -13 381 -13 273.5 82.5 c 128,-1,2
 166 178 166 178 166 332 c 0,3,4
 166 378 166 378 176 424 c 1,5,-1
 416 424 l 1,6,7
 415 417 415 417 415 403 c 0,8,9
 415 317 415 317 468 262 c 128,-1,10
 521 207 521 207 597 207 c 0,11,12
 722 207 722 207 813 291 c 128,-1,13
 904 375 904 375 904 483 c 0,14,15
 904 562 904 562 841 610.5 c 128,-1,16
 778 659 778 659 677 659 c 0,17,18
 629 659 629 659 578 645 c 1,19,-1
 628 879 l 1,20,21
 791 881 791 881 881.5 944 c 128,-1,22
 972 1007 972 1007 972 1117 c 0,23,24
 972 1170 972 1170 923 1210 c 128,-1,25
 874 1250 874 1250 815 1250 c 0,26,27
 731 1250 731 1250 664 1199 c 128,-1,28
 597 1148 597 1148 570 1061 c 1,29,-1
 330 1061 l 1,30,31
 367 1235 367 1235 518.5 1352.5 c 128,-1,32
 670 1470 670 1470 857 1470 c 0,33,34
 1018 1470 1018 1470 1118 1387.5 c 128,-1,35
 1218 1305 1218 1305 1218 1170 c 0,36,37
 1218 1032 1218 1032 1149 927.5 c 128,-1,38
 1080 823 1080 823 979 788 c 1,39,40
 1155 759 1155 759 1155 570 c 0,41,42
 1155 403 1155 403 1069.5 268 c 128,-1,43
 984 133 984 133 845.5 60 c 128,-1,44
 707 -13 707 -13 549 -13 c 3,0,1
EndSplineSet
EndChar

StartChar: four
Encoding: 52 52 24
Width: 1139
Flags: W
HStem: 0 21G<652 896.281> 327 220<437 722 1008 1140> 1452 20G<947.854 1205>
DStem2: 172 547 437 547 0.650859 0.759199<172.478 863.834> 652 0 892 0 0.207912 0.978148<49.8988 334.408 609.063 1101.08>
LayerCount: 3
Fore
SplineSet
652 0 m 1
 722 327 l 1
 126 327 l 1
 172 547 l 1
 965 1472 l 1
 1205 1472 l 1
 1008 547 l 1
 1186 547 l 1
 1140 327 l 1
 962 327 l 1
 892 0 l 1
 652 0 l 1
768 547 m 1
 881 1077 l 1
 437 547 l 1
 768 547 l 1
EndSplineSet
Validated: 1
Layer: 2
SplineSet
652 0 m 1,0,-1
 722 327 l 1,1,-1
 126 327 l 1,2,-1
 172 547 l 1,3,-1
 965 1472 l 1,4,-1
 1205 1472 l 1,5,-1
 1008 547 l 1,6,-1
 1186 547 l 1,7,-1
 1140 327 l 1,8,-1
 962 327 l 1,9,-1
 892 0 l 1,10,-1
 652 0 l 1,0,-1
768 547 m 1,11,-1
 881 1077 l 1,12,-1
 437 547 l 1,13,-1
 768 547 l 1,11,-1
EndSplineSet
EndChar

StartChar: five
Encoding: 53 53 25
Width: 1139
Flags: W
HStem: -13 220<460.786 753.998> 774 220<631.922 868.819> 1230 220<721 1249>
VStem: 169 241<255.455 412> 932 246<395.417 709.413>
DStem2: 267 705 603 937 0.373536 0.927616<66.6264 143.201 340.715 656.584>
LayerCount: 3
Fore
SplineSet
553 -13 m 3
 295 -13 169 125 169 343 c 3
 169 365 170 388 173 412 c 1
 413 412 l 1
 411 397 410 382 410 369 c 3
 410 233 523 207 600 207 c 3
 783 207 932 362 932 580 c 3
 932 707 856 774 718 774 c 3
 623 774 567 745 500 683 c 1
 267 705 l 1
 567 1450 l 1
 1296 1450 l 1
 1249 1230 l 1
 721 1230 l 1
 603 937 l 1
 684 975 734 994 802 994 c 3
 1047 994 1178 842 1178 631 c 3
 1178 256 889 -13 553 -13 c 3
EndSplineSet
Validated: 1
Layer: 2
SplineSet
553 -13 m 3,0,1
 364 -13 364 -13 266.5 81.5 c 128,-1,2
 169 176 169 176 169 343 c 0,3,4
 169 380 169 380 173 412 c 1,5,-1
 413 412 l 1,6,7
 410 390 410 390 410 369 c 0,8,9
 410 321 410 321 428 287 c 128,-1,10
 446 253 446 253 476.5 236.5 c 128,-1,11
 507 220 507 220 537 213.5 c 128,-1,12
 567 207 567 207 600 207 c 0,13,14
 739 207 739 207 835.5 313 c 128,-1,15
 932 419 932 419 932 580 c 0,16,17
 932 675 932 675 877 724.5 c 128,-1,18
 822 774 822 774 718 774 c 0,19,20
 649 774 649 774 601 753 c 128,-1,21
 553 732 553 732 500 683 c 1,22,-1
 267 705 l 1,23,-1
 567 1450 l 1,24,-1
 1296 1450 l 1,25,-1
 1249 1230 l 1,26,-1
 721 1230 l 1,27,-1
 603 937 l 1,28,29
 669 968 669 968 711.5 981 c 128,-1,30
 754 994 754 994 802 994 c 0,31,32
 981 994 981 994 1079.5 894 c 128,-1,33
 1178 794 1178 794 1178 631 c 0,34,35
 1178 494 1178 494 1127.5 373 c 128,-1,36
 1077 252 1077 252 992 168 c 128,-1,37
 907 84 907 84 792.5 35.5 c 128,-1,38
 678 -13 678 -13 553 -13 c 3,0,1
EndSplineSet
EndChar

StartChar: six
Encoding: 54 54 26
Width: 1139
Flags: W
HStem: -13 220<502.438 766.27> 751 220<602.555 859.616> 1250 220<712.843 989.34>
VStem: 193 252<262.574 587.684> 916 244<375.238 693.512>
LayerCount: 3
Fore
SplineSet
915 1470 m 3
 1120 1470 1260 1354 1260 1175 c 3
 1260 1149 1258 1122 1252 1094 c 1
 1039 1094 l 1
 1029 1210 945 1250 866 1250 c 3
 688 1250 560 1103 498 852 c 1
 580 931 679 971 795 971 c 3
 1025 971 1160 808 1160 594 c 3
 1160 306 926 -13 583 -13 c 3
 285 -13 193 182 193 421 c 3
 193 658 314 1470 915 1470 c 3
623 207 m 3
 785 207 916 357 916 558 c 3
 916 671 857 751 733 751 c 3
 577 751 445 606 445 403 c 3
 445 291 502 207 623 207 c 3
EndSplineSet
Validated: 1
Layer: 2
SplineSet
915 1470 m 3,0,1
 1070 1470 1070 1470 1165 1389.5 c 128,-1,2
 1260 1309 1260 1309 1260 1175 c 0,3,4
 1260 1131 1260 1131 1252 1094 c 1,5,-1
 1039 1094 l 1,6,7
 1032 1175 1032 1175 982.5 1212.5 c 128,-1,8
 933 1250 933 1250 866 1250 c 0,9,10
 734 1250 734 1250 639.5 1146 c 128,-1,11
 545 1042 545 1042 498 852 c 1,12,13
 622 971 622 971 795 971 c 0,14,15
 964 971 964 971 1062 865 c 128,-1,16
 1160 759 1160 759 1160 594 c 0,17,18
 1160 486 1160 486 1117.5 377.5 c 128,-1,19
 1075 269 1075 269 1001 182.5 c 128,-1,20
 927 96 927 96 817 41.5 c 128,-1,21
 707 -13 707 -13 583 -13 c 0,22,23
 475 -13 475 -13 397 20.5 c 128,-1,24
 319 54 319 54 275.5 115 c 128,-1,25
 232 176 232 176 212.5 251.5 c 128,-1,26
 193 327 193 327 193 421 c 0,27,28
 193 478 193 478 201 554 c 128,-1,29
 209 630 209 630 231.5 732.5 c 128,-1,30
 254 835 254 835 287.5 934 c 128,-1,31
 321 1033 321 1033 378.5 1131.5 c 128,-1,32
 436 1230 436 1230 508.5 1304 c 128,-1,33
 581 1378 581 1378 686 1424 c 128,-1,34
 791 1470 791 1470 915 1470 c 3,0,1
623 207 m 3,35,36
 746 207 746 207 831 307.5 c 128,-1,37
 916 408 916 408 916 558 c 0,38,39
 916 646 916 646 869.5 698.5 c 128,-1,40
 823 751 823 751 733 751 c 0,41,42
 614 751 614 751 529.5 652 c 128,-1,43
 445 553 445 553 445 403 c 0,44,45
 445 315 445 315 490.5 261 c 128,-1,46
 536 207 536 207 623 207 c 3,35,36
EndSplineSet
EndChar

StartChar: seven
Encoding: 55 55 27
Width: 1139
Flags: W
HStem: 0 21G<262 516.5> 1230 220<405 1025>
VStem: 262 240<0 148.333>
LayerCount: 3
Fore
SplineSet
358 1230 m 1
 405 1450 l 1
 1354 1450 l 1
 1307 1230 l 1
 1195 1136 910 856 813 692 c 0
 600 328 531 138 502 0 c 1
 262 0 l 1
 314 243 435 502 620 776 c 0
 694 885 858 1069 1025 1230 c 1
 358 1230 l 1
EndSplineSet
Validated: 1
Layer: 2
SplineSet
358 1230 m 1,0,-1
 405 1450 l 1,1,-1
 1354 1450 l 1,2,-1
 1307 1230 l 1,3,4
 1200 1140 1200 1140 1039 971 c 128,-1,5
 878 802 878 802 813 692 c 0,6,7
 665 440 665 440 596 279 c 128,-1,8
 527 118 527 118 502 0 c 1,9,-1
 262 0 l 1,10,11
 339 360 339 360 620 776 c 0,12,13
 676 858 676 858 788 983.5 c 128,-1,14
 900 1109 900 1109 1025 1230 c 1,15,-1
 358 1230 l 1,0,-1
EndSplineSet
EndChar

StartChar: eight
Encoding: 56 56 28
Width: 1139
Flags: W
HStem: -13 220<463.082 770.694> 660 220<638.935 859.639> 1250 220<702.994 946.012>
VStem: 163 246<263.934 534.716> 363 241<914.942 1152.98> 908 244<340.633 610.247> 981 245<974.258 1212.99>
LayerCount: 3
Fore
SplineSet
563 -13 m 3xe4
 343 -13 163 103 163 328 c 3xf4
 163 594 326 738 526 788 c 1
 406 836 363 914 363 1002 c 3
 363 1252 606 1470 878 1470 c 3
 1089 1470 1226 1347 1226 1160 c 3xea
 1226 991 1141 857 940 788 c 1
 1073 751 1152 672 1152 532 c 3
 1152 234 891 -13 563 -13 c 3xe4
753 880 m 3
 877 880 981 978 981 1112 c 3
 981 1203 916 1250 832 1250 c 3
 727 1250 604 1167 604 1019 c 3xea
 604 937 656 880 753 880 c 3
610 207 m 3
 784 207 908 325 908 497 c 3
 908 604 838 660 706 660 c 3
 542 660 409 561 409 377 c 3xf4
 409 277 477 207 610 207 c 3
EndSplineSet
Validated: 1
Layer: 2
SplineSet
563 -13 m 3,0,1
 390 -13 390 -13 276.5 76.5 c 128,-1,2
 163 166 163 166 163 328 c 0,3,4
 163 517 163 517 263.5 632 c 128,-1,5
 364 747 364 747 526 788 c 1,6,7
 363 853 363 853 363 1002 c 0,8,9
 363 1124 363 1124 434.5 1232.5 c 128,-1,10
 506 1341 506 1341 625 1405.5 c 128,-1,11
 744 1470 744 1470 878 1470 c 0,12,13
 1036 1470 1036 1470 1131 1385 c 128,-1,14
 1226 1300 1226 1300 1226 1160 c 0,15,16
 1226 886 1226 886 940 788 c 1,17,18
 1152 729 1152 729 1152 532 c 0,19,20
 1152 422 1152 422 1105.5 321.5 c 128,-1,21
 1059 221 1059 221 980.5 147.5 c 128,-1,22
 902 74 902 74 793 30.5 c 128,-1,23
 684 -13 684 -13 563 -13 c 3,0,1
753 880 m 3,24,25
 847 880 847 880 914 946.5 c 128,-1,26
 981 1013 981 1013 981 1112 c 0,27,28
 981 1178 981 1178 939.5 1214 c 128,-1,29
 898 1250 898 1250 832 1250 c 0,30,31
 746 1250 746 1250 675 1186.5 c 128,-1,32
 604 1123 604 1123 604 1019 c 0,33,34
 604 956 604 956 643 918 c 128,-1,35
 682 880 682 880 753 880 c 3,24,25
610 207 m 3,36,37
 741 207 741 207 824.5 287.5 c 128,-1,38
 908 368 908 368 908 497 c 0,39,40
 908 577 908 577 856.5 618.5 c 128,-1,41
 805 660 805 660 706 660 c 0,42,43
 578 660 578 660 493.5 585 c 128,-1,44
 409 510 409 510 409 377 c 0,45,46
 409 300 409 300 461 253.5 c 128,-1,47
 513 207 513 207 610 207 c 3,36,37
EndSplineSet
EndChar

StartChar: nine
Encoding: 57 57 29
Width: 1139
Flags: W
HStem: -13 220<483.54 762.565> 489 220<607.107 880.589> 1250 220<702.029 965.986>
VStem: 198 248<248.018 366> 307 246<765.351 1071.03> 1021 255<871.682 1195.9>
LayerCount: 3
Fore
SplineSet
552 -13 m 3xec
 337 -13 198 103 198 285 c 3
 198 311 201 338 207 366 c 1
 447 366 l 1
 446 359 446 353 446 347 c 3xf4
 446 260 510 207 610 207 c 3
 817 207 891 358 947 573 c 1
 867 507 790 489 668 489 c 3
 444 489 307 640 307 854 c 3
 307 1132 534 1470 884 1470 c 3
 1182 1470 1276 1275 1276 1037 c 3
 1276 816 1156 -13 552 -13 c 3xec
735 709 m 3
 937 709 1021 906 1021 1059 c 3
 1021 1171 965 1250 845 1250 c 3
 678 1250 553 1094 553 900 c 3xec
 553 781 620 709 735 709 c 3
EndSplineSet
Validated: 1
Layer: 2
SplineSet
552 -13 m 3,0,1
 391 -13 391 -13 294.5 68 c 128,-1,2
 198 149 198 149 198 285 c 0,3,4
 198 324 198 324 207 366 c 1,5,-1
 447 366 l 1,6,7
 446 359 446 359 446 347 c 0,8,9
 446 282 446 282 490.5 244.5 c 128,-1,10
 535 207 535 207 610 207 c 128,-1,11
 685 207 685 207 741 232.5 c 128,-1,12
 797 258 797 258 835.5 310.5 c 128,-1,13
 874 363 874 363 899 423.5 c 128,-1,14
 924 484 924 484 947 573 c 1,15,16
 889 525 889 525 826 507 c 128,-1,17
 763 489 763 489 668 489 c 0,18,19
 502 489 502 489 404.5 590 c 128,-1,20
 307 691 307 691 307 854 c 0,21,22
 307 959 307 959 349 1067.5 c 128,-1,23
 391 1176 391 1176 463.5 1266 c 128,-1,24
 536 1356 536 1356 647 1413 c 128,-1,25
 758 1470 758 1470 884 1470 c 0,26,27
 992 1470 992 1470 1070.5 1436.5 c 128,-1,28
 1149 1403 1149 1403 1192.5 1342 c 128,-1,29
 1236 1281 1236 1281 1256 1206 c 128,-1,30
 1276 1131 1276 1131 1276 1037 c 0,31,32
 1276 983 1276 983 1268 909 c 128,-1,33
 1260 835 1260 835 1237.5 732.5 c 128,-1,34
 1215 630 1215 630 1181.5 530.5 c 128,-1,35
 1148 431 1148 431 1090 331 c 128,-1,36
 1032 231 1032 231 960 156 c 128,-1,37
 888 81 888 81 782 34 c 128,-1,38
 676 -13 676 -13 552 -13 c 3,0,1
735 709 m 3,39,40
 807 709 807 709 864 741.5 c 128,-1,41
 921 774 921 774 954 827 c 128,-1,42
 987 880 987 880 1004 939.5 c 128,-1,43
 1021 999 1021 999 1021 1059 c 0,44,45
 1021 1146 1021 1146 976.5 1198 c 128,-1,46
 932 1250 932 1250 845 1250 c 0,47,48
 721 1250 721 1250 637 1148.5 c 128,-1,49
 553 1047 553 1047 553 900 c 0,50,51
 553 810 553 810 601 759.5 c 128,-1,52
 649 709 649 709 735 709 c 3,39,40
EndSplineSet
EndChar

StartChar: colon
Encoding: 58 58 30
Width: 569
Flags: W
HStem: 0 230<209 415> 832 230<386 592>
VStem: 160 481
DStem2: 160 0 415 0 0.207912 0.978148<53.0175 235.162 903.637 1085.78>
LayerCount: 3
Fore
SplineSet
337 832 m 1
 386 1062 l 1
 641 1062 l 1
 592 832 l 1
 337 832 l 1
160 0 m 1
 209 230 l 1
 464 230 l 1
 415 0 l 1
 160 0 l 1
EndSplineSet
Validated: 1
Layer: 2
SplineSet
337 832 m 1,0,-1
 386 1062 l 1,1,-1
 641 1062 l 1,2,-1
 592 832 l 1,3,-1
 337 832 l 1,0,-1
160 0 m 1,4,-1
 209 230 l 1,5,-1
 464 230 l 1,6,-1
 415 0 l 1,7,-1
 160 0 l 1,4,-1
EndSplineSet
EndChar

StartChar: semicolon
Encoding: 59 59 31
Width: 569
Flags: W
HStem: 832 230<383 589>
VStem: 100 538
DStem2: 93.8707 -297 348.871 -297 0.207912 0.978148<326.047 513.304 1207.27 1389.42>
LayerCount: 3
Fore
SplineSet
334 832 m 1
 383 1062 l 1
 638 1062 l 1
 589 832 l 1
 334 832 l 1
157 0 m 1
 201 205 l 1
 456 205 l 1
 412 0 l 2
 377 -163 309 -262 207 -297 c 1
 100 -213 l 1
 177 -182 229 -120 259 0 c 1
 157 0 l 1
EndSplineSet
Validated: 1
Layer: 2
SplineSet
334 832 m 1,0,-1
 383 1062 l 1,1,-1
 638 1062 l 1,2,-1
 589 832 l 1,3,-1
 334 832 l 1,0,-1
157 0 m 1,4,-1
 201 205 l 1,5,-1
 456 205 l 1,6,-1
 412 0 l 2,7,8
 359 -245 359 -245 207 -297 c 1,9,-1
 100 -213 l 1,10,11
 218 -166 218 -166 259 0 c 1,12,-1
 157 0 l 1,4,-1
EndSplineSet
EndChar

StartChar: less
Encoding: 60 60 32
Width: 1196
Flags: W
DStem2: 577 724 248 641 0.905028 -0.425353<0 660.152> 284 809 577 724 0.932434 0.36134<242.489 1006.23>
LayerCount: 3
Fore
SplineSet
248 641 m 1
 284 809 l 1
 1342 1219 l 1
 1293 990 l 1
 577 724 l 1
 1180 455 l 1
 1131 226 l 1
 248 641 l 1
EndSplineSet
Validated: 1
Layer: 2
SplineSet
248 641 m 1,0,-1
 284 809 l 1,1,-1
 1342 1219 l 1,2,-1
 1293 990 l 1,3,-1
 577 724 l 1,4,-1
 1180 455 l 1,5,-1
 1131 226 l 1,6,-1
 248 641 l 1,0,-1
EndSplineSet
EndChar

StartChar: equal
Encoding: 61 61 33
Width: 1196
Flags: W
HStem: 416 220<249 1170> 811 220<333 1254>
LayerCount: 3
Fore
SplineSet
1254 811 m 1
 286 811 l 1
 333 1031 l 1
 1301 1031 l 1
 1254 811 l 1
1170 416 m 1
 202 416 l 1
 249 636 l 1
 1217 636 l 1
 1170 416 l 1
EndSplineSet
Validated: 1
Layer: 2
SplineSet
1254 811 m 1,0,-1
 286 811 l 1,1,-1
 333 1031 l 1,2,-1
 1301 1031 l 1,3,-1
 1254 811 l 1,0,-1
1170 416 m 1,4,-1
 202 416 l 1,5,-1
 249 636 l 1,6,-1
 1217 636 l 1,7,-1
 1170 416 l 1,4,-1
EndSplineSet
EndChar

StartChar: greater
Encoding: 62 62 34
Width: 1196
Flags: W
DStem2: 209 455 160 226 0.931061 0.364863<0 745.236> 371 1219 322 990 0.907177 -0.420749<51.9 691.796>
LayerCount: 3
Fore
SplineSet
1219 641 m 1
 160 226 l 1
 209 455 l 1
 904 724 l 1
 322 990 l 1
 371 1219 l 1
 1255 809 l 1
 1219 641 l 1
EndSplineSet
Validated: 1
Layer: 2
SplineSet
1219 641 m 1,0,-1
 160 226 l 1,1,-1
 209 455 l 1,2,-1
 904 724 l 1,3,-1
 322 990 l 1,4,-1
 371 1219 l 1,5,-1
 1255 809 l 1,6,-1
 1219 641 l 1,0,-1
EndSplineSet
EndChar

StartChar: question
Encoding: 63 63 35
Width: 1139
Flags: W
HStem: 0 235<471 695> 1284 220<710.83 979.467>
VStem: 1032 244<992.163 1231.94>
DStem2: 471 235 745 235 0.150617 0.988592<-198.581 0 166.585 290.55>
LayerCount: 3
Fore
SplineSet
885 1504 m 3
 1121 1504 1276 1379 1276 1177 c 3
 1276 1059 1250 952 1061 782 c 0
 942 676 797 580 750 361 c 1
 510 361 l 1
 564 615 686 714 801 803 c 0
 999 957 1032 1055 1032 1131 c 3
 1032 1251 908 1284 841 1284 c 3
 714 1284 570 1133 552 1046 c 1
 312 1046 l 1
 366 1300 613 1504 885 1504 c 3
421 0 m 1
 471 235 l 1
 745 235 l 1
 695 0 l 1
 421 0 l 1
EndSplineSet
Validated: 1
Layer: 2
SplineSet
885 1504 m 3,0,1
 1063 1504 1063 1504 1169.5 1416 c 128,-1,2
 1276 1328 1276 1328 1276 1177 c 0,3,4
 1276 1128 1276 1128 1268.5 1088.5 c 128,-1,5
 1261 1049 1261 1049 1239.5 1000.5 c 128,-1,6
 1218 952 1218 952 1174 898 c 128,-1,7
 1130 844 1130 844 1061 782 c 0,8,9
 1047 770 1047 770 1001.5 730.5 c 128,-1,10
 956 691 956 691 936.5 673 c 128,-1,11
 917 655 917 655 880 615 c 128,-1,12
 843 575 843 575 823.5 542.5 c 128,-1,13
 804 510 804 510 782.5 462 c 128,-1,14
 761 414 761 414 750 361 c 1,15,-1
 510 361 l 1,16,17
 526 434 526 434 551.5 496.5 c 128,-1,18
 577 559 577 559 602 600 c 128,-1,19
 627 641 627 641 665.5 682.5 c 128,-1,20
 704 724 704 724 730.5 746.5 c 128,-1,21
 757 769 757 769 801 803 c 0,22,23
 936 908 936 908 984 985.5 c 128,-1,24
 1032 1063 1032 1063 1032 1131 c 0,25,26
 1032 1173 1032 1173 1012 1205 c 128,-1,27
 992 1237 992 1237 961 1253 c 128,-1,28
 930 1269 930 1269 899.5 1276.5 c 128,-1,29
 869 1284 869 1284 841 1284 c 0,30,31
 752 1284 752 1284 659.5 1201 c 128,-1,32
 567 1118 567 1118 552 1046 c 1,33,-1
 312 1046 l 1,34,35
 353 1238 353 1238 517.5 1371 c 128,-1,36
 682 1504 682 1504 885 1504 c 3,0,1
421 0 m 1,37,-1
 471 235 l 1,38,-1
 745 235 l 1,39,-1
 695 0 l 1,40,-1
 421 0 l 1,37,-1
EndSplineSet
EndChar

StartChar: at
Encoding: 64 64 36
Width: 2079
Flags: W
HStem: -428 200<763.213 1387.51> -13 200<763.312 1060.1 1315.54 1559.1> 895 200<1056.89 1322.04> 1042 20G<1525.65 1749> 1282 200<1111.92 1606.06>
VStem: 185 229<78.9305 557.818> 583 228<227.443 561.062> 1356 62<236 739> 1900 227<626.44 1017.62>
LayerCount: 3
Fore
SplineSet
1351 -13 m 3xdf80
 1213 -13 1186 45 1186 101 c 3
 1186 108 1186 114 1187 121 c 1
 1096 28 984 -13 851 -13 c 3
 674 -13 583 123 583 312 c 3
 583 731 943 1095 1244 1095 c 3xef80
 1431 1095 1475 988 1477 938 c 1
 1535 1062 l 1
 1749 1062 l 1
 1461 379 l 2
 1446 342 1418 289 1418 236 c 0
 1418 207 1430 187 1462 187 c 3
 1663 187 1900 540 1900 829 c 3
 1900 1113 1650 1282 1372 1282 c 3
 769 1282 414 743 414 306 c 3
 414 39 558 -228 1072 -228 c 3
 1397 -228 1543 -142 1752 19 c 1
 2009 19 l 1
 1819 -253 1454 -428 1032 -428 c 3
 504 -428 185 -201 185 237 c 3
 185 952 757 1482 1417 1482 c 3
 1843 1482 2127 1253 2127 884 c 3
 2127 429 1722 -13 1351 -13 c 3xdf80
811 369 m 3
 811 241 877 187 946 187 c 3
 1150 187 1356 474 1356 739 c 3
 1356 868 1277 895 1203 895 c 3
 981 895 811 610 811 369 c 3
EndSplineSet
Validated: 1
Layer: 2
SplineSet
1351 -13 m 3,0,1
 1186 -13 1186 -13 1186 101 c 0,2,3
 1186 114 1186 114 1187 121 c 1,4,5
 1056 -13 1056 -13 851 -13 c 0,6,7
 722 -13 722 -13 652.5 76 c 128,-1,8
 583 165 583 165 583 312 c 0,9,10
 583 464 583 464 644 610.5 c 128,-1,11
 705 757 705 757 800.5 861.5 c 128,-1,12
 896 966 896 966 1014 1030.5 c 128,-1,13
 1132 1095 1132 1095 1244 1095 c 0,14,15
 1297 1095 1297 1095 1339.5 1083.5 c 128,-1,16
 1382 1072 1382 1072 1406.5 1054.5 c 128,-1,17
 1431 1037 1431 1037 1447.5 1014.5 c 128,-1,18
 1464 992 1464 992 1470 973.5 c 128,-1,19
 1476 955 1476 955 1477 938 c 1,20,-1
 1535 1062 l 1,21,-1
 1749 1062 l 1,22,-1
 1461 379 l 2,23,24
 1460 376 1460 376 1449 350 c 128,-1,25
 1438 324 1438 324 1433.5 312 c 128,-1,26
 1429 300 1429 300 1423.5 277.5 c 128,-1,27
 1418 255 1418 255 1418 236 c 0,28,29
 1418 187 1418 187 1462 187 c 0,30,31
 1560 187 1560 187 1663 286.5 c 128,-1,32
 1766 386 1766 386 1833 537 c 128,-1,33
 1900 688 1900 688 1900 829 c 0,34,35
 1900 966 1900 966 1825.5 1071 c 128,-1,36
 1751 1176 1751 1176 1632 1229 c 128,-1,37
 1513 1282 1513 1282 1372 1282 c 0,38,39
 1197 1282 1197 1282 1041.5 1222.5 c 128,-1,40
 886 1163 886 1163 773.5 1064 c 128,-1,41
 661 965 661 965 578.5 838.5 c 128,-1,42
 496 712 496 712 455 575 c 128,-1,43
 414 438 414 438 414 306 c 0,44,45
 414 221 414 221 432.5 147.5 c 128,-1,46
 451 74 451 74 498 3.5 c 128,-1,47
 545 -67 545 -67 618 -117 c 128,-1,48
 691 -167 691 -167 807 -197.5 c 128,-1,49
 923 -228 923 -228 1072 -228 c 0,50,51
 1191 -228 1191 -228 1283.5 -213.5 c 128,-1,52
 1376 -199 1376 -199 1457.5 -164 c 128,-1,53
 1539 -129 1539 -129 1601.5 -89 c 128,-1,54
 1664 -49 1664 -49 1752 19 c 1,55,-1
 2009 19 l 1,56,57
 1865 -187 1865 -187 1605 -307.5 c 128,-1,58
 1345 -428 1345 -428 1032 -428 c 0,59,60
 630 -428 630 -428 407.5 -257.5 c 128,-1,61
 185 -87 185 -87 185 237 c 0,62,63
 185 412 185 412 230.5 577 c 128,-1,64
 276 742 276 742 357.5 878 c 128,-1,65
 439 1014 439 1014 553.5 1127.5 c 128,-1,66
 668 1241 668 1241 804 1318.5 c 128,-1,67
 940 1396 940 1396 1097 1439 c 128,-1,68
 1254 1482 1254 1482 1417 1482 c 0,69,70
 1739 1482 1739 1482 1933 1320.5 c 128,-1,71
 2127 1159 2127 1159 2127 884 c 0,72,73
 2127 718 2127 718 2057.5 552.5 c 128,-1,74
 1988 387 1988 387 1878.5 264 c 128,-1,75
 1769 141 1769 141 1628 64 c 128,-1,76
 1487 -13 1487 -13 1351 -13 c 3,0,1
811 369 m 3,77,78
 811 279 811 279 850 233 c 128,-1,79
 889 187 889 187 946 187 c 0,80,81
 1045 187 1045 187 1141 269 c 128,-1,82
 1237 351 1237 351 1296.5 480 c 128,-1,83
 1356 609 1356 609 1356 739 c 0,84,85
 1356 895 1356 895 1203 895 c 0,86,87
 1097 895 1097 895 1004.5 813.5 c 128,-1,88
 912 732 912 732 861.5 611 c 128,-1,89
 811 490 811 490 811 369 c 3,77,78
EndSplineSet
EndChar

StartChar: A
Encoding: 65 65 37
Width: 1366
Flags: W
HStem: 0 21G<1 267.24 1105.26 1363> 433 220<655 987> 1430 20G<875.766 1095.74>
DStem2: 1 0 255 0 0.521831 0.853049<132.545 640.2 898.318 1386.58> 1092 1450 909 1070 0.183715 -0.982979<339.912 764.145 987.932 1428.44>
LayerCount: 3
Fore
SplineSet
655 653 m 1
 987 653 l 1
 909 1070 l 1
 655 653 l 1
1092 1450 m 1
 1363 0 l 1
 1109 0 l 1
 1028 433 l 1
 520 433 l 1
 255 0 l 1
 1 0 l 1
 888 1450 l 1
 1092 1450 l 1
EndSplineSet
Validated: 1
Layer: 2
SplineSet
655 653 m 1,0,-1
 987 653 l 1,1,-1
 909 1070 l 1,2,-1
 655 653 l 1,0,-1
1092 1450 m 1,3,-1
 1363 0 l 1,4,-1
 1109 0 l 1,5,-1
 1028 433 l 1,6,-1
 520 433 l 1,7,-1
 255 0 l 1,8,-1
 1 0 l 1,9,-1
 888 1450 l 1,10,-1
 1092 1450 l 1,3,-1
EndSplineSet
EndChar

StartChar: B
Encoding: 66 66 38
Width: 1366
Flags: W
HStem: 0 220<451 988.148> 626 220<584 1063.85> 1230 220<665 1151.3>
VStem: 1114 245<326.916 582.978> 1177 248<969.662 1199.98>
DStem2: 164 0 404.238 0 0.207912 0.978148<274.863 689.871 914.836 1307.29>
LayerCount: 3
Fore
SplineSet
1185 772 m 1xe8
 1301 736 1359 655 1359 531 c 3xf0
 1359 251 1167 0 709 0 c 2
 164 0 l 1
 472 1450 l 1
 1008 1450 l 2
 1263 1450 1425 1357 1425 1165 c 3
 1425 909 1231 788 1185 772 c 1xe8
584 846 m 1
 841 846 l 2
 1063 846 1177 922 1177 1116 c 3xe8
 1177 1216 1093 1230 898 1230 c 2
 665 1230 l 1
 584 846 l 1
451 220 m 1
 756 220 l 2
 951 220 1114 258 1114 488 c 3xf0
 1114 604 1019 626 816 626 c 2
 537 626 l 1
 451 220 l 1
EndSplineSet
Validated: 1
Layer: 2
SplineSet
1185 772 m 1,0,1
 1359 718 1359 718 1359 531 c 0,2,3
 1359 445 1359 445 1336 368 c 128,-1,4
 1313 291 1313 291 1262 223 c 128,-1,5
 1211 155 1211 155 1136 106 c 128,-1,6
 1061 57 1061 57 952 28.5 c 128,-1,7
 843 0 843 0 709 0 c 2,8,-1
 164 0 l 1,9,-1
 472 1450 l 1,10,-1
 1008 1450 l 2,11,12
 1204 1450 1204 1450 1314.5 1378 c 128,-1,13
 1425 1306 1425 1306 1425 1165 c 0,14,15
 1425 1093 1425 1093 1404 1028 c 128,-1,16
 1383 963 1383 963 1354 920.5 c 128,-1,17
 1325 878 1325 878 1289.5 844 c 128,-1,18
 1254 810 1254 810 1228 794 c 128,-1,19
 1202 778 1202 778 1185 772 c 1,0,1
584 846 m 1,20,-1
 841 846 l 2,21,22
 1011 846 1011 846 1094 909.5 c 128,-1,23
 1177 973 1177 973 1177 1116 c 0,24,25
 1177 1187 1177 1187 1116 1208.5 c 128,-1,26
 1055 1230 1055 1230 898 1230 c 2,27,-1
 665 1230 l 1,28,-1
 584 846 l 1,20,-1
451 220 m 1,29,-1
 756 220 l 2,30,31
 820 220 820 220 868.5 225.5 c 128,-1,32
 917 231 917 231 965.5 248 c 128,-1,33
 1014 265 1014 265 1045 294 c 128,-1,34
 1076 323 1076 323 1095 372 c 128,-1,35
 1114 421 1114 421 1114 488 c 0,36,37
 1114 571 1114 571 1046 598.5 c 128,-1,38
 978 626 978 626 816 626 c 2,39,-1
 537 626 l 1,40,-1
 451 220 l 1,29,-1
EndSplineSet
EndChar

StartChar: C
Encoding: 67 67 39
Width: 1479
Flags: W
HStem: -13 220<657.984 1027.04> 1250 220<849.435 1242.06>
VStem: 234 250<393.96 820.501> 1354 240<1041 1142.27>
LayerCount: 3
Fore
SplineSet
832 207 m 3
 1011 207 1208 328 1259 477 c 1
 1499 477 l 1
 1369 201 1141 -13 788 -13 c 3
 428 -13 234 186 234 517 c 3
 234 1076 636 1470 1106 1470 c 3
 1412 1470 1577 1292 1594 1041 c 1
 1354 1041 l 1
 1339 1170 1231 1250 1056 1250 c 3
 744 1250 484 975 484 597 c 3
 484 368 615 207 832 207 c 3
EndSplineSet
Validated: 1
Layer: 2
SplineSet
832 207 m 3,0,1
 967 207 967 207 1094 286.5 c 128,-1,2
 1221 366 1221 366 1259 477 c 1,3,-1
 1499 477 l 1,4,5
 1448 370 1448 370 1381.5 283.5 c 128,-1,6
 1315 197 1315 197 1228 129 c 128,-1,7
 1141 61 1141 61 1029 24 c 128,-1,8
 917 -13 917 -13 788 -13 c 0,9,10
 521 -13 521 -13 377.5 126.5 c 128,-1,11
 234 266 234 266 234 517 c 0,12,13
 234 722 234 722 304.5 901 c 128,-1,14
 375 1080 375 1080 493.5 1204 c 128,-1,15
 612 1328 612 1328 771.5 1399 c 128,-1,16
 931 1470 931 1470 1106 1470 c 0,17,18
 1329 1470 1329 1470 1455 1353 c 128,-1,19
 1581 1236 1581 1236 1594 1041 c 1,20,-1
 1354 1041 l 1,21,22
 1343 1139 1343 1139 1264.5 1194.5 c 128,-1,23
 1186 1250 1186 1250 1056 1250 c 0,24,25
 940 1250 940 1250 835 1200.5 c 128,-1,26
 730 1151 730 1151 652.5 1065.5 c 128,-1,27
 575 980 575 980 529.5 858 c 128,-1,28
 484 736 484 736 484 597 c 0,29,30
 484 423 484 423 577.5 315 c 128,-1,31
 671 207 671 207 832 207 c 3,0,1
EndSplineSet
EndChar

StartChar: D
Encoding: 68 68 40
Width: 1479
Flags: W
HStem: 0 220<455 935.28> 1230 220<669 1145.97>
VStem: 1313 252<650.187 1073.39>
DStem2: 168 0 408.238 0 0.207912 0.978148<274.863 1307.29>
LayerCount: 3
Fore
SplineSet
697 0 m 2
 168 0 l 1
 476 1450 l 1
 981 1450 l 2
 1424 1450 1565 1251 1565 976 c 3
 1565 515 1312 0 697 0 c 2
722 220 m 6
 1144 220 1313 607 1313 886 c 3
 1313 1108 1180 1230 931 1230 c 2
 669 1230 l 1
 455 220 l 1
 722 220 l 6
EndSplineSet
Validated: 1
Layer: 2
SplineSet
697 0 m 2,0,-1
 168 0 l 1,1,-1
 476 1450 l 1,2,-1
 981 1450 l 2,3,4
 1143 1450 1143 1450 1258.5 1415.5 c 128,-1,5
 1374 1381 1374 1381 1440 1315.5 c 128,-1,6
 1506 1250 1506 1250 1535.5 1167 c 128,-1,7
 1565 1084 1565 1084 1565 976 c 0,8,9
 1565 834 1565 834 1534.5 697.5 c 128,-1,10
 1504 561 1504 561 1436 433.5 c 128,-1,11
 1368 306 1368 306 1269 210.5 c 128,-1,12
 1170 115 1170 115 1022.5 57.5 c 128,-1,13
 875 0 875 0 697 0 c 2,0,-1
722 220 m 6,14,15
 824 220 824 220 912 249.5 c 128,-1,16
 1000 279 1000 279 1063 330.5 c 128,-1,17
 1126 382 1126 382 1175 448 c 128,-1,18
 1224 514 1224 514 1253.5 589.5 c 128,-1,19
 1283 665 1283 665 1298 739.5 c 128,-1,20
 1313 814 1313 814 1313 886 c 0,21,22
 1313 1053 1313 1053 1215 1141.5 c 128,-1,23
 1117 1230 1117 1230 931 1230 c 2,24,-1
 669 1230 l 1,25,-1
 455 220 l 1,26,-1
 722 220 l 6,14,15
EndSplineSet
EndChar

StartChar: E
Encoding: 69 69 41
Width: 1320
Flags: W
HStem: 0 220<454 1227> 626 220<587 1159> 1230 220<668 1488>
DStem2: 167 0 407.238 0 0.207912 0.978148<274.863 689.871 914.836 1307.29>
LayerCount: 3
Fore
SplineSet
167 0 m 1
 475 1450 l 1
 1535 1450 l 1
 1488 1230 l 1
 668 1230 l 1
 587 846 l 1
 1206 846 l 1
 1159 626 l 1
 540 626 l 1
 454 220 l 1
 1274 220 l 1
 1227 0 l 1
 167 0 l 1
EndSplineSet
Validated: 1
Layer: 2
SplineSet
167 0 m 1,0,-1
 475 1450 l 1,1,-1
 1535 1450 l 1,2,-1
 1488 1230 l 1,3,-1
 668 1230 l 1,4,-1
 587 846 l 1,5,-1
 1206 846 l 1,6,-1
 1159 626 l 1,7,-1
 540 626 l 1,8,-1
 454 220 l 1,9,-1
 1274 220 l 1,10,-1
 1227 0 l 1,11,-1
 167 0 l 1,0,-1
EndSplineSet
EndChar

StartChar: F
Encoding: 70 70 42
Width: 1251
Flags: W
HStem: 0 21G<167 411.249> 626 220<587 1141> 1230 220<668 1419>
DStem2: 167 0 407 0 0.207912 0.978148<49.8988 689.871 914.836 1307.29>
LayerCount: 3
Fore
SplineSet
167 0 m 1
 475 1450 l 1
 1466 1450 l 1
 1419 1230 l 1
 668 1230 l 1
 587 846 l 1
 1188 846 l 1
 1141 626 l 1
 540 626 l 1
 407 0 l 1
 167 0 l 1
EndSplineSet
Validated: 1
Layer: 2
SplineSet
167 0 m 1,0,-1
 475 1450 l 1,1,-1
 1466 1450 l 1,2,-1
 1419 1230 l 1,3,-1
 668 1230 l 1,4,-1
 587 846 l 1,5,-1
 1188 846 l 1,6,-1
 1141 626 l 1,7,-1
 540 626 l 1,8,-1
 407 0 l 1,9,-1
 167 0 l 1,0,-1
EndSplineSet
EndChar

StartChar: G
Encoding: 71 71 43
Width: 1479
Flags: W
HStem: -13 220<655.099 1067.77> 461 220<1050 1262> 1250 220<866.159 1220.48>
VStem: 235 248<390.073 818.734>
LayerCount: 3
Fore
SplineSet
1056 1250 m 3
 781 1250 483 976 483 591 c 3
 483 367 605 207 832 207 c 3
 1035 207 1218 287 1262 461 c 1
 1003 461 l 1
 1050 681 l 1
 1549 681 l 1
 1475 237 1229 -13 788 -13 c 3
 424 -13 235 198 235 524 c 3
 235 1063 630 1470 1106 1470 c 3
 1425 1470 1575 1288 1594 1041 c 1
 1336 1041 l 1
 1313 1155 1214 1250 1056 1250 c 3
EndSplineSet
Validated: 1
Layer: 2
SplineSet
1056 1250 m 3,0,1
 953 1250 953 1250 850.5 1200.5 c 128,-1,2
 748 1151 748 1151 666.5 1066 c 128,-1,3
 585 981 585 981 534 855.5 c 128,-1,4
 483 730 483 730 483 591 c 0,5,6
 483 418 483 418 574.5 312.5 c 128,-1,7
 666 207 666 207 832 207 c 0,8,9
 993 207 993 207 1111.5 271.5 c 128,-1,10
 1230 336 1230 336 1262 461 c 1,11,-1
 1003 461 l 1,12,-1
 1050 681 l 1,13,-1
 1549 681 l 1,14,15
 1493 342 1493 342 1303.5 164.5 c 128,-1,16
 1114 -13 1114 -13 788 -13 c 0,17,18
 520 -13 520 -13 377.5 130.5 c 128,-1,19
 235 274 235 274 235 524 c 0,20,21
 235 722 235 722 304.5 898.5 c 128,-1,22
 374 1075 374 1075 491.5 1200 c 128,-1,23
 609 1325 609 1325 769.5 1397.5 c 128,-1,24
 930 1470 930 1470 1106 1470 c 0,25,26
 1335 1470 1335 1470 1457 1353.5 c 128,-1,27
 1579 1237 1579 1237 1594 1041 c 1,28,-1
 1336 1041 l 1,29,30
 1318 1131 1318 1131 1244 1190.5 c 128,-1,31
 1170 1250 1170 1250 1056 1250 c 3,0,1
EndSplineSet
EndChar

StartChar: H
Encoding: 72 72 44
Width: 1479
Flags: W
HStem: 0 21G<164 408.247 1074 1318.25> 631 220<585 1208> 1430 20G<467.752 712 1377.76 1622>
DStem2: 164 0 404 0 0.207912 0.978148<49.8988 694.97 919.934 1482.35> 1074 0 1314 0 0.207912 0.978148<49.8988 645.071 870.036 1482.35>
LayerCount: 3
Fore
SplineSet
164 0 m 1
 472 1450 l 1
 712 1450 l 1
 585 851 l 1
 1255 851 l 1
 1382 1450 l 1
 1622 1450 l 1
 1314 0 l 1
 1074 0 l 1
 1208 631 l 1
 538 631 l 1
 404 0 l 1
 164 0 l 1
EndSplineSet
Validated: 1
Layer: 2
SplineSet
164 0 m 1,0,-1
 472 1450 l 1,1,-1
 712 1450 l 1,2,-1
 585 851 l 1,3,-1
 1255 851 l 1,4,-1
 1382 1450 l 1,5,-1
 1622 1450 l 1,6,-1
 1314 0 l 1,7,-1
 1074 0 l 1,8,-1
 1208 631 l 1,9,-1
 538 631 l 1,10,-1
 404 0 l 1,11,-1
 164 0 l 1,0,-1
EndSplineSet
EndChar

StartChar: I
Encoding: 73 73 45
Width: 650
Flags: W
HStem: 0 220<72 252 492 625> 1230 220<333 466 706 886>
DStem2: 205.238 0 445.238 0 0.207912 0.978148<274.814 1257.34>
LayerCount: 3
Fore
SplineSet
672 220 m 1
 625 0 l 1
 25 0 l 1
 72 220 l 1
 252 220 l 1
 466 1230 l 1
 286 1230 l 1
 333 1450 l 1
 933 1450 l 1
 886 1230 l 1
 706 1230 l 1
 492 220 l 1
 672 220 l 1
EndSplineSet
Validated: 1
Layer: 2
SplineSet
672 220 m 1,0,-1
 625 0 l 1,1,-1
 25 0 l 1,2,-1
 72 220 l 1,3,-1
 252 220 l 1,4,-1
 466 1230 l 1,5,-1
 286 1230 l 1,6,-1
 333 1450 l 1,7,-1
 933 1450 l 1,8,-1
 886 1230 l 1,9,-1
 706 1230 l 1,10,-1
 492 220 l 1,11,-1
 672 220 l 1,0,-1
EndSplineSet
EndChar

StartChar: J
Encoding: 74 74 46
Width: 1024
Flags: W
HStem: -13 220<423.798 619.532> 1230 220<716 886>
VStem: 141 252<237.266 452.754>
DStem2: 622.123 -13 862.311 -13 0.207912 0.978148<278.077 1270.7>
LayerCount: 3
Fore
SplineSet
512 207 m 3
 627 207 695 328 725 471 c 2
 886 1230 l 1
 669 1230 l 1
 716 1450 l 1
 1173 1450 l 1
 962 456 l 2
 890 116 703 -13 460 -13 c 3
 265 -13 141 70 141 286 c 3
 141 335 147 391 161 455 c 1
 401 455 l 1
 396 423 393 395 393 370 c 3
 393 244 456 207 512 207 c 3
EndSplineSet
Validated: 1
Layer: 2
SplineSet
512 207 m 3,0,1
 593 207 593 207 646.5 280.5 c 128,-1,2
 700 354 700 354 725 471 c 2,3,-1
 886 1230 l 1,4,-1
 669 1230 l 1,5,-1
 716 1450 l 1,6,-1
 1173 1450 l 1,7,-1
 962 456 l 2,8,9
 863 -13 863 -13 460 -13 c 0,10,11
 141 -13 141 -13 141 286 c 0,12,13
 141 364 141 364 161 455 c 1,14,-1
 401 455 l 1,15,16
 393 404 393 404 393 370 c 0,17,18
 393 284 393 284 428 245.5 c 128,-1,19
 463 207 463 207 512 207 c 3,0,1
EndSplineSet
EndChar

StartChar: K
Encoding: 75 75 47
Width: 1366
Flags: W
HStem: 0 21G<150 394.241 1038.47 1346> 1430 20G<453.752 698 1305.05 1624>
DStem2: 149.787 -1 389.787 -1 0.207912 0.978148<50.9211 576.351 909.781 1483.37>
LayerCount: 3
Fore
SplineSet
150 0 m 1
 458 1450 l 1
 698 1450 l 1
 569 840 l 1
 1330 1450 l 1
 1624 1450 l 1
 830 806 l 1
 1346 0 l 1
 1053 -1 l 1
 609 610 l 1
 499 514 l 1
 390 0 l 1
 150 0 l 1
EndSplineSet
Validated: 1
Layer: 2
SplineSet
150 0 m 1,0,-1
 458 1450 l 1,1,-1
 698 1450 l 1,2,-1
 569 840 l 1,3,-1
 1330 1450 l 1,4,-1
 1624 1450 l 1,5,-1
 830 806 l 1,6,-1
 1346 0 l 1,7,-1
 1053 -1 l 1,8,-1
 609 610 l 1,9,-1
 499 514 l 1,10,-1
 390 0 l 1,11,-1
 150 0 l 1,0,-1
EndSplineSet
EndChar

StartChar: L
Encoding: 76 76 48
Width: 1139
Flags: W
HStem: 0 220<437 1060> 1430 20G<453.752 698>
DStem2: 150 0 390.238 0 0.207912 0.978148<274.863 1482.35>
LayerCount: 3
Fore
SplineSet
150 0 m 1
 458 1450 l 1
 698 1450 l 1
 437 220 l 1
 1107 220 l 1
 1060 0 l 1
 150 0 l 1
EndSplineSet
Validated: 1
Layer: 2
SplineSet
150 0 m 1,0,-1
 458 1450 l 1,1,-1
 698 1450 l 1,2,-1
 437 220 l 1,3,-1
 1107 220 l 1,4,-1
 1060 0 l 1,5,-1
 150 0 l 1,0,-1
EndSplineSet
EndChar

StartChar: M
Encoding: 77 77 49
Width: 1706
Flags: W
HStem: 0 21G<152 396.252 672.798 1037.71 1310 1554.25> 1430 20G<455.752 697.205 1612.3 1858>
DStem2: 152 0 392 0 0.207912 0.978148<49.8988 828.929> 894 202 554 762 0.158237 -0.987401<-606.745 0> 894 202 1026 0 0.504903 0.863176<0 775.213> 1310 0 1550 0 0.207912 0.978148<49.8988 779.03>
LayerCount: 3
Fore
SplineSet
152 0 m 1
 460 1450 l 1
 694 1450 l 1
 894 202 l 1
 1624 1450 l 1
 1858 1450 l 1
 1550 0 l 1
 1310 0 l 1
 1472 762 l 1
 1026 0 l 1
 676 0 l 1
 554 762 l 1
 392 0 l 1
 152 0 l 1
EndSplineSet
Validated: 1
Layer: 2
SplineSet
152 0 m 1,0,-1
 460 1450 l 1,1,-1
 694 1450 l 1,2,-1
 894 202 l 1,3,-1
 1624 1450 l 1,4,-1
 1858 1450 l 1,5,-1
 1550 0 l 1,6,-1
 1310 0 l 1,7,-1
 1472 762 l 1,8,-1
 1026 0 l 1,9,-1
 676 0 l 1,10,-1
 554 762 l 1,11,-1
 392 0 l 1,12,-1
 152 0 l 1,0,-1
EndSplineSet
EndChar

StartChar: N
Encoding: 78 78 50
Width: 1479
Flags: W
HStem: 0 21G<156 400.246 1061.4 1315.25> 1430 20G<459.752 713.54 1374.75 1619>
DStem2: 156 0 396 0 0.207912 0.978148<49.8988 1046.63> 704 1450 603 975 0.430542 -0.902571<385.236 1084.68> 1070.89 0 1311 0 0.207912 0.978148<481.522 1482.37>
LayerCount: 3
Fore
SplineSet
156 0 m 1
 464 1450 l 1
 704 1450 l 1
 1171 471 l 1
 1379 1450 l 1
 1619 1450 l 1
 1311 0 l 1
 1071 0 l 1
 603 975 l 1
 396 0 l 1
 156 0 l 1
EndSplineSet
Validated: 1
Layer: 2
SplineSet
156 0 m 1,0,-1
 464 1450 l 1,1,-1
 704 1450 l 1,2,-1
 1171 471 l 1,3,-1
 1379 1450 l 1,4,-1
 1619 1450 l 1,5,-1
 1311 0 l 1,6,-1
 1071 0 l 1,7,-1
 603 975 l 1,8,-1
 396 0 l 1,9,-1
 156 0 l 1,0,-1
EndSplineSet
EndChar

StartChar: O
Encoding: 79 79 51
Width: 1593
Flags: W
HStem: -13 220<637.804 1073.25> 1250 220<837.827 1269.02>
VStem: 234 243<365.164 798.993> 1429 244<652.813 1089.04>
LayerCount: 3
Fore
SplineSet
797 -13 m 3
 438 -13 234 201 234 523 c 3
 234 868 463 1470 1113 1470 c 3
 1474 1470 1673 1261 1673 932 c 3
 1673 587 1447 -13 797 -13 c 3
1069 1250 m 3
 592 1250 477 780 477 554 c 3
 477 338 600 207 844 207 c 3
 1321 207 1429 666 1429 892 c 3
 1429 1112 1312 1250 1069 1250 c 3
EndSplineSet
Validated: 1
Layer: 2
SplineSet
797 -13 m 3,0,1
 531 -13 531 -13 382.5 132.5 c 128,-1,2
 234 278 234 278 234 523 c 0,3,4
 234 600 234 600 248 684.5 c 128,-1,5
 262 769 262 769 294.5 861.5 c 128,-1,6
 327 954 327 954 374.5 1040.5 c 128,-1,7
 422 1127 422 1127 494.5 1205.5 c 128,-1,8
 567 1284 567 1284 654.5 1342.5 c 128,-1,9
 742 1401 742 1401 860 1435.5 c 128,-1,10
 978 1470 978 1470 1113 1470 c 0,11,12
 1380 1470 1380 1470 1526.5 1326 c 128,-1,13
 1673 1182 1673 1182 1673 932 c 0,14,15
 1673 855 1673 855 1659 771 c 128,-1,16
 1645 687 1645 687 1612.5 594 c 128,-1,17
 1580 501 1580 501 1533 415 c 128,-1,18
 1486 329 1486 329 1414.5 250.5 c 128,-1,19
 1343 172 1343 172 1255.5 114 c 128,-1,20
 1168 56 1168 56 1050 21.5 c 128,-1,21
 932 -13 932 -13 797 -13 c 3,0,1
1069 1250 m 3,22,23
 970 1250 970 1250 886 1223 c 128,-1,24
 802 1196 802 1196 742.5 1151.5 c 128,-1,25
 683 1107 683 1107 636 1047 c 128,-1,26
 589 987 589 987 559.5 923 c 128,-1,27
 530 859 530 859 511 790.5 c 128,-1,28
 492 722 492 722 484.5 664 c 128,-1,29
 477 606 477 606 477 554 c 0,30,31
 477 389 477 389 570.5 298 c 128,-1,32
 664 207 664 207 844 207 c 0,33,34
 943 207 943 207 1026.5 233.5 c 128,-1,35
 1110 260 1110 260 1169 303 c 128,-1,36
 1228 346 1228 346 1274.5 405.5 c 128,-1,37
 1321 465 1321 465 1349.5 527.5 c 128,-1,38
 1378 590 1378 590 1396.5 658 c 128,-1,39
 1415 726 1415 726 1422 783 c 128,-1,40
 1429 840 1429 840 1429 892 c 0,41,42
 1429 1061 1429 1061 1338 1155.5 c 128,-1,43
 1247 1250 1247 1250 1069 1250 c 3,22,23
EndSplineSet
EndChar

StartChar: P
Encoding: 80 80 52
Width: 1366
Flags: W
HStem: 0 21G<158 402.241> 580 220<568 1118.07> 1230 220<659 1186.16>
VStem: 1260 249<923.604 1171.5>
DStem2: 158 0 398 0 0.207912 0.978148<49.8988 642.798 867.762 1307.29>
LayerCount: 3
Fore
SplineSet
851 580 m 2
 521 580 l 1
 398 0 l 1
 158 0 l 1
 466 1450 l 1
 1019 1450 l 2
 1383 1450 1509 1331 1509 1144 c 3
 1509 808 1277 580 851 580 c 2
1260 1071 m 3
 1260 1196 1137 1230 948 1230 c 2
 659 1230 l 1
 568 800 l 1
 861 800 l 2
 1142 800 1260 898 1260 1071 c 3
EndSplineSet
Validated: 1
Layer: 2
SplineSet
851 580 m 2,0,-1
 521 580 l 1,1,-1
 398 0 l 1,2,-1
 158 0 l 1,3,-1
 466 1450 l 1,4,-1
 1019 1450 l 2,5,6
 1153 1450 1153 1450 1249 1429 c 128,-1,7
 1345 1408 1345 1408 1401 1367 c 128,-1,8
 1457 1326 1457 1326 1483 1271 c 128,-1,9
 1509 1216 1509 1216 1509 1144 c 0,10,11
 1509 887 1509 887 1336.5 733.5 c 128,-1,12
 1164 580 1164 580 851 580 c 2,0,-1
1260 1071 m 3,13,14
 1260 1160 1260 1160 1180.5 1195 c 128,-1,15
 1101 1230 1101 1230 948 1230 c 2,16,-1
 659 1230 l 1,17,-1
 568 800 l 1,18,-1
 861 800 l 2,19,20
 1260 800 1260 800 1260 1071 c 3,13,14
EndSplineSet
EndChar

StartChar: Q
Encoding: 81 81 53
Width: 1659
Flags: W
HStem: -13 220<611.541 1056.82 1370.96 1575.71> 338 220<851.913 1085.01> 1250 220<837.544 1272.42>
VStem: 235 245<395.161 803.807> 1431 243<650.028 1091.68>
LayerCount: 3
Fore
SplineSet
1013 558 m 3
 1177 558 1244 452 1259 435 c 1
 1344 480 1431 714 1431 899 c 3
 1431 1121 1309 1250 1068 1250 c 3
 591 1250 480 781 480 573 c 3
 480 416 550 335 629 323 c 1
 697 464 866 558 1013 558 c 3
1113 1470 m 3
 1475 1470 1674 1259 1674 932 c 3
 1674 607 1531 361 1370 247 c 1
 1383 228 1403 207 1436 207 c 3
 1475 207 1536 224 1588 260 c 1
 1678 90 l 1
 1589 21 1495 -13 1396 -13 c 3
 1288 -13 1214 27 1175 88 c 1
 1042 11 931 -13 797 -13 c 3
 438 -13 235 204 235 526 c 3
 235 871 463 1470 1113 1470 c 3
1107 269 m 1
 1076 313 1037 338 986 338 c 3
 928 338 836 312 784 217 c 1
 807 210 834 207 865 207 c 3
 976 207 1066 242 1107 269 c 1
EndSplineSet
Validated: 1
Layer: 2
SplineSet
1013 558 m 3,0,1
 1047 558 1047 558 1077.5 552.5 c 128,-1,2
 1108 547 1108 547 1131.5 536.5 c 128,-1,3
 1155 526 1155 526 1173.5 515.5 c 128,-1,4
 1192 505 1192 505 1208 490.5 c 128,-1,5
 1224 476 1224 476 1232 467.5 c 128,-1,6
 1240 459 1240 459 1249.5 447 c 2,7,-1
 1259 435 l 1,8,9
 1323 469 1323 469 1377 614.5 c 128,-1,10
 1431 760 1431 760 1431 899 c 0,11,12
 1431 1068 1431 1068 1339 1159 c 128,-1,13
 1247 1250 1247 1250 1068 1250 c 0,14,15
 970 1250 970 1250 886 1223 c 128,-1,16
 802 1196 802 1196 743 1152 c 128,-1,17
 684 1108 684 1108 637 1048.5 c 128,-1,18
 590 989 590 989 561 927 c 128,-1,19
 532 865 532 865 513.5 798 c 128,-1,20
 495 731 495 731 487.5 676 c 128,-1,21
 480 621 480 621 480 573 c 0,22,23
 480 461 480 461 522.5 397 c 128,-1,24
 565 333 565 333 629 323 c 1,25,26
 679 426 679 426 789.5 492 c 128,-1,27
 900 558 900 558 1013 558 c 3,0,1
1113 1470 m 3,28,29
 1381 1470 1381 1470 1527.5 1325.5 c 128,-1,30
 1674 1181 1674 1181 1674 932 c 0,31,32
 1674 701 1674 701 1587 520 c 128,-1,33
 1500 339 1500 339 1370 247 c 1,34,35
 1397 207 1397 207 1436 207 c 0,36,37
 1511 207 1511 207 1588 260 c 1,38,-1
 1678 90 l 1,39,40
 1545 -13 1545 -13 1396 -13 c 0,41,42
 1240 -13 1240 -13 1175 88 c 1,43,44
 1079 32 1079 32 990.5 9.5 c 128,-1,45
 902 -13 902 -13 797 -13 c 0,46,47
 532 -13 532 -13 383.5 133.5 c 128,-1,48
 235 280 235 280 235 526 c 0,49,50
 235 603 235 603 249 687 c 128,-1,51
 263 771 263 771 295.5 863.5 c 128,-1,52
 328 956 328 956 375.5 1042.5 c 128,-1,53
 423 1129 423 1129 495 1207 c 128,-1,54
 567 1285 567 1285 654.5 1343 c 128,-1,55
 742 1401 742 1401 860 1435.5 c 128,-1,56
 978 1470 978 1470 1113 1470 c 3,28,29
1107 269 m 1,57,58
 1058 338 1058 338 986 338 c 0,59,60
 932 338 932 338 875.5 309.5 c 128,-1,61
 819 281 819 281 784 217 c 1,62,63
 817 207 817 207 865 207 c 0,64,65
 941 207 941 207 1005.5 226 c 128,-1,66
 1070 245 1070 245 1107 269 c 1,57,58
EndSplineSet
EndChar

StartChar: R
Encoding: 82 82 54
Width: 1400
Flags: W
HStem: 0 21G<158 402.241 1062.14 1387> 580 220<568 786> 1230 220<659 1184.67>
VStem: 1260 248<928.816 1167.65>
DStem2: 158 0 398 0 0.207912 0.978148<49.8988 642.798 867.762 1307.29>
LayerCount: 3
Fore
SplineSet
1051 596 m 1
 1387 0 l 1
 1072 0 l 1
 786 580 l 1
 521 580 l 1
 398 0 l 1
 158 0 l 1
 466 1450 l 1
 1019 1450 l 2
 1379 1450 1508 1330 1508 1141 c 3
 1508 747 1169 604 1051 596 c 1
1260 1071 m 3
 1260 1192 1135 1230 948 1230 c 2
 659 1230 l 1
 568 800 l 1
 861 800 l 2
 1132 800 1260 900 1260 1071 c 3
EndSplineSet
Validated: 1
Layer: 2
SplineSet
1051 596 m 1,0,-1
 1387 0 l 1,1,-1
 1072 0 l 1,2,-1
 786 580 l 1,3,-1
 521 580 l 1,4,-1
 398 0 l 1,5,-1
 158 0 l 1,6,-1
 466 1450 l 1,7,-1
 1019 1450 l 2,8,9
 1151 1450 1151 1450 1246.5 1428.5 c 128,-1,10
 1342 1407 1342 1407 1399 1366 c 128,-1,11
 1456 1325 1456 1325 1482 1269.5 c 128,-1,12
 1508 1214 1508 1214 1508 1141 c 0,13,14
 1508 1029 1508 1029 1471.5 934.5 c 128,-1,15
 1435 840 1435 840 1381.5 780.5 c 128,-1,16
 1328 721 1328 721 1262.5 678.5 c 128,-1,17
 1197 636 1197 636 1144 617.5 c 128,-1,18
 1091 599 1091 599 1051 596 c 1,0,-1
1260 1071 m 3,19,20
 1260 1157 1260 1157 1179 1193.5 c 128,-1,21
 1098 1230 1098 1230 948 1230 c 2,22,-1
 659 1230 l 1,23,-1
 568 800 l 1,24,-1
 861 800 l 2,25,26
 1061 800 1061 800 1160.5 870 c 128,-1,27
 1260 940 1260 940 1260 1071 c 3,19,20
EndSplineSet
EndChar

StartChar: S
Encoding: 83 83 55
Width: 1366
Flags: W
HStem: -13 220<551.883 964.318> 1262 220<729.775 1112.62>
VStem: 187 250<312.221 502> 365 248<967.809 1160.04> 1112 249<331.141 541.035> 1193 240<1019 1178.86>
LayerCount: 3
Fore
SplineSet
714 -13 m 3xd8
 288 -13 187 193 187 384 c 3
 187 425 192 465 199 502 c 1
 439 502 l 1
 437 487 437 473 437 459 c 3
 437 234 652 207 752 207 c 3
 964 207 1112 308 1112 457 c 3xe8
 1112 549 1022 582 740 667 c 0
 578 716 365 764 365 981 c 3
 365 1303 674 1482 979 1482 c 3
 1290 1482 1433 1326 1433 1064 c 0
 1433 1049 1433 1034 1432 1019 c 1
 1192 1019 l 1
 1192 1026 1193 1034 1193 1041 c 0xd4
 1193 1182 1108 1262 940 1262 c 0
 789 1262 613 1206 613 1042 c 3
 613 956 706 926 1046 816 c 0
 1218 761 1361 705 1361 524 c 3
 1361 183 1030 -13 714 -13 c 3xd8
EndSplineSet
Validated: 1
Layer: 2
SplineSet
714 -13 m 3,0,1
 591 -13 591 -13 496 10.5 c 128,-1,2
 401 34 401 34 344 71.5 c 128,-1,3
 287 109 287 109 250.5 162 c 128,-1,4
 214 215 214 215 200.5 268.5 c 128,-1,5
 187 322 187 322 187 384 c 0,6,7
 187 439 187 439 199 502 c 1,8,-1
 439 502 l 1,9,10
 437 487 437 487 437 459 c 0,11,12
 437 395 437 395 461 347 c 128,-1,13
 485 299 485 299 518.5 273 c 128,-1,14
 552 247 552 247 598.5 231.5 c 128,-1,15
 645 216 645 216 680.5 211.5 c 128,-1,16
 716 207 716 207 752 207 c 0,17,18
 911 207 911 207 1011.5 276.5 c 128,-1,19
 1112 346 1112 346 1112 457 c 0,20,21
 1112 485 1112 485 1099 506.5 c 128,-1,22
 1086 528 1086 528 1064 545.5 c 128,-1,23
 1042 563 1042 563 991.5 583.5 c 128,-1,24
 941 604 941 604 888.5 621 c 128,-1,25
 836 638 836 638 740 667 c 0,26,27
 596.235305758 710.484382826 596.235305758 710.484382826 552.279557518 729.733458584 c 0,28,29
 401.095490207 795.939897594 401.095490207 795.939897594 372.407308654 915.186947411 c 0,30,31
 365 945.976619542 365 945.976619542 365 981 c 0,32,33
 365 1098 365 1098 418 1194.5 c 128,-1,34
 471 1291 471 1291 558 1353 c 128,-1,35
 645 1415 645 1415 754 1448.5 c 128,-1,36
 863 1482 863 1482 979 1482 c 0,37,38
 1207 1482 1207 1482 1320 1373.5 c 128,-1,39
 1433 1265 1433 1265 1433 1064 c 0,40,41
 1433 1034 1433 1034 1432 1019 c 1,42,-1
 1192 1019 l 1,43,44
 1192 1023 1192 1023 1192.5 1030.5 c 128,-1,45
 1193 1038 1193 1038 1193 1041 c 0,46,47
 1193 1148 1193 1148 1129 1205 c 128,-1,48
 1065 1262 1065 1262 940 1262 c 0,49,50
 880 1262 880 1262 824.5 1250 c 128,-1,51
 769 1238 769 1238 720.5 1213.5 c 128,-1,52
 672 1189 672 1189 642.5 1145 c 128,-1,53
 613 1101 613 1101 613 1042 c 0,54,55
 613 981 613 981 690.5 943.5 c 128,-1,56
 768 906 768 906 1046 816 c 0,57,58
 1097 800 1097 800 1130 787.5 c 128,-1,59
 1163 775 1163 775 1203.5 756.5 c 128,-1,60
 1244 738 1244 738 1269 717 c 128,-1,61
 1294 696 1294 696 1317 668 c 128,-1,62
 1340 640 1340 640 1350.5 604 c 128,-1,63
 1361 568 1361 568 1361 524 c 0,64,65
 1361 425 1361 425 1324 337.5 c 128,-1,66
 1287 250 1287 250 1224 187 c 128,-1,67
 1161 124 1161 124 1078.5 78 c 128,-1,68
 996 32 996 32 902.5 9.5 c 128,-1,69
 809 -13 809 -13 714 -13 c 3,0,1
EndSplineSet
EndChar

StartChar: T
Encoding: 84 84 56
Width: 1251
Flags: W
HStem: 0 21G<508 752.244> 1230 220<356 769 1009 1471>
DStem2: 508 0 748 0 0.207912 0.978148<49.8988 1257.39>
LayerCount: 3
Fore
SplineSet
508 0 m 1
 769 1230 l 1
 309 1230 l 1
 356 1450 l 1
 1518 1450 l 1
 1471 1230 l 1
 1009 1230 l 1
 748 0 l 1
 508 0 l 1
EndSplineSet
Validated: 1
Layer: 2
SplineSet
508 0 m 1,0,-1
 769 1230 l 1,1,-1
 309 1230 l 1,2,-1
 356 1450 l 1,3,-1
 1518 1450 l 1,4,-1
 1471 1230 l 1,5,-1
 1009 1230 l 1,6,-1
 748 0 l 1,7,-1
 508 0 l 1,0,-1
EndSplineSet
EndChar

StartChar: U
Encoding: 85 85 57
Width: 1479
Flags: W
HStem: -13 220<607.837 982.128> 1430 20G<464.756 709 1377.76 1622>
VStem: 259 249<295.882 660.906>
DStem2: 158.355 -13 398.355 -13 0.207912 0.978148<527.14 1495.62> 1071.35 -13 1311.35 -13 0.207912 0.978148<374.097 1495.62>
LayerCount: 3
Fore
SplineSet
781 207 m 3
 1006 207 1145 332 1194 564 c 2
 1382 1450 l 1
 1622 1450 l 1
 1434 564 l 2
 1352 179 1120 -13 738 -13 c 3
 373 -13 259 155 259 376 c 3
 259 436 267 499 281 564 c 2
 469 1450 l 1
 709 1450 l 1
 521 564 l 2
 512 522 508 484 508 450 c 3
 508 285 608 207 781 207 c 3
EndSplineSet
Validated: 1
Layer: 2
SplineSet
781 207 m 3,0,1
 949 207 949 207 1053 298 c 128,-1,2
 1157 389 1157 389 1194 564 c 2,3,-1
 1382 1450 l 1,4,-1
 1622 1450 l 1,5,-1
 1434 564 l 2,6,7
 1311 -13 1311 -13 738 -13 c 0,8,9
 259 -13 259 -13 259 376 c 0,10,11
 259 462 259 462 281 564 c 2,12,-1
 469 1450 l 1,13,-1
 709 1450 l 1,14,-1
 521 564 l 2,15,16
 508 503 508 503 508 450 c 0,17,18
 508 328 508 328 578.5 267.5 c 128,-1,19
 649 207 649 207 781 207 c 3,0,1
EndSplineSet
EndChar

StartChar: V
Encoding: 86 86 58
Width: 1366
Flags: W
HStem: 0 21G<573.414 788.166> 1430 20G<317 654.554 1319.68 1658>
LayerCount: 3
Fore
SplineSet
577 0 m 1
 317 1450 l 1
 652 1450 l 1
 777 471 l 1
 1331 1450 l 1
 1658 1450 l 1
 776 0 l 1
 577 0 l 1
EndSplineSet
Validated: 1
Layer: 2
SplineSet
577 0 m 1,0,-1
 317 1450 l 1,1,-1
 652 1450 l 1,2,-1
 777 471 l 1,3,-1
 1331 1450 l 1,4,-1
 1658 1450 l 1,5,-1
 776 0 l 1,6,-1
 577 0 l 1,0,-1
EndSplineSet
EndChar

StartChar: W
Encoding: 87 87 59
Width: 1933
Flags: W
HStem: 0 21G<365.545 629.111 1296.48 1574.81> 1430 20G<333 587.773 1119.11 1402.56 1925.08 2205>
VStem: 333 254<1079.26 1450> 366 257<519 629.915>
DStem2: 623 519 618 0 0.485643 0.874157<0 686.699> 1400 1450 1173 999 0.125135 -0.99214<419.049 938.573> 1519 519 1566 0 0.403267 0.915082<0 1019.3>
LayerCount: 3
Fore
SplineSet
366 0 m 1xd0
 333 1450 l 1
 587 1450 l 1xe0
 623 519 l 1
 1130 1450 l 1
 1400 1450 l 1
 1519 519 l 1
 1934 1450 l 1
 2205 1450 l 1
 1566 0 l 1
 1299 0 l 1
 1173 999 l 1
 618 0 l 1
 366 0 l 1xd0
EndSplineSet
Validated: 1
Layer: 2
SplineSet
366 0 m 1,0,-1
 333 1450 l 1,1,-1
 587 1450 l 1,2,-1
 623 519 l 1,3,-1
 1130 1450 l 1,4,-1
 1400 1450 l 1,5,-1
 1519 519 l 1,6,-1
 1934 1450 l 1,7,-1
 2205 1450 l 1,8,-1
 1566 0 l 1,9,-1
 1299 0 l 1,10,-1
 1173 999 l 1,11,-1
 618 0 l 1,12,-1
 366 0 l 1,0,-1
EndSplineSet
EndChar

StartChar: X
Encoding: 88 88 60
Width: 1366
Flags: W
HStem: 0 21G<9 336.574 1033.96 1353> 1430 20G<384 702.117 1293.3 1621>
DStem2: 9 0 319 0 0.649631 0.760249<201.386 925.485> 694 1450 384 1450 0.363741 -0.9315<0 515.823> 1029 756 797 544 0.393919 -0.919145<103.469 700.389> 888 972 1029 756 0.648984 0.760802<0 638.184>
LayerCount: 3
Fore
SplineSet
9 0 m 1
 655 756 l 1
 384 1450 l 1
 694 1450 l 1
 888 972 l 1
 1311 1450 l 1
 1621 1450 l 1
 1029 756 l 1
 1353 0 l 1
 1043 0 l 1
 797 544 l 1
 319 0 l 1
 9 0 l 1
EndSplineSet
Validated: 1
Layer: 2
SplineSet
9 0 m 1,0,-1
 655 756 l 1,1,-1
 384 1450 l 1,2,-1
 694 1450 l 1,3,-1
 888 972 l 1,4,-1
 1311 1450 l 1,5,-1
 1621 1450 l 1,6,-1
 1029 756 l 1,7,-1
 1353 0 l 1,8,-1
 1043 0 l 1,9,-1
 797 544 l 1,10,-1
 319 0 l 1,11,-1
 9 0 l 1,0,-1
EndSplineSet
EndChar

StartChar: Y
Encoding: 89 89 61
Width: 1366
Flags: W
HStem: 0 21G<548 792.251> 1431 20G<314 620.688 1342.16 1658>
DStem2: 612 1451 314 1451 0.403477 -0.91499<0 614.906> 548 0 788 0 0.207912 0.978148<49.8988 634.874> 857 887 920 621 0.664476 0.74731<0 755.714>
LayerCount: 3
Fore
SplineSet
548 0 m 1
 680 621 l 1
 314 1451 l 1
 612 1451 l 1
 857 887 l 1
 1360 1451 l 1
 1658 1451 l 1
 920 621 l 1
 788 0 l 1
 548 0 l 1
EndSplineSet
Validated: 1
Layer: 2
SplineSet
548 0 m 1,0,-1
 680 621 l 1,1,-1
 314 1451 l 1,2,-1
 612 1451 l 1,3,-1
 857 887 l 1,4,-1
 1360 1451 l 1,5,-1
 1658 1451 l 1,6,-1
 920 621 l 1,7,-1
 788 0 l 1,8,-1
 548 0 l 1,0,-1
EndSplineSet
EndChar

StartChar: Z
Encoding: 90 90 62
Width: 1251
Flags: W
HStem: 0 220<422 1200> 1230 220<353 1146>
DStem2: 89 227 422 220 0.72136 0.69256<235.365 1457.12>
LayerCount: 3
Fore
SplineSet
41 0 m 1
 89 227 l 1
 1146 1230 l 1
 306 1230 l 1
 353 1450 l 1
 1521 1450 l 1
 1474 1230 l 1
 422 220 l 1
 1247 220 l 1
 1200 0 l 1
 41 0 l 1
EndSplineSet
Validated: 1
Layer: 2
SplineSet
41 0 m 1,0,-1
 89 227 l 1,1,-1
 1146 1230 l 1,2,-1
 306 1230 l 1,3,-1
 353 1450 l 1,4,-1
 1521 1450 l 1,5,-1
 1474 1230 l 1,6,-1
 422 220 l 1,7,-1
 1247 220 l 1,8,-1
 1200 0 l 1,9,-1
 41 0 l 1,0,-1
EndSplineSet
EndChar

StartChar: bracketleft
Encoding: 91 91 63
Width: 569
Flags: W
HStem: -407 200<315 449> 1266 200<628 805>
DStem2: 52 -407 272.489 -407 0.207912 0.978148<250.31 1756.2>
LayerCount: 3
Fore
SplineSet
52 -407 m 1
 451 1466 l 1
 848 1466 l 1
 805 1266 l 1
 628 1266 l 1
 315 -207 l 1
 492 -207 l 1
 449 -407 l 1
 52 -407 l 1
EndSplineSet
Validated: 1
Layer: 2
SplineSet
52 -407 m 1,0,-1
 451 1466 l 1,1,-1
 848 1466 l 1,2,-1
 805 1266 l 1,3,-1
 628 1266 l 1,4,-1
 315 -207 l 1,5,-1
 492 -207 l 1,6,-1
 449 -407 l 1,7,-1
 52 -407 l 1,0,-1
EndSplineSet
EndChar

StartChar: backslash
Encoding: 92 92 64
Width: 569
Flags: W
VStem: 278 326
DStem2: 502 1491 278 1491 0.0677857 -0.9977<0 1504.31>
LayerCount: 3
Fore
SplineSet
381 -25 m 1
 278 1491 l 1
 502 1491 l 1
 604 -25 l 1
 381 -25 l 1
EndSplineSet
Validated: 1
Layer: 2
SplineSet
381 -25 m 1,0,-1
 278 1491 l 1,1,-1
 502 1491 l 1,2,-1
 604 -25 l 1,3,-1
 381 -25 l 1,0,-1
EndSplineSet
EndChar

StartChar: bracketright
Encoding: 93 93 65
Width: 569
Flags: W
HStem: -407 200<-11 166> 1266 200<345 479>
DStem2: 123.489 -407 343 -407 0.207912 0.978148<204.468 1710.36>
LayerCount: 3
Fore
SplineSet
343 -407 m 1
 -54 -407 l 1
 -11 -207 l 1
 166 -207 l 1
 479 1266 l 1
 302 1266 l 1
 345 1466 l 1
 742 1466 l 1
 343 -407 l 1
EndSplineSet
Validated: 1
Layer: 2
SplineSet
343 -407 m 1,0,-1
 -54 -407 l 1,1,-1
 -11 -207 l 1,2,-1
 166 -207 l 1,3,-1
 479 1266 l 1,4,-1
 302 1266 l 1,5,-1
 345 1466 l 1,6,-1
 742 1466 l 1,7,-1
 343 -407 l 1,0,-1
EndSplineSet
EndChar

StartChar: asciicircum
Encoding: 94 94 66
Width: 961
Flags: W
DStem2: 201 690 435 690 0.531803 0.846868<124.442 724.039>
LayerCount: 3
Fore
SplineSet
435 690 m 1
 201 690 l 1
 704 1491 l 1
 889 1491 l 1
 1054 690 l 1
 823 690 l 1
 736 1209 l 1
 435 690 l 1
EndSplineSet
Validated: 1
Layer: 2
SplineSet
435 690 m 1,0,-1
 201 690 l 1,1,-1
 704 1491 l 1,2,-1
 889 1491 l 1,3,-1
 1054 690 l 1,4,-1
 823 690 l 1,5,-1
 736 1209 l 1,6,-1
 435 690 l 1,0,-1
EndSplineSet
EndChar

StartChar: underscore
Encoding: 95 95 67
Width: 1139
Flags: W
HStem: -427 200<-79 1071>
LayerCount: 3
Fore
SplineSet
-122 -427 m 1
 -79 -227 l 1
 1114 -227 l 1
 1071 -427 l 1
 -122 -427 l 1
EndSplineSet
Validated: 1
Layer: 2
SplineSet
-122 -427 m 1,0,-1
 -79 -227 l 1,1,-1
 1114 -227 l 1,2,-1
 1071 -427 l 1,3,-1
 -122 -427 l 1,0,-1
EndSplineSet
EndChar

StartChar: grave
Encoding: 96 96 68
Width: 682
Flags: W
HStem: 1194 280<545 673>
VStem: 373 376
LayerCount: 3
Fore
SplineSet
749 1194 m 1
 545 1194 l 1
 373 1474 l 1
 673 1474 l 1
 749 1194 l 1
EndSplineSet
Validated: 1
Layer: 2
SplineSet
749 1194 m 1,0,-1
 545 1194 l 1,1,-1
 373 1474 l 1,2,-1
 673 1474 l 1,3,-1
 749 1194 l 1,0,-1
EndSplineSet
EndChar

StartChar: a
Encoding: 97 97 69
Width: 1139
Flags: W
HStem: 0 187<380.455 726.043> 882 200<581.763 895.045>
VStem: 128 229<215.684 369.702> 810 223<1.24075 139> 927 233<680.297 848.903>
LayerCount: 3
Fore
SplineSet
1089 442 m 2xe8
 1051 262 1033 172 1033 106 c 3
 1033 66 1040 35 1052 0 c 1
 814 0 l 1
 811 18 810 36 810 55 c 3xf0
 810 68 810 82 812 96 c 1
 686 6 576 -13 434 -13 c 3
 193 -13 128 110 128 222 c 3
 128 468 348 590 625 624 c 0
 736 637 835 657 922 686 c 1
 926 707 927 727 927 744 c 3
 927 840 871 882 745 882 c 3
 609 882 513 805 473 729 c 1
 266 759 l 1
 360 978 534 1082 814 1082 c 3
 1041 1082 1160 1030 1160 840 c 3
 1160 796 1154 745 1141 685 c 2
 1089 442 l 2xe8
357 284 m 3
 357 208 458 187 527 187 c 3
 715 187 833 262 869 441 c 2
 878 486 l 1
 647 410 357 456 357 284 c 3
EndSplineSet
Validated: 1
Layer: 2
SplineSet
1089 442 m 2,0,1
 1033 177 1033 177 1033 106 c 0,2,3
 1033 55 1033 55 1052 0 c 1,4,-1
 814 0 l 1,5,6
 810 24 810 24 810 55 c 0,7,8
 810 82 810 82 812 96 c 1,9,10
 723 32 723 32 636.5 9.5 c 128,-1,11
 550 -13 550 -13 434 -13 c 0,12,13
 348 -13 348 -13 285.5 7.5 c 128,-1,14
 223 28 223 28 190 63 c 128,-1,15
 157 98 157 98 142.5 137.5 c 128,-1,16
 128 177 128 177 128 222 c 0,17,18
 128 312 128 312 166 383.5 c 128,-1,19
 204 455 204 455 273 503 c 128,-1,20
 342 551 342 551 430 581 c 128,-1,21
 518 611 518 611 625 624 c 0,22,23
 796 644 796 644 922 686 c 1,24,25
 927 712 927 712 927 744 c 0,26,27
 927 816 927 816 883.5 849 c 128,-1,28
 840 882 840 882 745 882 c 128,-1,29
 650 882 650 882 578 837 c 128,-1,30
 506 792 506 792 473 729 c 1,31,-1
 266 759 l 1,32,33
 337 924 337 924 470.5 1003 c 128,-1,34
 604 1082 604 1082 814 1082 c 0,35,36
 993 1082 993 1082 1076.5 1029.5 c 128,-1,37
 1160 977 1160 977 1160 840 c 0,38,39
 1160 773 1160 773 1141 685 c 2,40,-1
 1089 442 l 2,0,1
357 284 m 3,41,42
 357 257 357 257 373.5 237 c 128,-1,43
 390 217 390 217 416.5 206.5 c 128,-1,44
 443 196 443 196 470.5 191.5 c 128,-1,45
 498 187 498 187 527 187 c 0,46,47
 671 187 671 187 757 248 c 128,-1,48
 843 309 843 309 869 441 c 2,49,-1
 878 486 l 1,50,51
 819 466 819 466 736.5 452.5 c 128,-1,52
 654 439 654 439 593 431 c 128,-1,53
 532 423 532 423 475 408 c 128,-1,54
 418 393 418 393 387.5 363 c 128,-1,55
 357 333 357 333 357 284 c 3,41,42
EndSplineSet
EndChar

StartChar: b
Encoding: 98 98 70
Width: 1139
Flags: W
HStem: -13 200<511.155 769.587> 882 200<664.694 908.601> 1446 20G<441.744 666>
VStem: 965 223<444.854 822.251>
DStem2: 131.237 -13 338.237 -13 0.207912 0.978148<56.3281 142.235 475.602 802.565 1057.93 1512.12>
LayerCount: 3
Fore
SplineSet
593 -13 m 3
 442 -13 372 67 359 84 c 1
 341 0 l 1
 134 0 l 1
 446 1466 l 1
 666 1466 l 1
 562 977 l 1
 654 1041 748 1082 835 1082 c 3
 1070 1082 1188 925 1188 702 c 3
 1188 404 998 -13 593 -13 c 3
778 882 m 3
 636 882 510 735 469 543 c 0
 458 489 453 442 453 403 c 3
 453 228 552 187 624 187 c 3
 868 187 965 494 965 672 c 3
 965 799 911 882 778 882 c 3
EndSplineSet
Validated: 1
Layer: 2
SplineSet
593 -13 m 3,0,1
 541 -13 541 -13 496 -1 c 128,-1,2
 451 11 451 11 423 30 c 128,-1,3
 395 49 395 49 381 61 c 128,-1,4
 367 73 367 73 359 84 c 1,5,-1
 341 0 l 1,6,-1
 134 0 l 1,7,-1
 446 1466 l 1,8,-1
 666 1466 l 1,9,-1
 562 977 l 1,10,11
 713 1082 713 1082 835 1082 c 0,12,13
 1006 1082 1006 1082 1097 978.5 c 128,-1,14
 1188 875 1188 875 1188 702 c 0,15,16
 1188 610 1188 610 1165.5 513 c 128,-1,17
 1143 416 1143 416 1094.5 321.5 c 128,-1,18
 1046 227 1046 227 978 153 c 128,-1,19
 910 79 910 79 810 33 c 128,-1,20
 710 -13 710 -13 593 -13 c 3,0,1
778 882 m 3,21,22
 673 882 673 882 586.5 785.5 c 128,-1,23
 500 689 500 689 469 543 c 0,24,25
 453 464 453 464 453 403 c 0,26,27
 453 341 453 341 469 296 c 128,-1,28
 485 251 485 251 512 228.5 c 128,-1,29
 539 206 539 206 566.5 196.5 c 128,-1,30
 594 187 594 187 624 187 c 0,31,32
 710 187 710 187 779 237 c 128,-1,33
 848 287 848 287 886.5 363.5 c 128,-1,34
 925 440 925 440 945 520 c 128,-1,35
 965 600 965 600 965 672 c 0,36,37
 965 882 965 882 778 882 c 3,21,22
EndSplineSet
EndChar

StartChar: c
Encoding: 99 99 71
Width: 1024
Flags: W
HStem: -13 200<471.092 763.116> 882 200<607.662 883.71>
VStem: 175 224<258.414 625.312> 870 220<298.286 400> 934 224<686 830.573>
LayerCount: 3
Fore
SplineSet
601 187 m 3xe8
 741 187 836 256 870 400 c 1
 1090 400 l 1xf0
 1007 62 737 -13 560 -13 c 3
 316 -13 175 137 175 374 c 3
 175 660 358 1082 794 1082 c 3
 1021 1082 1158 957 1158 773 c 3
 1158 745 1155 716 1149 686 c 1
 931 686 l 1
 933 699 934 711 934 723 c 3
 934 818 857 882 758 882 c 3
 492 882 399 570 399 413 c 3
 399 278 463 187 601 187 c 3xe8
EndSplineSet
Validated: 1
Layer: 2
SplineSet
601 187 m 3,0,1
 820 187 820 187 870 400 c 1,2,-1
 1090 400 l 1,3,4
 1066 303 1066 303 1019.5 227.5 c 128,-1,5
 973 152 973 152 919 108 c 128,-1,6
 865 64 865 64 799 35.5 c 128,-1,7
 733 7 733 7 675.5 -3 c 128,-1,8
 618 -13 618 -13 560 -13 c 0,9,10
 378 -13 378 -13 276.5 91 c 128,-1,11
 175 195 175 195 175 374 c 0,12,13
 175 463 175 463 197 557.5 c 128,-1,14
 219 652 219 652 268 746.5 c 128,-1,15
 317 841 317 841 387 915 c 128,-1,16
 457 989 457 989 563 1035.5 c 128,-1,17
 669 1082 669 1082 794 1082 c 0,18,19
 962 1082 962 1082 1060 997.5 c 128,-1,20
 1158 913 1158 913 1158 773 c 0,21,22
 1158 731 1158 731 1149 686 c 1,23,-1
 931 686 l 1,24,25
 934 706 934 706 934 723 c 0,26,27
 934 793 934 793 883.5 837.5 c 128,-1,28
 833 882 833 882 758 882 c 0,29,30
 682 882 682 882 619 848 c 128,-1,31
 556 814 556 814 516.5 762 c 128,-1,32
 477 710 477 710 449.5 645.5 c 128,-1,33
 422 581 422 581 410.5 522.5 c 128,-1,34
 399 464 399 464 399 413 c 0,35,36
 399 308 399 308 450 247.5 c 128,-1,37
 501 187 501 187 601 187 c 3,0,1
EndSplineSet
EndChar

StartChar: d
Encoding: 100 100 72
Width: 1139
Flags: W
HStem: -13 200<447.982 709.723> 882 200<584.594 831.219> 1446 20G<1076.75 1301>
VStem: 164 222<250.54 632.521>
DStem2: 779.237 -13 986.237 -13 0.207912 0.978148<56.3281 99.1972 348.077 669.27 1009.48 1509.42>
LayerCount: 3
Fore
SplineSet
748 1082 m 3
 835 1082 913 1041 977 977 c 1
 1081 1466 l 1
 1301 1466 l 1
 989 0 l 1
 782 0 l 1
 800 84 l 1
 779 67 675 -13 524 -13 c 3
 282 -13 164 140 164 370 c 3
 164 721 388 1082 748 1082 c 3
579 187 m 3
 667 187 822 249 884 539 c 0
 892 577 896 614 896 648 c 3
 896 784 833 882 719 882 c 3
 512 882 386 631 386 405 c 3
 386 268 450 187 579 187 c 3
EndSplineSet
Validated: 1
Layer: 2
SplineSet
748 1082 m 3,0,1
 872 1082 872 1082 977 977 c 1,2,-1
 1081 1466 l 1,3,-1
 1301 1466 l 1,4,-1
 989 0 l 1,5,-1
 782 0 l 1,6,-1
 800 84 l 1,7,8
 786 73 786 73 767.5 61 c 128,-1,9
 749 49 749 49 712.5 30 c 128,-1,10
 676 11 676 11 626 -1 c 128,-1,11
 576 -13 576 -13 524 -13 c 0,12,13
 347 -13 347 -13 255.5 89.5 c 128,-1,14
 164 192 164 192 164 370 c 0,15,16
 164 502 164 502 205.5 629.5 c 128,-1,17
 247 757 247 757 320.5 857.5 c 128,-1,18
 394 958 394 958 506 1020 c 128,-1,19
 618 1082 618 1082 748 1082 c 3,0,1
579 187 m 3,20,21
 617 187 617 187 656 202 c 128,-1,22
 695 217 695 217 740 253 c 128,-1,23
 785 289 785 289 823.5 362.5 c 128,-1,24
 862 436 862 436 884 539 c 0,25,26
 896 596 896 596 896 648 c 0,27,28
 896 753 896 753 849.5 817.5 c 128,-1,29
 803 882 803 882 719 882 c 0,30,31
 620 882 620 882 542 809 c 128,-1,32
 464 736 464 736 425 628.5 c 128,-1,33
 386 521 386 521 386 405 c 0,34,35
 386 301 386 301 435 244 c 128,-1,36
 484 187 484 187 579 187 c 3,20,21
EndSplineSet
EndChar

StartChar: e
Encoding: 101 101 73
Width: 1139
Flags: W
HStem: -13 200<478.567 800.798> 469 200<449 972.999> 882 200<595.372 913.74>
VStem: 167 230<265.911 465.311> 973 214<669.544 824.173>
LayerCount: 3
Fore
SplineSet
1187 697 m 3
 1187 626 1171 535 1153 469 c 1
 401 469 l 1
 398 450 397 431 397 413 c 3
 397 282 470 187 622 187 c 3
 815 187 874 293 890 330 c 1
 1118 330 l 1
 1031 118 836 -13 578 -13 c 3
 304 -13 167 124 167 358 c 3
 167 667 363 1082 801 1082 c 3
 1052 1082 1187 935 1187 697 c 3
971 669 m 1
 972 681 973 694 973 705 c 3
 973 819 905 882 759 882 c 3
 602 882 480 777 449 669 c 1
 971 669 l 1
EndSplineSet
Validated: 1
Layer: 2
SplineSet
1187 697 m 3,0,1
 1187 594 1187 594 1153 469 c 1,2,-1
 401 469 l 1,3,4
 397 444 397 444 397 413 c 0,5,6
 397 311 397 311 454.5 249 c 128,-1,7
 512 187 512 187 622 187 c 0,8,9
 677 187 677 187 722.5 198.5 c 128,-1,10
 768 210 768 210 795.5 226 c 128,-1,11
 823 242 823 242 844.5 264 c 128,-1,12
 866 286 866 286 875 300.5 c 128,-1,13
 884 315 884 315 890 330 c 1,14,-1
 1118 330 l 1,15,16
 1052 169 1052 169 910.5 78 c 128,-1,17
 769 -13 769 -13 578 -13 c 0,18,19
 375 -13 375 -13 271 83.5 c 128,-1,20
 167 180 167 180 167 358 c 0,21,22
 167 437 167 437 184 519 c 128,-1,23
 201 601 201 601 234 683 c 128,-1,24
 267 765 267 765 320.5 836.5 c 128,-1,25
 374 908 374 908 442 963 c 128,-1,26
 510 1018 510 1018 602.5 1050 c 128,-1,27
 695 1082 695 1082 801 1082 c 0,28,29
 987 1082 987 1082 1087 980 c 128,-1,30
 1187 878 1187 878 1187 697 c 3,0,1
971 669 m 1,31,32
 973 693 973 693 973 705 c 0,33,34
 973 882 973 882 759 882 c 0,35,36
 646 882 646 882 560 818.5 c 128,-1,37
 474 755 474 755 449 669 c 1,38,-1
 971 669 l 1,31,32
EndSplineSet
EndChar

StartChar: f
Encoding: 102 102 74
Width: 569
Flags: W
HStem: 0 21G<157 381.246> 862 200<245 340 603 719> 1315 200<684.288 919.909>
DStem2: 157 0 377 0 0.207912 0.978148<45.7406 881.211 1131.52 1360.01>
LayerCount: 3
Fore
SplineSet
804 1315 m 3
 718 1315 648 1271 618 1132 c 2
 603 1062 l 1
 762 1062 l 1
 719 862 l 1
 560 862 l 1
 377 0 l 1
 157 0 l 1
 340 862 l 1
 202 862 l 1
 245 1062 l 1
 383 1062 l 1
 407 1175 l 2
 465 1447 652 1515 784 1515 c 3
 851 1515 909 1506 956 1488 c 1
 914 1288 l 1
 858 1307 839 1315 804 1315 c 3
EndSplineSet
Validated: 1
Layer: 2
SplineSet
804 1315 m 3,0,1
 657 1315 657 1315 618 1132 c 2,2,-1
 603 1062 l 1,3,-1
 762 1062 l 1,4,-1
 719 862 l 1,5,-1
 560 862 l 1,6,-1
 377 0 l 1,7,-1
 157 0 l 1,8,-1
 340 862 l 1,9,-1
 202 862 l 1,10,-1
 245 1062 l 1,11,-1
 383 1062 l 1,12,-1
 407 1175 l 2,13,14
 428 1272 428 1272 471 1342 c 128,-1,15
 514 1412 514 1412 569 1448 c 128,-1,16
 624 1484 624 1484 676.5 1499.5 c 128,-1,17
 729 1515 729 1515 784 1515 c 0,18,19
 885 1515 885 1515 956 1488 c 1,20,-1
 914 1288 l 1,21,22
 908 1290 908 1290 895 1294.5 c 128,-1,23
 882 1299 882 1299 878 1300.5 c 128,-1,24
 874 1302 874 1302 864.5 1305 c 128,-1,25
 855 1308 855 1308 851 1309 c 128,-1,26
 847 1310 847 1310 839.5 1311.5 c 128,-1,27
 832 1313 832 1313 827.5 1313.5 c 128,-1,28
 823 1314 823 1314 817 1314.5 c 128,-1,29
 811 1315 811 1315 804 1315 c 3,0,1
EndSplineSet
EndChar

StartChar: g
Encoding: 103 103 75
Width: 1139
Flags: W
HStem: -428 200<340.122 642.513> -13 200<437.368 718.071> 882 200<577.066 859.5> 1042 20G<1003.6 1228>
VStem: 67 230<-184.833 -74> 161 221<241.236 625.537>
DStem2: 691.084 -428 911.418 -428 0.207912 0.978148<313.134 514.237 728.93 1127.11 1430.16 1523.33>
LayerCount: 3
Fore
SplineSet
431 -428 m 3xd4
 139 -428 67 -308 67 -177 c 3
 67 -143 72 -108 79 -74 c 1
 299 -74 l 1
 298 -80 297 -87 297 -94 c 3xd8
 297 -149 339 -228 473 -228 c 3
 650 -228 756 -121 798 75 c 1
 724 25 625 -13 522 -13 c 3
 285 -13 161 145 161 373 c 3
 161 663 352 1082 756 1082 c 3xe4
 869 1082 963 1036 988 971 c 1
 1008 1062 l 1
 1228 1062 l 1
 1033 144 l 2
 932 -330 743 -428 431 -428 c 3xd4
725 882 m 3xe4
 448 882 382 537 382 386 c 3
 382 251 444 187 580 187 c 0
 750 187 845 296 895 533 c 0
 907 590 913 639 913 679 c 3
 913 849 816 882 725 882 c 3xe4
EndSplineSet
Validated: 1
Layer: 2
SplineSet
431 -428 m 3,0,1
 67 -428 67 -428 67 -177 c 0,2,3
 67 -132 67 -132 79 -74 c 1,4,-1
 299 -74 l 1,5,6
 297 -86 297 -86 297 -94 c 0,7,8
 297 -145 297 -145 339.5 -186.5 c 128,-1,9
 382 -228 382 -228 473 -228 c 0,10,11
 733 -228 733 -228 798 75 c 1,12,13
 668 -13 668 -13 522 -13 c 0,14,15
 348 -13 348 -13 254.5 92 c 128,-1,16
 161 197 161 197 161 373 c 0,17,18
 161 447 161 447 177.5 526.5 c 128,-1,19
 194 606 194 606 225.5 685.5 c 128,-1,20
 257 765 257 765 307.5 836 c 128,-1,21
 358 907 358 907 422 962.5 c 128,-1,22
 486 1018 486 1018 572 1050 c 128,-1,23
 658 1082 658 1082 756 1082 c 0,24,25
 840 1082 840 1082 904.5 1051 c 128,-1,26
 969 1020 969 1020 988 971 c 1,27,-1
 1008 1062 l 1,28,-1
 1228 1062 l 1,29,-1
 1033 144 l 2,30,31
 1003 3 1003 3 961 -97.5 c 128,-1,32
 919 -198 919 -198 868 -262 c 128,-1,33
 817 -326 817 -326 748 -363 c 128,-1,34
 679 -400 679 -400 604.5 -414 c 128,-1,35
 530 -428 530 -428 431 -428 c 3,0,1
725 882 m 3,36,37
 646 882 646 882 583.5 844.5 c 128,-1,38
 521 807 521 807 484.5 751.5 c 128,-1,39
 448 696 448 696 423.5 625.5 c 128,-1,40
 399 555 399 555 390.5 496 c 128,-1,41
 382 437 382 437 382 386 c 0,42,43
 382 284 382 284 430 235.5 c 128,-1,44
 478 187 478 187 580 187 c 0,45,46
 707 187 707 187 782 270.5 c 128,-1,47
 857 354 857 354 895 533 c 0,48,49
 913 619 913 619 913 679 c 0,50,51
 913 882 913 882 725 882 c 3,36,37
EndSplineSet
EndChar

StartChar: h
Encoding: 104 104 76
Width: 1139
Flags: W
HStem: 0 21G<135 359.261 780 1004.24> 882 200<644.443 908.083> 1446 20G<442.744 667>
VStem: 933 221<610.847 852.741>
DStem2: 135 0 355 0 0.207912 0.978148<45.7406 827.906 1062.87 1498.83> 780 0 1000 0 0.207912 0.978148<45.7406 768.277>
LayerCount: 3
Fore
SplineSet
783 882 m 3
 622 882 509 722 479 582 c 2
 355 0 l 1
 135 0 l 1
 447 1466 l 1
 667 1466 l 1
 566 995 l 1
 629 1053 725 1082 830 1082 c 3
 1082 1082 1154 935 1154 782 c 3
 1154 741 1148 699 1140 660 c 2
 1000 0 l 1
 780 0 l 1
 923 674 l 2
 930 705 933 731 933 754 c 3
 933 852 875 882 783 882 c 3
EndSplineSet
Validated: 1
Layer: 2
SplineSet
783 882 m 3,0,1
 707 882 707 882 640.5 835.5 c 128,-1,2
 574 789 574 789 534.5 722.5 c 128,-1,3
 495 656 495 656 479 582 c 2,4,-1
 355 0 l 1,5,-1
 135 0 l 1,6,-1
 447 1466 l 1,7,-1
 667 1466 l 1,8,-1
 566 995 l 1,9,10
 660 1082 660 1082 830 1082 c 0,11,12
 903 1082 903 1082 960 1065.5 c 128,-1,13
 1017 1049 1017 1049 1053 1021 c 128,-1,14
 1089 993 1089 993 1112 953.5 c 128,-1,15
 1135 914 1135 914 1144.5 872 c 128,-1,16
 1154 830 1154 830 1154 782 c 0,17,18
 1154 728 1154 728 1140 660 c 2,19,-1
 1000 0 l 1,20,-1
 780 0 l 1,21,-1
 923 674 l 2,22,23
 933 718 933 718 933 754 c 0,24,25
 933 824 933 824 895 853 c 128,-1,26
 857 882 857 882 783 882 c 3,0,1
EndSplineSet
EndChar

StartChar: i
Encoding: 105 105 77
Width: 455
Flags: W
HStem: 0 21G<116 340.256> 1042 20G<337.744 562> 1220 246<433 591>
VStem: 116 528
DStem2: 116 0 336 0 0.207912 0.978148<45.7406 1085.78 1292.1 1499.87>
LayerCount: 3
Fore
SplineSet
380 1220 m 1
 433 1466 l 1
 644 1466 l 1
 591 1220 l 1
 380 1220 l 1
116 0 m 1
 342 1062 l 1
 562 1062 l 1
 336 0 l 1
 116 0 l 1
EndSplineSet
Validated: 1
Layer: 2
SplineSet
380 1220 m 1,0,-1
 433 1466 l 1,1,-1
 644 1466 l 1,2,-1
 591 1220 l 1,3,-1
 380 1220 l 1,0,-1
116 0 m 1,4,-1
 342 1062 l 1,5,-1
 562 1062 l 1,6,-1
 336 0 l 1,7,-1
 116 0 l 1,4,-1
EndSplineSet
EndChar

StartChar: j
Encoding: 106 106 78
Width: 455
Flags: W
HStem: -428 200<-144.927 41.2971> 1042 20G<337.752 562> 1220 246<428 595>
DStem2: 25.4653 -428 245.354 -428 0.207912 0.978148<231.466 1523.25 1730.4 1936.3>
LayerCount: 3
Fore
SplineSet
375 1220 m 1
 428 1466 l 1
 648 1466 l 1
 595 1220 l 1
 375 1220 l 1
324 -58 m 2
 265 -336 139 -428 -26 -428 c 3
 -83 -428 -135 -423 -182 -412 c 1
 -141 -220 l 1
 -107 -225 -86 -228 -77 -228 c 3
 8 -228 76 -191 109 -35 c 2
 342 1062 l 1
 562 1062 l 1
 324 -58 l 2
EndSplineSet
Validated: 1
Layer: 2
SplineSet
375 1220 m 1,0,-1
 428 1466 l 1,1,-1
 648 1466 l 1,2,-1
 595 1220 l 1,3,-1
 375 1220 l 1,0,-1
324 -58 m 2,4,5
 282 -257 282 -257 194 -342.5 c 128,-1,6
 106 -428 106 -428 -26 -428 c 0,7,8
 -114 -428 -114 -428 -182 -412 c 1,9,-1
 -141 -220 l 1,10,11
 -87 -228 -87 -228 -77 -228 c 0,12,13
 -6 -228 -6 -228 40 -186 c 128,-1,14
 86 -144 86 -144 109 -35 c 2,15,-1
 342 1062 l 1,16,-1
 562 1062 l 1,17,-1
 324 -58 l 2,4,5
EndSplineSet
EndChar

StartChar: k
Encoding: 107 107 79
Width: 1024
Flags: W
HStem: 0 21G<136 360.256 731.983 1016> 1042 20G<899.725 1201> 1446 20G<443.744 668>
DStem2: 136 0 356 0 0.207912 0.978148<45.7406 444.475 744.941 1498.83> 501 684 727 636 0.75001 0.661426<137.754 565.773>
LayerCount: 3
Fore
SplineSet
136 0 m 1
 448 1466 l 1
 668 1466 l 1
 501 684 l 1
 922 1062 l 1
 1201 1062 l 1
 727 636 l 1
 1016 0 l 1
 740 0 l 1
 546 484 l 1
 439 390 l 1
 356 0 l 1
 136 0 l 1
EndSplineSet
Validated: 1
Layer: 2
SplineSet
136 0 m 1,0,-1
 448 1466 l 1,1,-1
 668 1466 l 1,2,-1
 501 684 l 1,3,-1
 922 1062 l 1,4,-1
 1201 1062 l 1,5,-1
 727 636 l 1,6,-1
 1016 0 l 1,7,-1
 740 0 l 1,8,-1
 546 484 l 1,9,-1
 439 390 l 1,10,-1
 356 0 l 1,11,-1
 136 0 l 1,0,-1
EndSplineSet
EndChar

StartChar: l
Encoding: 108 108 80
Width: 455
Flags: W
HStem: 0 21G<112 336.256> 1446 20G<419.744 644>
VStem: 112 532
DStem2: 112 0 332 0 0.207912 0.978148<45.7406 1498.83>
LayerCount: 3
Fore
SplineSet
112 0 m 1
 424 1466 l 1
 644 1466 l 1
 332 0 l 1
 112 0 l 1
EndSplineSet
Validated: 1
Layer: 2
SplineSet
112 0 m 1,0,-1
 424 1466 l 1,1,-1
 644 1466 l 1,2,-1
 332 0 l 1,3,-1
 112 0 l 1,0,-1
EndSplineSet
EndChar

StartChar: m
Encoding: 109 109 81
Width: 1706
Flags: W
HStem: 0 21G<135 359.261 744 968.259 1353 1577.25> 882 200<656.195 877.768 1240.16 1485.81> 1042 20G<356.744 581>
VStem: 1509 231<580.719 859.754>
DStem2: 135 0 355 0 0.207912 0.978148<45.7406 859.56 1044.64 1085.78> 744 0 964 0 0.207912 0.978148<45.7406 783.632> 1353 0 1573 0 0.207912 0.978148<45.7406 774.021>
LayerCount: 3
Fore
SplineSet
765 882 m 3xd0
 585 882 510 729 479 582 c 2
 355 0 l 1
 135 0 l 1
 361 1062 l 1
 581 1062 l 1xb0
 563 977 l 1
 632 1037 733 1082 848 1082 c 3
 1044 1082 1089 990 1101 944 c 1
 1183 1043 1355 1082 1475 1082 c 3
 1677 1082 1740 973 1740 839 c 3
 1740 799 1734 758 1725 716 c 2
 1573 0 l 1
 1353 0 l 1
 1502 700 l 2
 1507 721 1509 741 1509 759 c 3
 1509 836 1467 882 1392 882 c 3
 1276 882 1140 828 1102 648 c 2
 964 0 l 1
 744 0 l 1
 897 721 l 2
 901 738 903 754 903 768 c 3
 903 853 840 882 765 882 c 3xd0
EndSplineSet
Validated: 1
Layer: 2
SplineSet
765 882 m 3,0,1
 700 882 700 882 649 856.5 c 128,-1,2
 598 831 598 831 565.5 786 c 128,-1,3
 533 741 533 741 512.5 691.5 c 128,-1,4
 492 642 492 642 479 582 c 2,5,-1
 355 0 l 1,6,-1
 135 0 l 1,7,-1
 361 1062 l 1,8,-1
 581 1062 l 1,9,-1
 563 977 l 1,10,11
 684 1082 684 1082 848 1082 c 0,12,13
 917 1082 917 1082 967.5 1067.5 c 128,-1,14
 1018 1053 1018 1053 1044.5 1029.5 c 128,-1,15
 1071 1006 1071 1006 1083 986 c 128,-1,16
 1095 966 1095 966 1101 944 c 1,17,18
 1158 1013 1158 1013 1265 1047.5 c 128,-1,19
 1372 1082 1372 1082 1475 1082 c 0,20,21
 1740 1082 1740 1082 1740 839 c 0,22,23
 1740 786 1740 786 1725 716 c 2,24,-1
 1573 0 l 1,25,-1
 1353 0 l 1,26,-1
 1502 700 l 2,27,28
 1509 729 1509 729 1509 759 c 0,29,30
 1509 817 1509 817 1478.5 849.5 c 128,-1,31
 1448 882 1448 882 1392 882 c 0,32,33
 1345 882 1345 882 1302.5 870.5 c 128,-1,34
 1260 859 1260 859 1218.5 833 c 128,-1,35
 1177 807 1177 807 1146.5 760 c 128,-1,36
 1116 713 1116 713 1102 648 c 2,37,-1
 964 0 l 1,38,-1
 744 0 l 1,39,-1
 897 721 l 2,40,41
 903 746 903 746 903 768 c 0,42,43
 903 828 903 828 865 855 c 128,-1,44
 827 882 827 882 765 882 c 3,0,1
EndSplineSet
EndChar

StartChar: n
Encoding: 110 110 82
Width: 1139
Flags: W
HStem: 0 21G<135 359.266 780 1004.24> 882 200<625.532 906.866> 1044 20G<356.752 581>
VStem: 933 221<614.472 852.741>
DStem2: 135 0 355 0 0.207912 0.978148<45.7406 852.6 1066.99 1087.74> 780 0 1000 0 0.207912 0.978148<45.7406 766.411>
LayerCount: 3
Fore
SplineSet
779 882 m 3xd0
 588 882 509 724 480 586 c 2
 355 0 l 1
 135 0 l 1
 361 1064 l 1
 581 1064 l 1xb0
 567 999 l 1
 647 1061 718 1082 830 1082 c 3
 1082 1082 1154 935 1154 782 c 3
 1154 741 1148 699 1140 660 c 2
 1000 0 l 1
 780 0 l 1
 924 678 l 2
 930 706 933 731 933 752 c 3
 933 849 874 882 779 882 c 3xd0
EndSplineSet
Validated: 1
Layer: 2
SplineSet
779 882 m 3,0,1
 711 882 711 882 656.5 856 c 128,-1,2
 602 830 602 830 568 785 c 128,-1,3
 534 740 534 740 513 691.5 c 128,-1,4
 492 643 492 643 480 586 c 2,5,-1
 355 0 l 1,6,-1
 135 0 l 1,7,-1
 361 1064 l 1,8,-1
 581 1064 l 1,9,-1
 567 999 l 1,10,11
 626 1045 626 1045 685.5 1063.5 c 128,-1,12
 745 1082 745 1082 830 1082 c 0,13,14
 903 1082 903 1082 960 1065.5 c 128,-1,15
 1017 1049 1017 1049 1053 1021 c 128,-1,16
 1089 993 1089 993 1112 953.5 c 128,-1,17
 1135 914 1135 914 1144.5 872 c 128,-1,18
 1154 830 1154 830 1154 782 c 0,19,20
 1154 728 1154 728 1140 660 c 2,21,-1
 1000 0 l 1,22,-1
 780 0 l 1,23,-1
 924 678 l 2,24,25
 933 720 933 720 933 752 c 0,26,27
 933 822 933 822 893.5 852 c 128,-1,28
 854 882 854 882 779 882 c 3,0,1
EndSplineSet
EndChar

StartChar: o
Encoding: 111 111 83
Width: 1139
Flags: W
HStem: -13 200<456.79 776.02> 882 200<582.585 902.03>
VStem: 162 224<255.309 629.83> 972 225<439.874 814.227>
LayerCount: 3
Fore
SplineSet
563 -13 m 3
 299 -13 162 122 162 362 c 3
 162 590 281 1082 796 1082 c 3
 1060 1082 1197 948 1197 708 c 3
 1197 480 1076 -13 563 -13 c 3
753 882 m 3
 440 882 386 528 386 403 c 3
 386 282 438 187 606 187 c 3
 919 187 972 542 972 667 c 3
 972 787 921 882 753 882 c 3
EndSplineSet
Validated: 1
Layer: 2
SplineSet
563 -13 m 3,0,1
 366 -13 366 -13 264 84 c 128,-1,2
 162 181 162 181 162 362 c 0,3,4
 162 415 162 415 170 474 c 128,-1,5
 178 533 178 533 198 604 c 128,-1,6
 218 675 218 675 249 741 c 128,-1,7
 280 807 280 807 330.5 870 c 128,-1,8
 381 933 381 933 444.5 979.5 c 128,-1,9
 508 1026 508 1026 599 1054 c 128,-1,10
 690 1082 690 1082 796 1082 c 0,11,12
 993 1082 993 1082 1095 985.5 c 128,-1,13
 1197 889 1197 889 1197 708 c 0,14,15
 1197 655 1197 655 1189 596 c 128,-1,16
 1181 537 1181 537 1160.5 465.5 c 128,-1,17
 1140 394 1140 394 1109 328 c 128,-1,18
 1078 262 1078 262 1027.5 199 c 128,-1,19
 977 136 977 136 913.5 89.5 c 128,-1,20
 850 43 850 43 759.5 15 c 128,-1,21
 669 -13 669 -13 563 -13 c 3,0,1
753 882 m 3,22,23
 678 882 678 882 617.5 855.5 c 128,-1,24
 557 829 557 829 518.5 785 c 128,-1,25
 480 741 480 741 452.5 690 c 128,-1,26
 425 639 425 639 411.5 582 c 128,-1,27
 398 525 398 525 392 482 c 128,-1,28
 386 439 386 439 386 403 c 0,29,30
 386 187 386 187 606 187 c 0,31,32
 681 187 681 187 741.5 213.5 c 128,-1,33
 802 240 802 240 840.5 284.5 c 128,-1,34
 879 329 879 329 906.5 380 c 128,-1,35
 934 431 934 431 947.5 487.5 c 128,-1,36
 961 544 961 544 966.5 587.5 c 128,-1,37
 972 631 972 631 972 667 c 0,38,39
 972 882 972 882 753 882 c 3,22,23
EndSplineSet
EndChar

StartChar: p
Encoding: 112 112 84
Width: 1139
Flags: W
HStem: -13 200<504.306 751.785> 882 200<636.733 879.889> 1042 20G<341.744 566>
VStem: 949 223<437.763 812.554>
DStem2: 37 -390 257 -390 0.207912 0.978148<45.7406 532.338 878.881 1232.83 1452.59 1484.52>
LayerCount: 3
Fore
SplineSet
588 -13 m 3xd0
 501 -13 422 22 358 86 c 1
 257 -390 l 1
 37 -390 l 1
 346 1062 l 1
 566 1062 l 1xb0
 550 986 l 1
 620 1035 707 1082 812 1082 c 3
 1054 1082 1172 928 1172 699 c 3
 1172 356 952 -13 588 -13 c 3xd0
754 882 m 0xd0
 669 882 514 819 453 531 c 0
 445 493 441 456 441 421 c 3
 441 285 502 187 614 187 c 3
 826 187 949 440 949 658 c 3
 949 798 882 882 754 882 c 0xd0
EndSplineSet
Validated: 1
Layer: 2
SplineSet
588 -13 m 3,0,1
 457 -13 457 -13 358 86 c 1,2,-1
 257 -390 l 1,3,-1
 37 -390 l 1,4,-1
 346 1062 l 1,5,-1
 566 1062 l 1,6,-1
 550 986 l 1,7,8
 687 1082 687 1082 812 1082 c 0,9,10
 989 1082 989 1082 1080.5 979 c 128,-1,11
 1172 876 1172 876 1172 699 c 0,12,13
 1172 569 1172 569 1131 443 c 128,-1,14
 1090 317 1090 317 1017 215 c 128,-1,15
 944 113 944 113 832 50 c 128,-1,16
 720 -13 720 -13 588 -13 c 3,0,1
754 882 m 0,17,18
 726 882 726 882 696 873.5 c 128,-1,19
 666 865 666 865 629 841 c 128,-1,20
 592 817 592 817 560.5 779.5 c 128,-1,21
 529 742 529 742 499.5 677.5 c 128,-1,22
 470 613 470 613 453 531 c 0,23,24
 441 474 441 474 441 421 c 0,25,26
 441 316 441 316 486.5 251.5 c 128,-1,27
 532 187 532 187 614 187 c 0,28,29
 715 187 715 187 793.5 260 c 128,-1,30
 872 333 872 333 910.5 439 c 128,-1,31
 949 545 949 545 949 658 c 0,32,33
 949 764 949 764 899 823 c 128,-1,34
 849 882 849 882 754 882 c 0,17,18
EndSplineSet
EndChar

StartChar: q
Encoding: 113 113 85
Width: 1139
Flags: W
HStem: -13 200<469.906 712.138> 882 200<609.695 858.236> 1042 20G<1009.79 1234>
VStem: 181 225<253.733 630.223>
DStem2: 705 -390 925 -390 0.207912 0.978148<45.7406 486.597 722.609 1076.19 1406.85 1484.52>
LayerCount: 3
Fore
SplineSet
776 1082 m 3xd0
 927 1082 992 996 998 986 c 1
 1014 1062 l 1
 1234 1062 l 1xb0
 925 -390 l 1
 705 -390 l 1
 806 86 l 1
 714 22 621 -13 534 -13 c 3
 302 -13 181 137 181 364 c 3
 181 698 398 1082 776 1082 c 3xd0
595 187 m 3
 733 187 861 342 901 531 c 0
 912 584 917 628 917 667 c 3
 917 840 818 882 749 882 c 3xd0
 524 882 406 612 406 407 c 3
 406 225 518 187 595 187 c 3
EndSplineSet
Validated: 1
Layer: 2
SplineSet
776 1082 m 3,0,1
 818 1082 818 1082 856 1073 c 128,-1,2
 894 1064 894 1064 917.5 1051.5 c 128,-1,3
 941 1039 941 1039 960.5 1024 c 128,-1,4
 980 1009 980 1009 987.5 1000 c 128,-1,5
 995 991 995 991 998 986 c 2,6,-1
 1014 1062 l 1,7,-1
 1234 1062 l 1,8,-1
 925 -390 l 1,9,-1
 705 -390 l 1,10,-1
 806 86 l 1,11,12
 664 -13 664 -13 534 -13 c 0,13,14
 363 -13 363 -13 272 88.5 c 128,-1,15
 181 190 181 190 181 364 c 0,16,17
 181 465 181 465 206 567 c 128,-1,18
 231 669 231 669 282 761.5 c 128,-1,19
 333 854 333 854 403 925.5 c 128,-1,20
 473 997 473 997 569.5 1039.5 c 128,-1,21
 666 1082 666 1082 776 1082 c 3,0,1
595 187 m 3,22,23
 697 187 697 187 783.5 287 c 128,-1,24
 870 387 870 387 901 531 c 0,25,26
 917 608 917 608 917 667 c 0,27,28
 917 728 917 728 901 773 c 128,-1,29
 885 818 885 818 858.5 840 c 128,-1,30
 832 862 832 862 805 872 c 128,-1,31
 778 882 778 882 749 882 c 0,32,33
 668 882 668 882 601 837 c 128,-1,34
 534 792 534 792 492.5 721 c 128,-1,35
 451 650 451 650 428.5 568 c 128,-1,36
 406 486 406 486 406 407 c 0,37,38
 406 355 406 355 418.5 314.5 c 128,-1,39
 431 274 431 274 450 250.5 c 128,-1,40
 469 227 469 227 495.5 212 c 128,-1,41
 522 197 522 197 545.5 192 c 128,-1,42
 569 187 569 187 595 187 c 3,22,23
EndSplineSet
EndChar

StartChar: r
Encoding: 114 114 86
Width: 682
Flags: W
HStem: 0 21G<133 357.263> 882 200<659.615 849.153> 1042 20G<354.744 579>
DStem2: 133 0 353 0 0.207912 0.978148<45.7406 875.848 1000.7 1085.78>
LayerCount: 3
Fore
SplineSet
133 0 m 1xc0
 359 1062 l 1
 579 1062 l 1xa0
 552 934 l 1
 651 1055 716 1082 810 1082 c 3
 866 1082 900 1056 930 1033 c 1
 827 843 l 1
 804 857 794 882 752 882 c 3
 628 882 531 835 476 577 c 2
 353 0 l 1
 133 0 l 1xc0
EndSplineSet
Validated: 1
Layer: 2
SplineSet
133 0 m 1,0,-1
 359 1062 l 1,1,-1
 579 1062 l 1,2,-1
 552 934 l 1,3,4
 623 1021 623 1021 679.5 1051.5 c 128,-1,5
 736 1082 736 1082 810 1082 c 0,6,7
 836 1082 836 1082 860.5 1073.5 c 128,-1,8
 885 1065 885 1065 897.5 1057 c 128,-1,9
 910 1049 910 1049 930 1033 c 1,10,-1
 827 843 l 1,11,12
 820 847 820 847 808 858.5 c 128,-1,13
 796 870 796 870 783.5 876 c 128,-1,14
 771 882 771 882 752 882 c 0,15,16
 701 882 701 882 663.5 870 c 128,-1,17
 626 858 626 858 589 826.5 c 128,-1,18
 552 795 552 795 524 733 c 128,-1,19
 496 671 496 671 476 577 c 2,20,-1
 353 0 l 1,21,-1
 133 0 l 1,0,-1
EndSplineSet
EndChar

StartChar: s
Encoding: 115 115 87
Width: 1024
Flags: W
HStem: -14 200<405.577 734.102> 882 200<517.588 825.854>
VStem: 134 223<231.085 354.367> 249 226<681.356 835.653> 793 229<246.24 405.264> 847 226<758.68 857.311>
LayerCount: 3
Fore
SplineSet
514 -14 m 3xd8
 202 -14 134 152 134 290 c 3
 134 313 135 335 138 355 c 1
 358 355 l 1
 357 348 357 342 357 335 c 3
 357 238 430 186 556 186 c 3
 714 186 793 254 793 335 c 3xe8
 793 407 724 423 617 443 c 0
 405 483 249 526 249 697 c 3
 249 942 470 1082 714 1082 c 3
 1007 1082 1073 947 1073 829 c 3
 1073 804 1070 780 1066 758 c 1
 846 758 l 1
 847 765 847 771 847 777 c 3xd4
 847 848 790 882 684 882 c 3
 534 882 475 821 475 752 c 3
 475 682 550 662 653 642 c 0
 909 593 1022 537 1022 397 c 3
 1022 128 770 -14 514 -14 c 3xd8
EndSplineSet
Validated: 1
Layer: 2
SplineSet
514 -14 m 3,0,1
 439 -14 439 -14 378 -1.5 c 128,-1,2
 317 11 317 11 276.5 34 c 128,-1,3
 236 57 236 57 207 86 c 128,-1,4
 178 115 178 115 162.5 150.5 c 128,-1,5
 147 186 147 186 140.5 219.5 c 128,-1,6
 134 253 134 253 134 290 c 0,7,8
 134 328 134 328 138 355 c 1,9,-1
 358 355 l 1,10,11
 357 348 357 348 357 335 c 0,12,13
 357 263 357 263 409 224.5 c 128,-1,14
 461 186 461 186 556 186 c 0,15,16
 669 186 669 186 731 228.5 c 128,-1,17
 793 271 793 271 793 335 c 0,18,19
 793 384 793 384 752.5 404.5 c 128,-1,20
 712 425 712 425 617 443 c 0,21,22
 543 457 543 457 496 468.5 c 128,-1,23
 449 480 449 480 397 500.5 c 128,-1,24
 345 521 345 521 316 545.5 c 128,-1,25
 287 570 287 570 268 608.5 c 128,-1,26
 249 647 249 647 249 697 c 0,27,28
 249 815 249 815 315 904.5 c 128,-1,29
 381 994 381 994 485.5 1038 c 128,-1,30
 590 1082 590 1082 714 1082 c 0,31,32
 799 1082 799 1082 863.5 1066.5 c 128,-1,33
 928 1051 928 1051 967 1027 c 128,-1,34
 1006 1003 1006 1003 1030.5 968.5 c 128,-1,35
 1055 934 1055 934 1064 900.5 c 128,-1,36
 1073 867 1073 867 1073 829 c 0,37,38
 1073 796 1073 796 1066 758 c 1,39,-1
 846 758 l 1,40,41
 847 765 847 765 847 777 c 0,42,43
 847 882 847 882 684 882 c 0,44,45
 578 882 578 882 526.5 845 c 128,-1,46
 475 808 475 808 475 752 c 0,47,48
 475 704 475 704 518 682 c 128,-1,49
 561 660 561 660 653 642 c 0,50,51
 853 604 853 604 937.5 551 c 128,-1,52
 1022 498 1022 498 1022 397 c 0,53,54
 1022 268 1022 268 947.5 172.5 c 128,-1,55
 873 77 873 77 759.5 31.5 c 128,-1,56
 646 -14 646 -14 514 -14 c 3,0,1
EndSplineSet
EndChar

StartChar: t
Encoding: 116 116 88
Width: 569
Flags: W
HStem: -13 200<317.5 553.267> 862 200<244 329 592 680>
VStem: 186 239<95 395.602>
DStem2: 143.132 -13 363.107 -13 0.207912 0.978148<327.121 894.523 1144.83 1478.41>
LayerCount: 3
Fore
SplineSet
569 195 m 1
 554 2 l 1
 504 -8 453 -13 403 -13 c 3
 232 -13 186 48 186 142 c 3
 186 191 199 249 212 311 c 2
 329 862 l 1
 201 862 l 1
 244 1062 l 1
 372 1062 l 1
 451 1433 l 1
 671 1433 l 1
 592 1062 l 1
 723 1062 l 1
 680 862 l 1
 549 862 l 1
 429 297 l 2
 426 284 425 272 425 261 c 3
 425 217 448 187 514 187 c 3
 515 187 533 190 569 195 c 1
EndSplineSet
Validated: 1
Layer: 2
SplineSet
569 195 m 1,0,-1
 554 2 l 1,1,2
 479 -13 479 -13 403 -13 c 0,3,4
 282 -13 282 -13 234 26.5 c 128,-1,5
 186 66 186 66 186 142 c 0,6,7
 186 187 186 187 212 311 c 2,8,-1
 329 862 l 1,9,-1
 201 862 l 1,10,-1
 244 1062 l 1,11,-1
 372 1062 l 1,12,-1
 451 1433 l 1,13,-1
 671 1433 l 1,14,-1
 592 1062 l 1,15,-1
 723 1062 l 1,16,-1
 680 862 l 1,17,-1
 549 862 l 1,18,-1
 429 297 l 2,19,20
 425 280 425 280 425 261 c 0,21,22
 425 187 425 187 514 187 c 1,23,-1
 520 188 l 2,24,25
 526 189 526 189 539.5 191 c 128,-1,26
 553 193 553 193 569 195 c 1,0,-1
EndSplineSet
EndChar

StartChar: u
Encoding: 117 117 89
Width: 1139
Flags: W
HStem: -13 200<449.589 725.947> 1042 20G<325.754 550 970.751 1195>
VStem: 178 226<235.635 472.217>
DStem2: 101.663 -13 321.514 -13 0.207912 0.978148<412.932 1098.98> 746.237 -13 966.237 -13 0.207912 0.978148<269.999 1099.07>
LayerCount: 3
Fore
SplineSet
574 187 m 3
 728 187 811 289 835 403 c 2
 975 1062 l 1
 1195 1062 l 1
 969 0 l 1
 749 0 l 1
 756 34 l 1
 687 -2 573 -13 534 -13 c 3
 259 -13 178 128 178 287 c 3
 178 328 183 371 192 412 c 2
 330 1062 l 1
 550 1062 l 1
 411 408 l 2
 406 385 404 363 404 344 c 3
 404 222 498 187 574 187 c 3
EndSplineSet
Validated: 1
Layer: 2
SplineSet
574 187 m 3,0,1
 683 187 683 187 749 248.5 c 128,-1,2
 815 310 815 310 835 403 c 2,3,-1
 975 1062 l 1,4,-1
 1195 1062 l 1,5,-1
 969 0 l 1,6,-1
 749 0 l 1,7,-1
 756 34 l 1,8,9
 710 10 710 10 643 -1.5 c 128,-1,10
 576 -13 576 -13 534 -13 c 0,11,12
 435 -13 435 -13 363 11 c 128,-1,13
 291 35 291 35 252 78 c 128,-1,14
 213 121 213 121 195.5 172.5 c 128,-1,15
 178 224 178 224 178 287 c 0,16,17
 178 348 178 348 192 412 c 2,18,-1
 330 1062 l 1,19,-1
 550 1062 l 1,20,-1
 411 408 l 2,21,22
 404 376 404 376 404 344 c 0,23,24
 404 261 404 261 455 224 c 128,-1,25
 506 187 506 187 574 187 c 3,0,1
EndSplineSet
EndChar

StartChar: v
Encoding: 118 118 90
Width: 1024
Flags: W
HStem: 0 21G<425.667 610.808> 1042 20G<252 496.934 974.917 1226>
DStem2: 494 1062 252 1062 0.164399 -0.986394<0 709.382> 597 360 599 0 0.508401 0.86112<0 802.275>
LayerCount: 3
Fore
SplineSet
429 0 m 1
 252 1062 l 1
 494 1062 l 1
 597 360 l 1
 986 1062 l 1
 1226 1062 l 1
 599 0 l 1
 429 0 l 1
EndSplineSet
Validated: 1
Layer: 2
SplineSet
429 0 m 1,0,-1
 252 1062 l 1,1,-1
 494 1062 l 1,2,-1
 597 360 l 1,3,-1
 986 1062 l 1,4,-1
 1226 1062 l 1,5,-1
 599 0 l 1,6,-1
 429 0 l 1,0,-1
EndSplineSet
EndChar

StartChar: w
Encoding: 119 119 91
Width: 1479
Flags: W
HStem: 0 21G<294.795 554.059 951.5 1209.21> 1042 20G<232 482.544 863.312 1060.52 1452.95 1689>
VStem: 232 250<824.112 1062>
DStem2: 501 364 544 0 0.471309 0.881968<0 455.686> 1146 364 1200 0 0.418244 0.908334<0 766.183>
LayerCount: 3
Fore
SplineSet
296 0 m 1
 232 1062 l 1
 482 1062 l 1
 501 364 l 1
 874 1062 l 1
 1058 1062 l 1
 1146 364 l 1
 1462 1062 l 1
 1689 1062 l 1
 1200 0 l 1
 956 0 l 1
 947 149 923 374 884 676 c 1
 544 0 l 1
 296 0 l 1
EndSplineSet
Validated: 1
Layer: 2
SplineSet
296 0 m 1,0,-1
 232 1062 l 1,1,-1
 482 1062 l 1,2,-1
 501 364 l 1,3,-1
 874 1062 l 1,4,-1
 1058 1062 l 1,5,-1
 1146 364 l 1,6,-1
 1462 1062 l 1,7,-1
 1689 1062 l 1,8,-1
 1200 0 l 1,9,-1
 956 0 l 1,10,11
 943 223 943 223 884 676 c 1,12,-1
 544 0 l 1,13,-1
 296 0 l 1,0,-1
EndSplineSet
EndChar

StartChar: x
Encoding: 120 120 92
Width: 1024
Flags: W
HStem: 0 21G<15 300.206 723.924 1009> 1042 20G<270 556.73 909.082 1207>
DStem2: 15 0 284 0 0.655985 0.754774<176.46 176.46 982.694 1399.17> 776 562 583 369 0.382981 -0.923756<104.37 502.3>
LayerCount: 3
Fore
SplineSet
15 0 m 1
 463 552 l 1
 270 1062 l 1
 550 1062 l 1
 657 744 l 1
 926 1062 l 1
 1207 1062 l 1
 776 562 l 1
 1009 0 l 1
 732 0 l 1
 583 369 l 1
 284 0 l 1
 15 0 l 1
EndSplineSet
Validated: 1
Layer: 2
SplineSet
15 0 m 1,0,-1
 463 552 l 1,1,-1
 270 1062 l 1,2,-1
 550 1062 l 1,3,-1
 657 744 l 1,4,-1
 926 1062 l 1,5,-1
 1207 1062 l 1,6,-1
 776 562 l 1,7,-1
 1009 0 l 1,8,-1
 732 0 l 1,9,-1
 583 369 l 1,10,-1
 284 0 l 1,11,-1
 15 0 l 1,0,-1
EndSplineSet
EndChar

StartChar: y
Encoding: 121 121 93
Width: 1024
Flags: W
HStem: -428 200<61.9587 311.619> 1042 20G<259 520.493 959.391 1232>
DStem2: 518 1062 259 1062 0.13894 -0.990301<0 695.256> 604 372 642 0 0.485643 0.874157<0 780.914>
LayerCount: 3
Fore
SplineSet
166 -228 m 3
 288 -228 409 -136 409 -23 c 3
 409 -15 409 -8 408 0 c 2
 259 1062 l 1
 518 1062 l 1
 604 372 l 1
 970 1062 l 1
 1232 1062 l 1
 642 0 l 1
 563 -253 381 -428 148 -428 c 3
 106 -428 66 -427 39 -415 c 1
 62 -214 l 1
 94 -223 129 -228 166 -228 c 3
EndSplineSet
Validated: 1
Layer: 2
SplineSet
166 -228 m 3,0,1
 260 -228 260 -228 334.5 -167 c 128,-1,2
 409 -106 409 -106 409 -23 c 0,3,4
 409 -8 409 -8 408 0 c 2,5,-1
 259 1062 l 1,6,-1
 518 1062 l 1,7,-1
 604 372 l 1,8,-1
 970 1062 l 1,9,-1
 1232 1062 l 1,10,-1
 642 0 l 1,11,12
 581 -194 581 -194 450 -311 c 128,-1,13
 319 -428 319 -428 148 -428 c 0,14,15
 68 -428 68 -428 39 -415 c 1,16,-1
 62 -214 l 1,17,18
 112 -228 112 -228 166 -228 c 3,0,1
EndSplineSet
EndChar

StartChar: z
Encoding: 122 122 94
Width: 1024
Flags: W
HStem: 0 200<387 980> 862 200<286 847>
DStem2: 83 200 387 200 0.755754 0.654855<229.749 1010.91>
LayerCount: 3
Fore
SplineSet
40 0 m 1
 83 200 l 1
 847 862 l 1
 243 862 l 1
 286 1062 l 1
 1174 1062 l 1
 1131 862 l 1
 387 200 l 1
 1023 200 l 1
 980 0 l 1
 40 0 l 1
EndSplineSet
Validated: 1
Layer: 2
SplineSet
40 0 m 1,0,-1
 83 200 l 1,1,-1
 847 862 l 1,2,-1
 243 862 l 1,3,-1
 286 1062 l 1,4,-1
 1174 1062 l 1,5,-1
 1131 862 l 1,6,-1
 387 200 l 1,7,-1
 1023 200 l 1,8,-1
 980 0 l 1,9,-1
 40 0 l 1,0,-1
EndSplineSet
EndChar

StartChar: braceleft
Encoding: 123 123 95
Width: 684
Flags: W
HStem: -422 21G<395 550.3> 448 164<187 268.17> 1282 200<783.598 908>
VStem: 239 231<-217.661 70.8641> 310 221<1.69583 409.394>
LayerCount: 3
Fore
SplineSet
187 612 m 17xe8
 382 616 430 785 470 971 c 0xf0
 542 1312 599 1482 895 1482 c 2
 951 1482 l 1
 908 1282 l 1
 867 1282 l 2
 780 1282 746 1228 693 981 c 0
 639 729 578 618 421 530 c 1
 497 474 531 407 531 301 c 3xe8
 531 205 470 -45 470 -131 c 3
 470 -202 495 -222 548 -222 c 2
 589 -222 l 1
 546 -422 l 1
 490 -422 l 2
 300 -422 239 -352 239 -211 c 3xf0
 239 -94 310 140 310 280 c 3
 310 377 274 445 152 448 c 9
 187 612 l 17xe8
EndSplineSet
Validated: 1
Layer: 2
SplineSet
187 612 m 17,0,1
 234 613 234 613 272.5 626 c 128,-1,2
 311 639 311 639 338.5 666 c 128,-1,3
 366 693 366 693 386 722.5 c 128,-1,4
 406 752 406 752 422.5 797 c 128,-1,5
 439 842 439 842 448.5 879 c 128,-1,6
 458 916 458 916 470 971 c 0,7,8
 485 1043 485 1043 497 1091.5 c 128,-1,9
 509 1140 509 1140 525 1194 c 128,-1,10
 541 1248 541 1248 558 1283 c 128,-1,11
 575 1318 575 1318 598.5 1354 c 128,-1,12
 622 1390 622 1390 649.5 1411 c 128,-1,13
 677 1432 677 1432 713.5 1449.5 c 128,-1,14
 750 1467 750 1467 795 1474.5 c 128,-1,15
 840 1482 840 1482 895 1482 c 2,16,-1
 951 1482 l 1,17,-1
 908 1282 l 1,18,-1
 867 1282 l 2,19,20
 801 1282 801 1282 766.5 1223.5 c 128,-1,21
 732 1165 732 1165 693 981 c 0,22,23
 652 789 652 789 594.5 692 c 128,-1,24
 537 595 537 595 421 530 c 1,25,26
 479 488 479 488 505 434 c 128,-1,27
 531 380 531 380 531 301 c 0,28,29
 531 252 531 252 500.5 81.5 c 128,-1,30
 470 -89 470 -89 470 -131 c 0,31,32
 470 -183 470 -183 488.5 -202.5 c 128,-1,33
 507 -222 507 -222 548 -222 c 2,34,-1
 589 -222 l 1,35,-1
 546 -422 l 1,36,-1
 490 -422 l 2,37,38
 352 -422 352 -422 295.5 -371.5 c 128,-1,39
 239 -321 239 -321 239 -211 c 0,40,41
 239 -155 239 -155 274.5 26 c 128,-1,42
 310 207 310 207 310 280 c 0,43,44
 310 359 310 359 274 402.5 c 128,-1,45
 238 446 238 446 152 448 c 1,46,-1
 187 612 l 17,0,1
EndSplineSet
EndChar

StartChar: bar
Encoding: 124 124 96
Width: 532
Flags: W
VStem: 64 629
DStem2: 64 -431 284 -431 0.207912 0.978148<45.7406 1965.04>
LayerCount: 3
Fore
SplineSet
64 -431 m 1
 473 1491 l 1
 693 1491 l 1
 284 -431 l 1
 64 -431 l 1
EndSplineSet
Validated: 1
Layer: 2
SplineSet
64 -431 m 1,0,-1
 473 1491 l 1,1,-1
 693 1491 l 1,2,-1
 284 -431 l 1,3,-1
 64 -431 l 1,0,-1
EndSplineSet
EndChar

StartChar: braceright
Encoding: 125 125 97
Width: 684
Flags: W
HStem: -422 200<1 125.402> 448 164<640.83 722> 1462 20G<358.7 514>
VStem: 379 220<650.606 1057.94> 440 230<988.874 1277.65>
LayerCount: 3
Fore
SplineSet
757 612 m 9xf0
 722 448 l 17
 527 444 479 275 439 89 c 0
 367 -252 310 -422 14 -422 c 2
 -42 -422 l 1
 1 -222 l 1
 42 -222 l 2
 129 -222 164 -168 217 79 c 0
 271 331 332 442 489 530 c 1
 413 586 379 653 379 759 c 3xf0
 379 855 440 1104 440 1190 c 3
 440 1262 414 1282 361 1282 c 2
 320 1282 l 1
 363 1482 l 1
 419 1482 l 2
 609 1482 670 1412 670 1271 c 3xe8
 670 1154 599 920 599 780 c 3
 599 683 635 615 757 612 c 9xf0
EndSplineSet
Validated: 1
Layer: 2
SplineSet
757 612 m 9,0,-1
 722 448 l 1,1,2
 675 447 675 447 636.5 434 c 128,-1,3
 598 421 598 421 570.5 394 c 128,-1,4
 543 367 543 367 523 337.5 c 128,-1,5
 503 308 503 308 486.5 263 c 128,-1,6
 470 218 470 218 460.5 181 c 128,-1,7
 451 144 451 144 439 89 c 0,8,9
 424 17 424 17 412 -31.5 c 128,-1,10
 400 -80 400 -80 384 -134 c 128,-1,11
 368 -188 368 -188 351 -223 c 128,-1,12
 334 -258 334 -258 310.5 -294 c 128,-1,13
 287 -330 287 -330 259.5 -351 c 128,-1,14
 232 -372 232 -372 195.5 -389.5 c 128,-1,15
 159 -407 159 -407 114 -414.5 c 128,-1,16
 69 -422 69 -422 14 -422 c 2,17,-1
 -42 -422 l 1,18,-1
 1 -222 l 1,19,-1
 42 -222 l 2,20,21
 87 -222 87 -222 115 -197.5 c 128,-1,22
 143 -173 143 -173 166.5 -110 c 128,-1,23
 190 -47 190 -47 217 79 c 0,24,25
 258 271 258 271 315.5 368 c 128,-1,26
 373 465 373 465 489 530 c 1,27,28
 431 572 431 572 405 626 c 128,-1,29
 379 680 379 680 379 759 c 0,30,31
 379 808 379 808 409.5 978 c 128,-1,32
 440 1148 440 1148 440 1190 c 0,33,34
 440 1242 440 1242 421.5 1262 c 128,-1,35
 403 1282 403 1282 361 1282 c 2,36,-1
 320 1282 l 1,37,-1
 363 1482 l 1,38,-1
 419 1482 l 2,39,40
 557 1482 557 1482 613.5 1431.5 c 128,-1,41
 670 1381 670 1381 670 1271 c 0,42,43
 670 1215 670 1215 634.5 1034 c 128,-1,44
 599 853 599 853 599 780 c 0,45,46
 599 701 599 701 635 657.5 c 128,-1,47
 671 614 671 614 757 612 c 9,0,-1
EndSplineSet
EndChar

StartChar: asciitilde
Encoding: 126 126 98
Width: 1196
Flags: W
HStem: 540 220<861.054 1140.04> 674 220<361.357 656.163>
LayerCount: 3
Fore
SplineSet
491 674 m 3x40
 389 674 311 626 201 538 c 1
 252 774 l 1
 340 854 440 894 555 894 c 3x40
 749 894 878 760 1014 760 c 3
 1117 760 1233 838 1301 897 c 1
 1249 654 l 1
 1147 575 1059 540 948 540 c 3x80
 750 540 653 674 491 674 c 3x40
EndSplineSet
Validated: 1
Layer: 2
SplineSet
491 674 m 3,0,1
 419 674 419 674 355 642 c 128,-1,2
 291 610 291 610 201 538 c 1,3,-1
 252 774 l 1,4,5
 384 894 384 894 555 894 c 0,6,7
 620 894 620 894 689 873 c 128,-1,8
 758 852 758 852 806.5 827 c 128,-1,9
 855 802 855 802 912 781 c 128,-1,10
 969 760 969 760 1014 760 c 0,11,12
 1084 760 1084 760 1161 801 c 128,-1,13
 1238 842 1238 842 1301 897 c 1,14,-1
 1249 654 l 1,15,16
 1172 594 1172 594 1101 567 c 128,-1,17
 1030 540 1030 540 948 540 c 0,18,19
 882 540 882 540 816 561 c 128,-1,20
 750 582 750 582 705.5 607 c 128,-1,21
 661 632 661 632 603 653 c 128,-1,22
 545 674 545 674 491 674 c 3,0,1
EndSplineSet
EndChar

StartChar: exclamdown
Encoding: 161 161 100
Width: 569
Flags: W
HStem: 0 21G<168 412.257> 1065 20G<436.385 595> 1256 194<484 667>
VStem: 442 153<1033.94 1085>
DStem2: 168 0 408 0 0.207912 0.978148<49.8988 871.397 1332.3 1484.01>
LayerCount: 3
Fore
SplineSet
504 451 m 1
 408 0 l 1
 168 0 l 1
 264 451 l 1
 442 1085 l 1
 595 1085 l 1
 504 451 l 1
667 1256 m 1
 443 1256 l 1
 484 1450 l 1
 708 1450 l 1
 667 1256 l 1
EndSplineSet
Validated: 1
Layer: 2
SplineSet
504 451 m 1,0,-1
 408 0 l 1,1,-1
 168 0 l 1,2,-1
 264 451 l 1,3,-1
 442 1085 l 1,4,-1
 595 1085 l 1,5,-1
 504 451 l 1,0,-1
667 1256 m 1,6,-1
 443 1256 l 1,7,-1
 484 1450 l 1,8,-1
 708 1450 l 1,9,-1
 667 1256 l 1,6,-1
EndSplineSet
EndChar

StartChar: cent
Encoding: 162 162 101
Width: 1118
Flags: W
HStem: 925 202<964 1045.92> 1455 20G<813.714 1038>
VStem: 198 223<265.501 662.269>
DStem2: 427 -361 647 -361 0.207912 0.978148<45.7406 359.901 611.19 1306.62 1567.13 1877.17>
LayerCount: 3
Fore
SplineSet
647 -361 m 1
 427 -361 l 1
 502 -9 l 1
 294 30 198 187 198 392 c 3
 198 779 443 1070 743 1125 c 1
 818 1475 l 1
 1038 1475 l 1
 964 1127 l 1
 1066 1112 1151 1078 1214 1047 c 1
 1166 821 l 1
 1134 821 l 1
 1060 884 985 912 921 925 c 1
 765 192 l 1
 834 205 918 234 1022 297 c 1
 1054 297 l 1
 1007 73 l 1
 887 18 795 -6 721 -14 c 1
 647 -361 l 1
547 201 m 1
 699 917 l 1
 579 876 421 698 421 428 c 3
 421 296 479 230 547 201 c 1
EndSplineSet
Validated: 1
Layer: 2
SplineSet
647 -361 m 1,0,-1
 427 -361 l 1,1,-1
 502 -9 l 1,2,3
 351 19 351 19 274.5 125.5 c 128,-1,4
 198 232 198 232 198 392 c 0,5,6
 198 580 198 580 272 739.5 c 128,-1,7
 346 899 346 899 469.5 998 c 128,-1,8
 593 1097 593 1097 743 1125 c 1,9,-1
 818 1475 l 1,10,-1
 1038 1475 l 1,11,-1
 964 1127 l 1,12,13
 1089 1109 1089 1109 1214 1047 c 1,14,-1
 1166 821 l 1,15,-1
 1134 821 l 1,16,17
 1040 901 1040 901 921 925 c 1,18,-1
 765 192 l 1,19,20
 886 215 886 215 1022 297 c 1,21,-1
 1054 297 l 1,22,-1
 1007 73 l 1,23,24
 847 -0 847 -0 721 -14 c 1,25,-1
 647 -361 l 1,0,-1
547 201 m 1,26,-1
 699 917 l 1,27,28
 652 901 652 901 604.5 860.5 c 128,-1,29
 557 820 557 820 515.5 759.5 c 128,-1,30
 474 699 474 699 447.5 612 c 128,-1,31
 421 525 421 525 421 428 c 0,32,33
 421 255 421 255 547 201 c 1,26,-1
EndSplineSet
EndChar

StartChar: sterling
Encoding: 163 163 102
Width: 1118
Flags: W
HStem: 0 232<122 224.524> 0 200<342 1047> 597 200<283 404 666 990> 1231 235<1181.05 1279> 1318 200<855.89 1182.25>
DStem2: 277.104 0 497.104 0 0.207912 0.978148<411.711 610.337 860.44 1311.02>
LayerCount: 3
Fore
SplineSet
1248 1231 m 1x30
 1176 1290 1085 1318 1007 1318 c 3
 844 1318 754 1212 717 1036 c 2
 666 797 l 1
 1032 797 l 1
 990 597 l 1
 624 597 l 1
 572 353 446 262 342 200 c 1
 1090 200 l 1
 1047 0 l 1
 73 0 l 1x68
 122 232 l 1
 290 279 357 384 404 597 c 1
 241 597 l 1
 283 797 l 1
 446 797 l 1
 501 1055 l 2
 560 1331 773 1518 1031 1518 c 3xa8
 1110 1518 1181 1511 1329 1466 c 1
 1279 1231 l 1
 1248 1231 l 1x30
EndSplineSet
Validated: 1
Layer: 2
SplineSet
1248 1231 m 1,0,1
 1142 1318 1142 1318 1007 1318 c 0,2,3
 776 1318 776 1318 717 1036 c 2,4,-1
 666 797 l 1,5,-1
 1032 797 l 1,6,-1
 990 597 l 1,7,-1
 624 597 l 1,8,9
 609 527 609 527 584 468 c 128,-1,10
 559 409 559 409 533 370 c 128,-1,11
 507 331 507 331 470.5 296 c 128,-1,12
 434 261 434 261 406.5 241.5 c 128,-1,13
 379 222 379 222 342 200 c 1,14,-1
 1090 200 l 1,15,-1
 1047 0 l 1,16,-1
 73 0 l 1,17,-1
 122 232 l 1,18,19
 245 266 245 266 306.5 349 c 128,-1,20
 368 432 368 432 404 597 c 1,21,-1
 241 597 l 1,22,-1
 283 797 l 1,23,-1
 446 797 l 1,24,-1
 501 1055 l 2,25,26
 545 1262 545 1262 691.5 1390 c 128,-1,27
 838 1518 838 1518 1031 1518 c 0,28,29
 1158 1518 1158 1518 1329 1466 c 1,30,-1
 1279 1231 l 1,31,-1
 1248 1231 l 1,0,1
EndSplineSet
EndChar

StartChar: currency
Encoding: 164 164 103
Width: 1118
Flags: W
HStem: 310 200<585.023 772.88> 812 200<630.927 816.186>
VStem: 344 222<526.639 746.496> 836 224<574.83 795.074>
DStem2: 101 273 200 141 0.771305 0.636466<0 351.668 1067.8 1423.53> 423 1180 265 1051 0.619196 -0.785237<3.46265 285.079 875.982 1155.72>
LayerCount: 3
Fore
SplineSet
344 596 m 3
 344 700 388 774 435 833 c 1
 265 1051 l 1
 423 1180 l 1
 593 964 l 1
 661 1000 723 1012 775 1012 c 3
 843 1012 899 989 938 965 c 1
 1199 1179 l 1
 1304 1052 l 1
 1040 834 l 1
 1053 801 1060 768 1060 732 c 3
 1060 631 1028 564 967 488 c 1
 1138 272 l 1
 981 143 l 1
 811 358 l 1
 745 324 695 310 626 310 c 3
 558 310 500 334 463 359 c 1
 200 141 l 1
 101 273 l 1
 361 489 l 1
 349 525 344 562 344 596 c 3
733 812 m 3
 644 812 566 720 566 624 c 3
 566 563 600 510 668 510 c 3
 757 510 836 601 836 697 c 3
 836 759 801 812 733 812 c 3
EndSplineSet
Validated: 1
Layer: 2
SplineSet
344 596 m 3,0,1
 344 719 344 719 435 833 c 1,2,-1
 265 1051 l 1,3,-1
 423 1180 l 1,4,-1
 593 964 l 1,5,6
 684 1012 684 1012 775 1012 c 0,7,8
 862 1012 862 1012 938 965 c 1,9,-1
 1199 1179 l 1,10,-1
 1304 1052 l 1,11,-1
 1040 834 l 1,12,13
 1060 783 1060 783 1060 732 c 0,14,15
 1060 659 1060 659 1037.5 603.5 c 128,-1,16
 1015 548 1015 548 967 488 c 1,17,-1
 1138 272 l 1,18,-1
 981 143 l 1,19,-1
 811 358 l 1,20,21
 718 310 718 310 626 310 c 0,22,23
 536 310 536 310 463 359 c 1,24,-1
 200 141 l 1,25,-1
 101 273 l 1,26,-1
 361 489 l 1,27,28
 344 540 344 540 344 596 c 3,0,1
733 812 m 3,29,30
 667 812 667 812 616.5 754.5 c 128,-1,31
 566 697 566 697 566 624 c 0,32,33
 566 575 566 575 592.5 542.5 c 128,-1,34
 619 510 619 510 668 510 c 0,35,36
 734 510 734 510 785 567 c 128,-1,37
 836 624 836 624 836 697 c 0,38,39
 836 746 836 746 809 779 c 128,-1,40
 782 812 782 812 733 812 c 3,29,30
EndSplineSet
EndChar

StartChar: yen
Encoding: 165 165 104
Width: 1118
Flags: W
HStem: 0 21G<439 683.25> 320 220<214 507 792 1087> 1431 20G<322 595.942 1135.43 1409>
DStem2: 591 1451 322 1451 0.271778 -0.96236<0 620.798> 740 848 806 608 0.581786 0.813342<0 728.396>
LayerCount: 3
Fore
SplineSet
1409 1451 m 1
 806 608 l 1
 792 540 l 1
 1134 540 l 1
 1087 320 l 1
 747 320 l 1
 679 0 l 1
 439 0 l 1
 507 320 l 1
 167 320 l 1
 214 540 l 1
 556 540 l 1
 566 587 l 1
 322 1451 l 1
 591 1451 l 1
 740 848 l 1
 1149 1451 l 1
 1409 1451 l 1
EndSplineSet
Validated: 1
Layer: 2
SplineSet
1409 1451 m 1,0,-1
 806 608 l 1,1,-1
 792 540 l 1,2,-1
 1134 540 l 1,3,-1
 1087 320 l 1,4,-1
 747 320 l 1,5,-1
 679 0 l 1,6,-1
 439 0 l 1,7,-1
 507 320 l 1,8,-1
 167 320 l 1,9,-1
 214 540 l 1,10,-1
 556 540 l 1,11,-1
 566 587 l 1,12,-1
 322 1451 l 1,13,-1
 591 1451 l 1,14,-1
 740 848 l 1,15,-1
 1149 1451 l 1,16,-1
 1409 1451 l 1,0,-1
EndSplineSet
EndChar

StartChar: brokenbar
Encoding: 166 166 105
Width: 783
Flags: W
VStem: 198 634
DStem2: 198 -392 418 -392 0.207912 0.978148<45.7406 815.699 1221.34 1991.51>
LayerCount: 3
Fore
SplineSet
662 758 m 1
 442 758 l 1
 612 1556 l 1
 832 1556 l 1
 662 758 l 1
418 -392 m 1
 198 -392 l 1
 367 406 l 1
 587 406 l 1
 418 -392 l 1
EndSplineSet
Validated: 1
Layer: 2
SplineSet
662 758 m 1,0,-1
 442 758 l 1,1,-1
 612 1556 l 1,2,-1
 832 1556 l 1,3,-1
 662 758 l 1,0,-1
418 -392 m 1,4,-1
 198 -392 l 1,5,-1
 367 406 l 1,6,-1
 587 406 l 1,7,-1
 418 -392 l 1,4,-1
EndSplineSet
EndChar

StartChar: section
Encoding: 167 167 106
Width: 1118
Flags: W
HStem: -404 200<247.505 656.254> -338 221<131 220.849> 1252 221<1139.6 1228> 1339 200<697.257 1108.54>
VStem: 207 233<429.677 640.717> 367 230<1042.77 1247.94> 762 230<-114.861 95.096> 918 233<488.398 702.307>
DStem2: 579 384 494 177 0.949286 -0.314413<-146.982 197.686> 738 995 622 802 0.957407 -0.288742<-90.2326 247.967>
LayerCount: 3
Fore
SplineSet
736 332 m 1x09
 784 359 918 457 918 608 c 3
 918 706 837 731 709 773 c 2
 622 802 l 1
 472 716 440 617 440 525 c 3
 440 442 496 412 579 384 c 2
 736 332 l 1x09
466 -204 m 3x82
 586 -204 762 -158 762 7 c 3
 762 79 711 112 620 139 c 2
 494 177 l 2
 352 220 207 280 207 453 c 3x8a
 207 588 265 739 476 861 c 1
 425 896 367 957 367 1068 c 3
 367 1312 569 1539 955 1539 c 3x94
 1089 1539 1181 1510 1275 1473 c 1
 1228 1252 l 1
 1198 1252 l 1x24
 1049 1336 944 1339 892 1339 c 3
 744 1339 597 1281 597 1135 c 3
 597 1064 646 1023 738 995 c 2
 864 957 l 2
 1033 906 1151 837 1151 681 c 3x15
 1151 540 1094 393 883 274 c 1
 936 239 992 179 992 70 c 3
 992 -144 811 -404 404 -404 c 3x92
 275 -404 173 -373 84 -338 c 1
 131 -117 l 1
 161 -117 l 1x42
 217 -150 329 -204 466 -204 c 3x82
EndSplineSet
Validated: 1
Layer: 2
SplineSet
736 332 m 1,0,1
 759 345 759 345 785.5 366.5 c 128,-1,2
 812 388 812 388 844 422.5 c 128,-1,3
 876 457 876 457 897 506 c 128,-1,4
 918 555 918 555 918 608 c 0,5,6
 918 629 918 629 912.5 646 c 128,-1,7
 907 663 907 663 900 675.5 c 128,-1,8
 893 688 893 688 875 701 c 128,-1,9
 857 714 857 714 845.5 721 c 128,-1,10
 834 728 834 728 805.5 739 c 128,-1,11
 777 750 777 750 762 755.5 c 128,-1,12
 747 761 747 761 709 773 c 2,13,-1
 622 802 l 1,14,15
 519 743 519 743 479.5 674 c 128,-1,16
 440 605 440 605 440 525 c 0,17,18
 440 468 440 468 474 438 c 128,-1,19
 508 408 508 408 579 384 c 2,20,-1
 736 332 l 1,0,1
466 -204 m 3,21,22
 516 -204 516 -204 564 -193.5 c 128,-1,23
 612 -183 612 -183 658.5 -160.5 c 128,-1,24
 705 -138 705 -138 733.5 -95 c 128,-1,25
 762 -52 762 -52 762 7 c 0,26,27
 762 58 762 58 727.5 87.5 c 128,-1,28
 693 117 693 117 620 139 c 2,29,-1
 494 177 l 2,30,31
 444 192 444 192 408.5 205.5 c 128,-1,32
 373 219 373 219 332.5 242.5 c 128,-1,33
 292 266 292 266 266.5 293.5 c 128,-1,34
 241 321 241 321 224 362 c 128,-1,35
 207 403 207 403 207 453 c 0,36,37
 207 705 207 705 476 861 c 1,38,39
 367 936 367 936 367 1068 c 0,40,41
 367 1161 367 1161 405.5 1245 c 128,-1,42
 444 1329 444 1329 515.5 1395 c 128,-1,43
 587 1461 587 1461 701 1500 c 128,-1,44
 815 1539 815 1539 955 1539 c 0,45,46
 1047 1539 1047 1539 1120 1522 c 128,-1,47
 1193 1505 1193 1505 1275 1473 c 1,48,-1
 1228 1252 l 1,49,-1
 1198 1252 l 1,50,51
 1044 1339 1044 1339 892 1339 c 0,52,53
 769 1339 769 1339 683 1288 c 128,-1,54
 597 1237 597 1237 597 1135 c 0,55,56
 597 1083 597 1083 632 1050 c 128,-1,57
 667 1017 667 1017 738 995 c 2,58,-1
 864 957 l 2,59,60
 932 936 932 936 981 913.5 c 128,-1,61
 1030 891 1030 891 1070 859 c 128,-1,62
 1110 827 1110 827 1130.5 782.5 c 128,-1,63
 1151 738 1151 738 1151 681 c 0,64,65
 1151 425 1151 425 883 274 c 1,66,67
 992 202 992 202 992 70 c 0,68,69
 992 4 992 4 970.5 -61.5 c 128,-1,70
 949 -127 949 -127 902 -189 c 128,-1,71
 855 -251 855 -251 787.5 -298.5 c 128,-1,72
 720 -346 720 -346 621 -375 c 128,-1,73
 522 -404 522 -404 404 -404 c 0,74,75
 252 -404 252 -404 84 -338 c 1,76,-1
 131 -117 l 1,77,-1
 161 -117 l 1,78,79
 309 -204 309 -204 466 -204 c 3,21,22
EndSplineSet
EndChar

StartChar: dieresis
Encoding: 168 168 107
Width: 1118
Flags: W
HStem: 1288 227<559 744 972 1157>
LayerCount: 3
Fore
SplineSet
1157 1288 m 1
 924 1288 l 1
 972 1515 l 1
 1205 1515 l 1
 1157 1288 l 1
744 1288 m 1
 511 1288 l 1
 559 1515 l 1
 792 1515 l 1
 744 1288 l 1
EndSplineSet
Validated: 1
Layer: 2
SplineSet
1157 1288 m 1,0,-1
 924 1288 l 1,1,-1
 972 1515 l 1,2,-1
 1205 1515 l 1,3,-1
 1157 1288 l 1,0,-1
744 1288 m 1,4,-1
 511 1288 l 1,5,-1
 559 1515 l 1,6,-1
 792 1515 l 1,7,-1
 744 1288 l 1,4,-1
EndSplineSet
EndChar

StartChar: copyright
Encoding: 169 169 108
Width: 1902
Flags: W
HStem: -226 142<695.013 1173.54> 164 200<922.677 1242.71> 959 200<1045 1349.07> 1393 142<1006.6 1484.7>
VStem: 190 150<274.183 747.005> 638 225<425.05 765.749> 1839 151<562.005 1034.64>
LayerCount: 3
Fore
SplineSet
903 -226 m 3
 482 -226 190 77 190 475 c 3
 190 1074 763 1535 1277 1535 c 3
 1698 1535 1990 1231 1990 834 c 3
 1990 234 1417 -226 903 -226 c 3
1839 808 m 3
 1839 1141 1598 1393 1247 1393 c 3
 816 1393 340 1006 340 501 c 3
 340 168 581 -84 933 -84 c 3
 1365 -84 1839 304 1839 808 c 3
1433 852 m 1
 1389 899 1297 959 1190 959 c 3
 1075 959 863 854 863 559 c 3
 863 394 979 364 1063 364 c 3
 1199 364 1326 452 1352 471 c 1
 1390 471 l 1
 1342 245 l 1
 1192 185 1114 164 1017 164 c 3
 840 164 638 240 638 511 c 3
 638 913 924 1159 1228 1159 c 3
 1354 1159 1451 1118 1520 1080 c 1
 1471 852 l 1
 1433 852 l 1
EndSplineSet
Validated: 1
Layer: 2
SplineSet
903 -226 m 3,0,1
 748 -226 748 -226 614.5 -172 c 128,-1,2
 481 -118 481 -118 388 -25 c 128,-1,3
 295 68 295 68 242.5 197.5 c 128,-1,4
 190 327 190 327 190 475 c 0,5,6
 190 621 190 621 235 761 c 128,-1,7
 280 901 280 901 357.5 1016.5 c 128,-1,8
 435 1132 435 1132 541 1229.5 c 128,-1,9
 647 1327 647 1327 767 1393.5 c 128,-1,10
 887 1460 887 1460 1018.5 1497.5 c 128,-1,11
 1150 1535 1150 1535 1277 1535 c 0,12,13
 1432 1535 1432 1535 1565.5 1481 c 128,-1,14
 1699 1427 1699 1427 1792 1333.5 c 128,-1,15
 1885 1240 1885 1240 1937.5 1110.5 c 128,-1,16
 1990 981 1990 981 1990 834 c 0,17,18
 1990 688 1990 688 1945 547.5 c 128,-1,19
 1900 407 1900 407 1822.5 292 c 128,-1,20
 1745 177 1745 177 1639 79.5 c 128,-1,21
 1533 -18 1533 -18 1413 -85 c 128,-1,22
 1293 -152 1293 -152 1161.5 -189 c 128,-1,23
 1030 -226 1030 -226 903 -226 c 3,0,1
1839 808 m 3,24,25
 1839 973 1839 973 1765 1106.5 c 128,-1,26
 1691 1240 1691 1240 1555 1316.5 c 128,-1,27
 1419 1393 1419 1393 1247 1393 c 0,28,29
 1119 1393 1119 1393 987.5 1349.5 c 128,-1,30
 856 1306 856 1306 741 1224 c 128,-1,31
 626 1142 626 1142 535.5 1034 c 128,-1,32
 445 926 445 926 392.5 787 c 128,-1,33
 340 648 340 648 340 501 c 0,34,35
 340 249 340 249 506 82.5 c 128,-1,36
 672 -84 672 -84 933 -84 c 0,37,38
 1040 -84 1040 -84 1150 -52.5 c 128,-1,39
 1260 -21 1260 -21 1360 35 c 128,-1,40
 1460 91 1460 91 1548 173.5 c 128,-1,41
 1636 256 1636 256 1700.5 352.5 c 128,-1,42
 1765 449 1765 449 1802 567 c 128,-1,43
 1839 685 1839 685 1839 808 c 3,24,25
1433 852 m 1,44,45
 1394 894 1394 894 1328.5 926.5 c 128,-1,46
 1263 959 1263 959 1190 959 c 0,47,48
 1153 959 1153 959 1111.5 946 c 128,-1,49
 1070 933 1070 933 1025.5 902.5 c 128,-1,50
 981 872 981 872 945 827.5 c 128,-1,51
 909 783 909 783 886 713 c 128,-1,52
 863 643 863 643 863 559 c 0,53,54
 863 500 863 500 881.5 459.5 c 128,-1,55
 900 419 900 419 932 399.5 c 128,-1,56
 964 380 964 380 995.5 372 c 128,-1,57
 1027 364 1027 364 1063 364 c 0,58,59
 1124 364 1124 364 1193.5 389 c 128,-1,60
 1263 414 1263 414 1295 433.5 c 128,-1,61
 1327 453 1327 453 1352 471 c 1,62,-1
 1390 471 l 1,63,-1
 1342 245 l 1,64,65
 1227 199 1227 199 1158 181.5 c 128,-1,66
 1089 164 1089 164 1017 164 c 0,67,68
 961 164 961 164 909.5 174 c 128,-1,69
 858 184 858 184 807.5 208.5 c 128,-1,70
 757 233 757 233 720 271.5 c 128,-1,71
 683 310 683 310 660.5 371.5 c 128,-1,72
 638 433 638 433 638 511 c 0,73,74
 638 657 638 657 687.5 781 c 128,-1,75
 737 905 737 905 819 986.5 c 128,-1,76
 901 1068 901 1068 1007.5 1113.5 c 128,-1,77
 1114 1159 1114 1159 1228 1159 c 0,78,79
 1377 1159 1377 1159 1520 1080 c 1,80,-1
 1471 852 l 1,81,-1
 1433 852 l 1,44,45
EndSplineSet
EndChar

StartChar: ordfeminine
Encoding: 170 170 109
Width: 1010
Flags: W
HStem: 525 200<507.218 713.925> 999 200<596.574 882> 1335 200<507.596 916.217>
VStem: 268 226<741.987 922.637> 930 225<1198.47 1317.06>
DStem2: 781.686 525 1001.69 525 0.207912 0.978148<71.2991 102.246 257.606 484.498 680.1 731.571>
LayerCount: 3
Fore
SplineSet
489 1486 m 1
 535 1499 678 1535 809 1535 c 3
 1060 1535 1155 1439 1155 1290 c 3
 1155 1260 1151 1228 1144 1194 c 2
 1007 550 l 1
 787 550 l 1
 803 625 l 1
 714 549 593 525 516 525 c 3
 366 525 268 620 268 764 c 3
 268 1115 559 1180 925 1199 c 1
 928 1215 930 1229 930 1242 c 3
 930 1314 875 1335 766 1335 c 3
 711 1335 651 1330 480 1286 c 1
 446 1286 l 1
 489 1486 l 1
615 725 m 3
 660 725 732 730 845 823 c 1
 882 999 l 1
 678 985 494 980 494 816 c 3
 494 768 522 725 615 725 c 3
EndSplineSet
Validated: 1
Layer: 2
SplineSet
489 1486 m 1,0,1
 662 1535 662 1535 809 1535 c 0,2,3
 1155 1535 1155 1535 1155 1290 c 0,4,5
 1155 1247 1155 1247 1144 1194 c 2,6,-1
 1007 550 l 1,7,-1
 787 550 l 1,8,-1
 803 625 l 1,9,10
 742 573 742 573 663 549 c 128,-1,11
 584 525 584 525 516 525 c 0,12,13
 404 525 404 525 336 590.5 c 128,-1,14
 268 656 268 656 268 764 c 0,15,16
 268 838 268 838 285.5 897.5 c 128,-1,17
 303 957 303 957 333.5 1000.5 c 128,-1,18
 364 1044 364 1044 412 1076.5 c 128,-1,19
 460 1109 460 1109 512.5 1130 c 128,-1,20
 565 1151 565 1151 635.5 1165.5 c 128,-1,21
 706 1180 706 1180 773 1187.5 c 128,-1,22
 840 1195 840 1195 925 1199 c 1,23,24
 930 1226 930 1226 930 1242 c 0,25,26
 930 1294 930 1294 890.5 1314.5 c 128,-1,27
 851 1335 851 1335 766 1335 c 0,28,29
 670 1335 670 1335 480 1286 c 1,30,-1
 446 1286 l 1,31,-1
 489 1486 l 1,0,1
615 725 m 3,32,33
 726 725 726 725 845 823 c 1,34,-1
 882 999 l 1,35,36
 702.771918991 986.700033656 702.771918991 986.700033656 643.990709159 972.816644899 c 0,37,38
 517.833133803 943.019798793 517.833133803 943.019798793 498.122602321 855.538131874 c 0,39,40
 494.102823356 836.621753843 494.102823356 836.621753843 494 816 c 0,41,42
 494 725 494 725 615 725 c 3,32,33
EndSplineSet
EndChar

StartChar: guillemotleft
Encoding: 171 171 110
Width: 1174
Flags: W
HStem: 1128 20G<1275.42 1298.74>
DStem2: 445 652 215 601 0.681162 -0.732133<0 388.587> 237 704 445 652 0.805087 0.593156<136.614 616.003> 890 652 667 603 0.689048 -0.724716<0 365.725> 688 702 890 652 0.809532 0.587075<134.172 585.004>
LayerCount: 3
Fore
SplineSet
1092 156 m 1
 667 603 l 1
 688 702 l 1
 1303 1148 l 1
 1254 918 l 1
 890 652 l 1
 1141 386 l 1
 1092 156 l 1
656 127 m 1
 215 601 l 1
 237 704 l 1
 879 1177 l 1
 829 939 l 1
 445 652 l 1
 707 365 l 1
 656 127 l 1
EndSplineSet
Validated: 1
Layer: 2
SplineSet
1092 156 m 1,0,-1
 667 603 l 1,1,-1
 688 702 l 1,2,-1
 1303 1148 l 1,3,-1
 1254 918 l 1,4,-1
 890 652 l 1,5,-1
 1141 386 l 1,6,-1
 1092 156 l 1,0,-1
656 127 m 1,7,-1
 215 601 l 1,8,-1
 237 704 l 1,9,-1
 879 1177 l 1,10,-1
 829 939 l 1,11,-1
 445 652 l 1,12,-1
 707 365 l 1,13,-1
 656 127 l 1,7,-1
EndSplineSet
EndChar

StartChar: logicalnot
Encoding: 172 172 111
Width: 1490
Flags: W
HStem: 578 200<306 1242>
DStem2: 1128 41 1348 41 0.207912 0.978148<45.7406 548.967>
LayerCount: 3
Fore
SplineSet
1348 41 m 1
 1128 41 l 1
 1242 578 l 1
 264 578 l 1
 306 778 l 1
 1504 778 l 1
 1348 41 l 1
EndSplineSet
Validated: 1
Layer: 2
SplineSet
1348 41 m 1,0,-1
 1128 41 l 1,1,-1
 1242 578 l 1,2,-1
 264 578 l 1,3,-1
 306 778 l 1,4,-1
 1504 778 l 1,5,-1
 1348 41 l 1,0,-1
EndSplineSet
EndChar

StartChar: registered
Encoding: 174 174 113
Width: 1902
Flags: W
HStem: -226 142<695.013 1173.54> 946 200<1055 1276.69> 1393 142<1006.6 1484.7>
VStem: 190 150<274.183 747.005> 1284 228<796.02 1012> 1839 151<562.005 1034.64>
DStem2: 585.663 -226 805.663 -226 0.207912 0.978148<480.235 843.279 1047.64 1243.97> 1281 619 1048 554 0.502334 -0.864674<0 350.102>
LayerCount: 3
Fore
SplineSet
903 -226 m 3
 482 -226 190 77 190 475 c 3
 190 1074 763 1535 1277 1535 c 3
 1698 1535 1990 1231 1990 834 c 3
 1990 234 1417 -226 903 -226 c 3
1839 808 m 3
 1839 1141 1598 1393 1247 1393 c 3
 816 1393 340 1006 340 501 c 3
 340 168 581 -84 933 -84 c 3
 1365 -84 1839 304 1839 808 c 3
1281 619 m 1
 1525 199 l 1
 1255 199 l 1
 1048 554 l 1
 972 554 l 1
 896 199 l 1
 676 199 l 1
 878 1146 l 1
 1173 1146 l 2
 1391 1146 1512 1082 1512 942 c 3
 1512 789 1428 688 1281 619 c 1
1073 754 m 2
 1229 754 1284 816 1284 884 c 3
 1284 936 1218 946 1131 946 c 2
 1055 946 l 1
 1014 754 l 1
 1073 754 l 2
EndSplineSet
Validated: 1
Layer: 2
SplineSet
903 -226 m 3,0,1
 748 -226 748 -226 614.5 -172 c 128,-1,2
 481 -118 481 -118 388 -25 c 128,-1,3
 295 68 295 68 242.5 197.5 c 128,-1,4
 190 327 190 327 190 475 c 0,5,6
 190 621 190 621 235 761 c 128,-1,7
 280 901 280 901 357.5 1016.5 c 128,-1,8
 435 1132 435 1132 541 1229.5 c 128,-1,9
 647 1327 647 1327 767 1393.5 c 128,-1,10
 887 1460 887 1460 1018.5 1497.5 c 128,-1,11
 1150 1535 1150 1535 1277 1535 c 0,12,13
 1432 1535 1432 1535 1565.5 1481 c 128,-1,14
 1699 1427 1699 1427 1792 1333.5 c 128,-1,15
 1885 1240 1885 1240 1937.5 1110.5 c 128,-1,16
 1990 981 1990 981 1990 834 c 0,17,18
 1990 688 1990 688 1945 547.5 c 128,-1,19
 1900 407 1900 407 1822.5 292 c 128,-1,20
 1745 177 1745 177 1639 79.5 c 128,-1,21
 1533 -18 1533 -18 1413 -85 c 128,-1,22
 1293 -152 1293 -152 1161.5 -189 c 128,-1,23
 1030 -226 1030 -226 903 -226 c 3,0,1
1839 808 m 3,24,25
 1839 973 1839 973 1765 1106.5 c 128,-1,26
 1691 1240 1691 1240 1555 1316.5 c 128,-1,27
 1419 1393 1419 1393 1247 1393 c 0,28,29
 1119 1393 1119 1393 987.5 1349.5 c 128,-1,30
 856 1306 856 1306 741 1224 c 128,-1,31
 626 1142 626 1142 535.5 1034 c 128,-1,32
 445 926 445 926 392.5 787 c 128,-1,33
 340 648 340 648 340 501 c 0,34,35
 340 249 340 249 506 82.5 c 128,-1,36
 672 -84 672 -84 933 -84 c 0,37,38
 1040 -84 1040 -84 1150 -52.5 c 128,-1,39
 1260 -21 1260 -21 1360 35 c 128,-1,40
 1460 91 1460 91 1548 173.5 c 128,-1,41
 1636 256 1636 256 1700.5 352.5 c 128,-1,42
 1765 449 1765 449 1802 567 c 128,-1,43
 1839 685 1839 685 1839 808 c 3,24,25
1281 619 m 1,44,-1
 1525 199 l 1,45,-1
 1255 199 l 1,46,-1
 1048 554 l 1,47,-1
 972 554 l 1,48,-1
 896 199 l 1,49,-1
 676 199 l 1,50,-1
 878 1146 l 1,51,-1
 1173 1146 l 2,52,53
 1512 1146 1512 1146 1512 942 c 0,54,55
 1512 727 1512 727 1281 619 c 1,44,-1
1073 754 m 2,56,57
 1182 754 1182 754 1233 790.5 c 128,-1,58
 1284 827 1284 827 1284 884 c 0,59,60
 1284 920 1284 920 1244.5 933 c 128,-1,61
 1205 946 1205 946 1131 946 c 2,62,-1
 1055 946 l 1,63,-1
 1014 754 l 1,64,-1
 1073 754 l 2,56,57
EndSplineSet
EndChar

StartChar: macron
Encoding: 175 175 114
Width: 1118
Flags: W
HStem: 1643 162<368 1483>
LayerCount: 3
Fore
SplineSet
1483 1643 m 1
 333 1643 l 1
 368 1805 l 1
 1518 1805 l 1
 1483 1643 l 1
EndSplineSet
Validated: 1
Layer: 2
SplineSet
1483 1643 m 1,0,-1
 333 1643 l 1,1,-1
 368 1805 l 1,2,-1
 1518 1805 l 1,3,-1
 1483 1643 l 1,0,-1
EndSplineSet
EndChar

StartChar: degree
Encoding: 176 176 115
Width: 964
Flags: W
HStem: 739 200<586.136 795.74> 1331 200<649.161 860.78>
VStem: 316 226<982.05 1222.59> 904 225<1047.85 1288.24>
LayerCount: 3
Fore
SplineSet
807 1531 m 3
 999 1531 1129 1404 1129 1222 c 3
 1129 939 877 739 639 739 c 3
 448 739 316 864 316 1047 c 3
 316 1330 569 1531 807 1531 c 3
765 1331 m 3
 667 1331 542 1222 542 1095 c 3
 542 1004 611 939 682 939 c 3
 784 939 904 1052 904 1175 c 3
 904 1264 839 1331 765 1331 c 3
EndSplineSet
Validated: 1
Layer: 2
SplineSet
807 1531 m 3,0,1
 951 1531 951 1531 1040 1445 c 128,-1,2
 1129 1359 1129 1359 1129 1222 c 0,3,4
 1129 1119 1129 1119 1086 1027.5 c 128,-1,5
 1043 936 1043 936 973.5 874 c 128,-1,6
 904 812 904 812 816 775.5 c 128,-1,7
 728 739 728 739 639 739 c 0,8,9
 496 739 496 739 406 824.5 c 128,-1,10
 316 910 316 910 316 1047 c 0,11,12
 316 1150 316 1150 359.5 1241.5 c 128,-1,13
 403 1333 403 1333 472.5 1395.5 c 128,-1,14
 542 1458 542 1458 630 1494.5 c 128,-1,15
 718 1531 718 1531 807 1531 c 3,0,1
765 1331 m 3,16,17
 688 1331 688 1331 615 1259 c 128,-1,18
 542 1187 542 1187 542 1095 c 0,19,20
 542 1029 542 1029 584.5 984 c 128,-1,21
 627 939 627 939 682 939 c 0,22,23
 761 939 761 939 832.5 1012 c 128,-1,24
 904 1085 904 1085 904 1175 c 0,25,26
 904 1241 904 1241 862.5 1286 c 128,-1,27
 821 1331 821 1331 765 1331 c 3,16,17
EndSplineSet
EndChar

StartChar: plusminus
Encoding: 177 177 116
Width: 1490
Flags: W
HStem: 143 220<223 702 942 1374> 723 220<346 779 1065 1498>
DStem2: 655.238 143 895.238 143 0.207912 0.978148<274.814 593.057 867.712 1303.43>
LayerCount: 3
Fore
SplineSet
1374 143 m 1
 176 143 l 1
 223 363 l 1
 702 363 l 1
 779 723 l 1
 300 723 l 1
 346 943 l 1
 825 943 l 1
 926 1418 l 1
 1166 1418 l 1
 1065 943 l 1
 1544 943 l 1
 1498 723 l 1
 1019 723 l 1
 942 363 l 1
 1421 363 l 1
 1374 143 l 1
EndSplineSet
Validated: 1
Layer: 2
SplineSet
1374 143 m 1,0,-1
 176 143 l 1,1,-1
 223 363 l 1,2,-1
 702 363 l 1,3,-1
 779 723 l 1,4,-1
 300 723 l 1,5,-1
 346 943 l 1,6,-1
 825 943 l 1,7,-1
 926 1418 l 1,8,-1
 1166 1418 l 1,9,-1
 1065 943 l 1,10,-1
 1544 943 l 1,11,-1
 1498 723 l 1,12,-1
 1019 723 l 1,13,-1
 942 363 l 1,14,-1
 1421 363 l 1,15,-1
 1374 143 l 1,0,-1
EndSplineSet
EndChar

StartChar: uni00B2
Encoding: 178 178 117
Width: 1010
Flags: W
HStem: 534 200<606 933> 1318 200<686.247 856.091>
VStem: 426 220<1179 1278.44> 863 224<1142.04 1309.69>
LayerCount: 3
Fore
SplineSet
825 1518 m 3
 987 1518 1087 1430 1087 1297 c 3
 1087 1013 755 865 606 734 c 1
 975 734 l 1
 933 534 l 1
 264 534 l 1
 308 681 392 794 482 868 c 0
 645 1003 863 1111 863 1249 c 3
 863 1289 822 1318 781 1318 c 3
 701 1318 667 1266 646 1179 c 1
 426 1179 l 1
 470 1385 611 1518 825 1518 c 3
EndSplineSet
Validated: 1
Layer: 2
SplineSet
825 1518 m 3,0,1
 946 1518 946 1518 1016.5 1457.5 c 128,-1,2
 1087 1397 1087 1397 1087 1297 c 0,3,4
 1087 1229 1087 1229 1061 1165.5 c 128,-1,5
 1035 1102 1035 1102 996 1054.5 c 128,-1,6
 957 1007 957 1007 901.5 958 c 128,-1,7
 846 909 846 909 797.5 875.5 c 128,-1,8
 749 842 749 842 692.5 801.5 c 128,-1,9
 636 761 636 761 606 734 c 1,10,-1
 975 734 l 1,11,-1
 933 534 l 1,12,-1
 264 534 l 1,13,14
 325 739 325 739 482 868 c 0,15,16
 521 900 521 900 583 945 c 128,-1,17
 645 990 645 990 688 1022 c 128,-1,18
 731 1054 731 1054 774.5 1093 c 128,-1,19
 818 1132 818 1132 840.5 1171 c 128,-1,20
 863 1210 863 1210 863 1249 c 0,21,22
 863 1278 863 1278 838 1298 c 128,-1,23
 813 1318 813 1318 781 1318 c 0,24,25
 724 1318 724 1318 693.5 1283.5 c 128,-1,26
 663 1249 663 1249 646 1179 c 1,27,-1
 426 1179 l 1,28,29
 460 1336 460 1336 563.5 1427 c 128,-1,30
 667 1518 667 1518 825 1518 c 3,0,1
EndSplineSet
EndChar

StartChar: uni00B3
Encoding: 179 179 118
Width: 1010
Flags: W
HStem: 528 200<584.835 750.395> 946 200<633 778.358> 1318 200<689.424 824.488>
VStem: 341 229<740.238 863> 789 229<765.319 932.464> 831 224<1171.88 1313.15>
LayerCount: 3
Fore
SplineSet
1018 930 m 3xf8
 1018 691 815 528 602 528 c 3
 440 528 341 622 341 775 c 3
 341 802 344 832 351 863 c 1
 571 863 l 1
 571 856 570 850 570 844 c 3
 570 775 596 728 645 728 c 3
 729 728 789 786 789 862 c 3xf8
 789 910 751 946 681 946 c 0
 647 946 615 936 586 928 c 1
 633 1146 l 1
 765 1146 831 1166 831 1258 c 3
 831 1285 796 1318 770 1318 c 3
 708 1318 679 1273 655 1198 c 1
 435 1198 l 1
 475 1386 617 1518 808 1518 c 3
 952 1518 1055 1436 1055 1306 c 3xf4
 1055 1203 1011 1113 953 1068 c 1
 999 1039 1018 991 1018 930 c 3xf8
EndSplineSet
Validated: 1
Layer: 2
SplineSet
1018 930 m 3,0,1
 1018 814 1018 814 958 720.5 c 128,-1,2
 898 627 898 627 803.5 577.5 c 128,-1,3
 709 528 709 528 602 528 c 0,4,5
 481 528 481 528 411 594 c 128,-1,6
 341 660 341 660 341 775 c 0,7,8
 341 819 341 819 351 863 c 1,9,-1
 571 863 l 1,10,11
 571 859 571 859 570.5 853 c 128,-1,12
 570 847 570 847 570 844 c 0,13,14
 570 791 570 791 589.5 759.5 c 128,-1,15
 609 728 609 728 645 728 c 0,16,17
 708 728 708 728 748.5 766.5 c 128,-1,18
 789 805 789 805 789 862 c 0,19,20
 789 899 789 899 760.5 922.5 c 128,-1,21
 732 946 732 946 681 946 c 0,22,23
 651 946 651 946 586 928 c 1,24,-1
 633 1146 l 1,25,26
 738 1146 738 1146 784.5 1169 c 128,-1,27
 831 1192 831 1192 831 1258 c 0,28,29
 831 1278 831 1278 810.5 1298 c 128,-1,30
 790 1318 790 1318 770 1318 c 0,31,32
 726 1318 726 1318 700 1288.5 c 128,-1,33
 674 1259 674 1259 655 1198 c 1,34,-1
 435 1198 l 1,35,36
 465 1341 465 1341 566 1429.5 c 128,-1,37
 667 1518 667 1518 808 1518 c 0,38,39
 917 1518 917 1518 986 1460 c 128,-1,40
 1055 1402 1055 1402 1055 1306 c 0,41,42
 1055 1231 1055 1231 1026.5 1167 c 128,-1,43
 998 1103 998 1103 953 1068 c 1,44,45
 1018 1027 1018 1027 1018 930 c 3,0,1
EndSplineSet
EndChar

StartChar: acute
Encoding: 180 180 119
Width: 1118
Flags: W
HStem: 1286 406
VStem: 697 565
LayerCount: 3
Fore
SplineSet
1262 1692 m 1
 879 1286 l 1
 697 1286 l 1
 978 1692 l 1
 1262 1692 l 1
EndSplineSet
Validated: 1
Layer: 2
SplineSet
1262 1692 m 1,0,-1
 879 1286 l 1,1,-1
 697 1286 l 1,2,-1
 978 1692 l 1,3,-1
 1262 1692 l 1,0,-1
EndSplineSet
EndChar

StartChar: micro
Encoding: 181 181 120
Width: 1163
Flags: W
HStem: -13 200<465.072 748.344>
DStem2: 32 -412 252 -412 0.207912 0.978148<45.7406 559.995 737.05 1563.16> 735.427 -412 955.427 -412 0.207912 0.978148<466.945 522.407 673.479 1563.07>
LayerCount: 3
Fore
SplineSet
618 187 m 3
 724 187 805 228 886 297 c 1
 1060 1117 l 1
 1280 1117 l 1
 1043 0 l 1
 823 0 l 1
 844 99 l 1
 721 -1 655 -13 575 -13 c 3
 480 -13 422 10 359 91 c 1
 252 -412 l 1
 32 -412 l 1
 357 1117 l 1
 577 1117 l 1
 403 297 l 1
 449 227 520 187 618 187 c 3
EndSplineSet
Validated: 1
Layer: 2
SplineSet
618 187 m 3,0,1
 757 187 757 187 886 297 c 1,2,-1
 1060 1117 l 1,3,-1
 1280 1117 l 1,4,-1
 1043 0 l 1,5,-1
 823 0 l 1,6,-1
 844 99 l 1,7,8
 759 30 759 30 701 8.5 c 128,-1,9
 643 -13 643 -13 575 -13 c 0,10,11
 502 -13 502 -13 453.5 9.5 c 128,-1,12
 405 32 405 32 359 91 c 1,13,-1
 252 -412 l 1,14,-1
 32 -412 l 1,15,-1
 357 1117 l 1,16,-1
 577 1117 l 1,17,-1
 403 297 l 1,18,19
 475 187 475 187 618 187 c 3,0,1
EndSplineSet
EndChar

StartChar: paragraph
Encoding: 182 182 121
Width: 1118
Flags: W
HStem: 1289 200<945 1052>
DStem2: 374 -363 594 -363 0.207912 0.978148<45.7406 945.537> 701 -363 921 -363 0.207912 0.978148<45.7406 1688.88>
LayerCount: 3
Fore
SplineSet
828 1489 m 2
 1314 1489 l 1
 921 -363 l 1
 701 -363 l 1
 1052 1289 l 1
 945 1289 l 1
 594 -363 l 1
 374 -363 l 1
 570 562 l 1
 381 573 248 705 248 914 c 3
 248 1287 537 1489 828 1489 c 2
EndSplineSet
Validated: 1
Layer: 2
SplineSet
828 1489 m 2,0,-1
 1314 1489 l 1,1,-1
 921 -363 l 1,2,-1
 701 -363 l 1,3,-1
 1052 1289 l 1,4,-1
 945 1289 l 1,5,-1
 594 -363 l 1,6,-1
 374 -363 l 1,7,-1
 570 562 l 1,8,9
 426 570 426 570 337 665 c 128,-1,10
 248 760 248 760 248 914 c 0,11,12
 248 1023 248 1023 280.5 1117 c 128,-1,13
 313 1211 313 1211 368.5 1278 c 128,-1,14
 424 1345 424 1345 498 1393.5 c 128,-1,15
 572 1442 572 1442 656 1465.5 c 128,-1,16
 740 1489 740 1489 828 1489 c 2,0,-1
EndSplineSet
EndChar

StartChar: periodcentered
Encoding: 183 183 122
Width: 724
Flags: W
HStem: 816 317<468 671>
VStem: 400 339
LayerCount: 3
Fore
SplineSet
671 816 m 1
 400 816 l 1
 468 1133 l 1
 739 1133 l 1
 671 816 l 1
EndSplineSet
Validated: 1
Layer: 2
SplineSet
671 816 m 1,0,-1
 400 816 l 1,1,-1
 468 1133 l 1,2,-1
 739 1133 l 1,3,-1
 671 816 l 1,0,-1
EndSplineSet
EndChar

StartChar: cedilla
Encoding: 184 184 123
Width: 1118
Flags: W
HStem: -428 200<238.967 507.457> -400 206<232 373.185>
VStem: 574 218<-150.404 47>
LayerCount: 3
Fore
SplineSet
260 -194 m 1x60
 300 -214 344 -228 392 -228 c 3
 478 -228 529 -190 549 -96 c 0
 559 -51 559 -40 574 47 c 1
 792 47 l 1
 787 11 779 -44 772 -78 c 0
 713 -354 506 -428 375 -428 c 3xa0
 337 -428 252 -420 188 -400 c 1
 232 -194 l 1
 260 -194 l 1x60
EndSplineSet
Validated: 1
Layer: 2
SplineSet
260 -194 m 1,0,1
 328 -228 328 -228 392 -228 c 0,2,3
 458 -228 458 -228 496 -196.5 c 128,-1,4
 534 -165 534 -165 549 -96 c 0,5,6
 551 -89 551 -89 574 47 c 1,7,-1
 792 47 l 1,8,9
 780 -39 780 -39 772 -78 c 0,10,11
 755 -157 755 -157 720.5 -220 c 128,-1,12
 686 -283 686 -283 645 -321 c 128,-1,13
 604 -359 604 -359 554.5 -384 c 128,-1,14
 505 -409 505 -409 461 -418.5 c 128,-1,15
 417 -428 417 -428 375 -428 c 0,16,17
 278 -428 278 -428 188 -400 c 1,18,-1
 232 -194 l 1,19,-1
 260 -194 l 1,0,1
EndSplineSet
EndChar

StartChar: uni0E01
Encoding: 3585 3585 124
Width: 1240
Flags: W
HStem: 0 21G<188 412.242 862 1086.25> 949 200<650.832 964.978>
VStem: 1015 226<540.188 899.474>
DStem2: 188 0 408 0 0.207912 0.978148<45.7406 594.949> 862 0 1082 0 0.207912 0.978148<45.7406 781.556>
LayerCount: 3
Fore
SplineSet
868 1149 m 0
 1106 1149 1241 1028 1241 811 c 0
 1241 769 1235 723 1225 673 c 2
 1082 0 l 1
 862 0 l 1
 1002 657 l 2
 1011 699 1015 736 1015 768 c 0
 1015 892 952 949 826 949 c 0
 720 949 635 916 567 831 c 1
 633 795 673 739 687 663 c 1
 556 552 519 523 485 363 c 2
 408 0 l 1
 188 0 l 1
 265 363 l 2
 299 524 328 560 459 671 c 1
 423 726 366 767 286 792 c 1
 336 912 552 1149 868 1149 c 0
EndSplineSet
Validated: 1
Layer: 2
SplineSet
868 1149 m 0,0,1
 1047 1149 1047 1149 1144 1061.5 c 128,-1,2
 1241 974 1241 974 1241 811 c 0,3,4
 1241 753 1241 753 1225 673 c 2,5,-1
 1082 0 l 1,6,-1
 862 0 l 1,7,-1
 1002 657 l 2,8,9
 1015 718 1015 718 1015 768 c 0,10,11
 1015 949 1015 949 826 949 c 0,12,13
 661 949 661 949 567 831 c 1,14,15
 666 777 666 777 687 663 c 1,16,17
 636 620 636 620 617.5 603 c 128,-1,18
 599 586 599 586 571 557 c 128,-1,19
 543 528 543 528 532 504.5 c 128,-1,20
 521 481 521 481 508 446.5 c 128,-1,21
 495 412 495 412 485 363 c 2,22,-1
 408 0 l 1,23,-1
 188 0 l 1,24,-1
 265 363 l 2,25,26
 282 445 282 445 303 492 c 128,-1,27
 324 539 324 539 356 575 c 128,-1,28
 388 611 388 611 459 671 c 1,29,30
 404 755 404 755 286 792 c 1,31,32
 302 830 302 830 335 875 c 128,-1,33
 368 920 368 920 422 969.5 c 128,-1,34
 476 1019 476 1019 540.5 1058.5 c 128,-1,35
 605 1098 605 1098 691.5 1123.5 c 128,-1,36
 778 1149 778 1149 868 1149 c 0,0,1
EndSplineSet
EndChar

StartChar: uni0E02
Encoding: 3586 3586 125
Width: 1400
Flags: W
HStem: 0 200<800 1040> 531 129<362 529.539> 953 196<606.777 797.934>
VStem: 249 173<661.319 812.016> 550 135<675.65 826.728> 833 221<740.717 922.81>
DStem2: 537 0 757.489 0 0.207912 0.978148<250.31 703.33> 997.489 0 1217 0 0.207912 0.978148<204.468 1164.32>
LayerCount: 3
Fore
SplineSet
466 660 m 0
 513 660 550 719 550 767 c 0
 550 799 534 828 502 828 c 0
 455 828 422 767 422 718 c 0
 422 687 435 660 466 660 c 0
249 705 m 0
 249 929 453 1149 720 1149 c 0
 1005 1149 1054 954 1054 837 c 0
 1054 809 1051 786 1048 771 c 1
 945 688 889 623 879 575 c 2
 800 200 l 1
 1040 200 l 1
 1239 1139 l 1
 1459 1139 l 1
 1217 0 l 1
 537 0 l 1
 659 575 l 2
 669 622 717 682 828 771 c 1
 831 786 833 801 833 815 c 0
 833 891 788 953 702 953 c 0
 630 953 603 922 602 922 c 1
 602 921 602 920 601 920 c 1
 659 913 685 865 685 803 c 0
 685 672 578 531 420 531 c 0
 304 531 249 599 249 705 c 0
EndSplineSet
Validated: 1
Layer: 2
SplineSet
466 660 m 0,0,1
 500 660 500 660 525 694.5 c 128,-1,2
 550 729 550 729 550 767 c 0,3,4
 550 793 550 793 537.5 810.5 c 128,-1,5
 525 828 525 828 502 828 c 0,6,7
 469 828 469 828 445.5 793 c 128,-1,8
 422 758 422 758 422 718 c 0,9,10
 422 693 422 693 433 676.5 c 128,-1,11
 444 660 444 660 466 660 c 0,0,1
249 705 m 0,12,13
 249 788 249 788 285.5 868.5 c 128,-1,14
 322 949 322 949 384 1011 c 128,-1,15
 446 1073 446 1073 534.5 1111 c 128,-1,16
 623 1149 623 1149 720 1149 c 0,17,18
 802 1149 802 1149 864 1127.5 c 128,-1,19
 926 1106 926 1106 961 1073.5 c 128,-1,20
 996 1041 996 1041 1018 997 c 128,-1,21
 1040 953 1040 953 1047 915 c 128,-1,22
 1054 877 1054 877 1054 837 c 0,23,24
 1054 801 1054 801 1048 771 c 1,25,26
 894 647 894 647 879 575 c 2,27,-1
 800 200 l 1,28,-1
 1040 200 l 1,29,-1
 1239 1139 l 1,30,-1
 1459 1139 l 1,31,-1
 1217 0 l 1,32,-1
 537 0 l 1,33,-1
 659 575 l 2,34,35
 675 648 675 648 828 771 c 1,36,37
 833 796 833 796 833 815 c 0,38,39
 833 875 833 875 798.5 914 c 128,-1,40
 764 953 764 953 702 953 c 0,41,42
 687 953 687 953 674 951.5 c 128,-1,43
 661 950 661 950 651 947 c 128,-1,44
 641 944 641 944 633 941 c 128,-1,45
 625 938 625 938 619.5 934.5 c 128,-1,46
 614 931 614 931 610 928 c 128,-1,47
 606 925 606 925 604 923.5 c 2,48,-1
 602 922 l 2,49,50
 602 920 602 920 601 920 c 1,51,52
 643 915 643 915 664 883.5 c 128,-1,53
 685 852 685 852 685 803 c 0,54,55
 685 699 685 699 609 615 c 128,-1,56
 533 531 533 531 420 531 c 0,57,58
 335 531 335 531 292 577 c 128,-1,59
 249 623 249 623 249 705 c 0,12,13
EndSplineSet
EndChar

StartChar: uni0E03
Encoding: 3587 3587 126
Width: 1450
Flags: W
HStem: 0 200<853 1093> 457 129<316.5 491.531> 1129 10G<479 629.185 876.074 970.5 1287.76 1512>
VStem: 216 168<587.608 738.618> 512 135<602.34 752.794> 897 210<741.783 927.951>
DStem2: 590 0 810.489 0 0.207912 0.978148<250.31 702.882> 1050.49 0 1270 0 0.207912 0.978148<204.468 1164.32>
LayerCount: 3
Fore
SplineSet
429 586 m 0
 476 586 512 645 512 693 c 0
 512 725 496 754 464 754 c 0
 417 754 384 694 384 645 c 0
 384 614 397 586 429 586 c 0
647 724 m 0
 647 595 538 457 383 457 c 0
 250 457 216 553 216 637 c 0
 216 798 354 1054 604 1149 c 1
 740 1041 l 1
 907 1149 l 1
 1034 1114 1107 966 1107 835 c 0
 1107 813 1105 791 1101 771 c 1
 998 688 942 623 932 575 c 2
 853 200 l 1
 1093 200 l 1
 1292 1139 l 1
 1512 1139 l 1
 1270 0 l 1
 590 0 l 1
 712 575 l 2
 723 628 780 691 895 771 c 1
 896 778 897 787 897 795 c 0
 897 841 879 901 860 929 c 1
 694 821 l 1
 557 929 l 1
 528 897 509 869 507 862 c 1
 618 862 647 789 647 724 c 0
EndSplineSet
Validated: 1
Layer: 2
SplineSet
429 586 m 0,0,1
 463 586 463 586 487.5 620.5 c 128,-1,2
 512 655 512 655 512 693 c 0,3,4
 512 719 512 719 499.5 736.5 c 128,-1,5
 487 754 487 754 464 754 c 0,6,7
 431 754 431 754 407.5 719 c 128,-1,8
 384 684 384 684 384 645 c 0,9,10
 384 620 384 620 395 603 c 128,-1,11
 406 586 406 586 429 586 c 0,0,1
647 724 m 0,12,13
 647 622 647 622 571 539.5 c 128,-1,14
 495 457 495 457 383 457 c 0,15,16
 335 457 335 457 301 473 c 128,-1,17
 267 489 267 489 249.5 516 c 128,-1,18
 232 543 232 543 224 573 c 128,-1,19
 216 603 216 603 216 637 c 0,20,21
 216 699 216 699 242 772 c 128,-1,22
 268 845 268 845 315.5 917 c 128,-1,23
 363 989 363 989 438.5 1052 c 128,-1,24
 514 1115 514 1115 604 1149 c 1,25,-1
 740 1041 l 1,26,-1
 907 1149 l 1,27,28
 998 1124 998 1124 1052.5 1031.5 c 128,-1,29
 1107 939 1107 939 1107 835 c 0,30,31
 1107 801 1107 801 1101 771 c 1,32,33
 947 647 947 647 932 575 c 2,34,-1
 853 200 l 1,35,-1
 1093 200 l 1,36,-1
 1292 1139 l 1,37,-1
 1512 1139 l 1,38,-1
 1270 0 l 1,39,-1
 590 0 l 1,40,-1
 712 575 l 2,41,42
 729 655 729 655 895 771 c 1,43,44
 897 785 897 785 897 795 c 0,45,46
 897 829 897 829 886 868 c 128,-1,47
 875 907 875 907 860 929 c 1,48,-1
 694 821 l 1,49,-1
 557 929 l 1,50,51
 512 879 512 879 507 862 c 1,52,53
 583 862 583 862 615 822 c 128,-1,54
 647 782 647 782 647 724 c 0,12,13
EndSplineSet
EndChar

StartChar: uni0E04
Encoding: 3588 3588 127
Width: 1370
Flags: W
HStem: 0 21G<251 498 980 1204.25> 305 111<763.424 885.688> 574 142<779.605 902.321> 949 200<714.172 1041.43>
VStem: 905 125<433.54 571.518> 1129 228<615.182 861.959>
DStem2: 980 0 1200 0 0.207912 0.978148<45.7406 749.885>
LayerCount: 3
Fore
SplineSet
816 416 m 0
 861 416 905 465 905 513 c 0
 905 546 884 574 850 574 c 0
 806 574 761 525 761 478 c 0
 761 445 782 416 816 416 c 0
1030 550 m 0
 1030 432 902 305 772 305 c 0
 727 305 692 325 690 338 c 1
 653 304 505 52 491 0 c 1
 251 0 l 1
 274 108 l 2
 298 221 273 491 314 680 c 0
 381 996 628 1149 925 1149 c 0
 1151 1149 1357 1047 1357 795 c 0
 1357 759 1353 720 1344 677 c 2
 1200 0 l 1
 980 0 l 1
 1121 664 l 2
 1127 690 1129 714 1129 736 c 0
 1129 894 995 949 887 949 c 0
 785 949 578 890 527 647 c 0
 510 567 510 434 503 384 c 1
 608 592 730 716 872 716 c 0
 965 716 1030 636 1030 550 c 0
EndSplineSet
Validated: 1
Layer: 2
SplineSet
816 416 m 0,0,1
 850 416 850 416 877.5 446.5 c 128,-1,2
 905 477 905 477 905 513 c 0,3,4
 905 539 905 539 890 556.5 c 128,-1,5
 875 574 875 574 850 574 c 0,6,7
 817 574 817 574 789 543.5 c 128,-1,8
 761 513 761 513 761 478 c 0,9,10
 761 452 761 452 776 434 c 128,-1,11
 791 416 791 416 816 416 c 0,0,1
1030 550 m 0,12,13
 1030 461 1030 461 949.5 383 c 128,-1,14
 869 305 869 305 772 305 c 0,15,16
 741 305 741 305 716.5 316 c 128,-1,17
 692 327 692 327 690 338 c 1,18,19
 662 313 662 313 582 176 c 128,-1,20
 502 39 502 39 491 0 c 1,21,-1
 251 0 l 1,22,-1
 274 108 l 2,23,24
 284 154 284 154 287.5 365 c 128,-1,25
 291 576 291 576 314 680 c 0,26,27
 363 909 363 909 528 1029 c 128,-1,28
 693 1149 693 1149 925 1149 c 0,29,30
 994 1149 994 1149 1056.5 1136.5 c 128,-1,31
 1119 1124 1119 1124 1174.5 1096.5 c 128,-1,32
 1230 1069 1230 1069 1270 1028.5 c 128,-1,33
 1310 988 1310 988 1333.5 928 c 128,-1,34
 1357 868 1357 868 1357 795 c 0,35,36
 1357 739 1357 739 1344 677 c 2,37,-1
 1200 0 l 1,38,-1
 980 0 l 1,39,-1
 1121 664 l 2,40,41
 1129 699 1129 699 1129 736 c 0,42,43
 1129 792 1129 792 1107 835 c 128,-1,44
 1085 878 1085 878 1048.5 902 c 128,-1,45
 1012 926 1012 926 971 937.5 c 128,-1,46
 930 949 930 949 887 949 c 0,47,48
 853 949 853 949 815 941.5 c 128,-1,49
 777 934 777 934 731 912.5 c 128,-1,50
 685 891 685 891 646 858.5 c 128,-1,51
 607 826 607 826 574.5 771 c 128,-1,52
 542 716 542 716 527 647 c 0,53,54
 517 600 517 600 511 498 c 128,-1,55
 505 396 505 396 503 384 c 1,56,57
 671 716 671 716 872 716 c 0,58,59
 940 716 940 716 985 666.5 c 128,-1,60
 1030 617 1030 617 1030 550 c 0,12,13
EndSplineSet
EndChar

StartChar: uni0E05
Encoding: 3589 3589 128
Width: 1370
Flags: W
HStem: 0 21G<238 482 967 1191.25> 305 111<750.259 874.629> 574 142<765.434 887.999> 1129 20G<665.5 781.138 1060.03 1199.5>
VStem: 892 124<431.038 571.991> 1122 227<549.969 877.753>
DStem2: 967 0 1187 0 0.207912 0.978148<45.7406 774.15>
LayerCount: 3
Fore
SplineSet
803 416 m 0
 848 416 892 464 892 512 c 0
 892 545 871 574 837 574 c 0
 792 574 748 526 748 478 c 0
 748 445 769 416 803 416 c 0
1016 545 m 0
 1016 436 883 305 759 305 c 0
 712 305 679 326 677 338 c 1
 634 299 486 37 478 0 c 1
 238 0 l 1
 261 108 l 2
 282 209 265 518 305 706 c 0
 365 988 574 1129 757 1149 c 1
 897 1033 l 1
 1094 1149 l 1
 1305 1099 1349 947 1349 825 c 0
 1349 762 1337 707 1331 677 c 2
 1187 0 l 1
 967 0 l 1
 1108 664 l 2
 1115 696 1122 728 1122 760 c 0
 1122 811 1105 862 1043 909 c 1
 846 795 l 1
 706 909 l 1
 487 824 512 596 490 384 c 1
 595 592 713 716 858 716 c 0
 963 716 1016 623 1016 545 c 0
EndSplineSet
Validated: 1
Layer: 2
SplineSet
803 416 m 0,0,1
 837 416 837 416 864.5 446 c 128,-1,2
 892 476 892 476 892 512 c 0,3,4
 892 538 892 538 877 556 c 128,-1,5
 862 574 862 574 837 574 c 0,6,7
 803 574 803 574 775.5 544 c 128,-1,8
 748 514 748 514 748 478 c 0,9,10
 748 452 748 452 763 434 c 128,-1,11
 778 416 778 416 803 416 c 0,0,1
1016 545 m 0,12,13
 1016 462 1016 462 933.5 383.5 c 128,-1,14
 851 305 851 305 759 305 c 0,15,16
 727 305 727 305 703 316.5 c 128,-1,17
 679 328 679 328 677 338 c 1,18,19
 647 310 647 310 566 170 c 128,-1,20
 485 30 485 30 478 0 c 1,21,-1
 238 0 l 1,22,-1
 261 108 l 2,23,24
 269 147 269 147 276 374 c 128,-1,25
 283 601 283 601 305 706 c 0,26,27
 327 808 327 808 375 891 c 128,-1,28
 423 974 423 974 485.5 1026.5 c 128,-1,29
 548 1079 548 1079 617 1110 c 128,-1,30
 686 1141 686 1141 757 1149 c 1,31,-1
 897 1033 l 1,32,-1
 1094 1149 l 1,33,34
 1169 1131 1169 1131 1222 1095.5 c 128,-1,35
 1275 1060 1275 1060 1301 1013 c 128,-1,36
 1327 966 1327 966 1338 921 c 128,-1,37
 1349 876 1349 876 1349 825 c 0,38,39
 1349 767 1349 767 1331 677 c 2,40,-1
 1187 0 l 1,41,-1
 967 0 l 1,42,-1
 1108 664 l 2,43,44
 1122 728 1122 728 1122 760 c 0,45,46
 1122 849 1122 849 1043 909 c 1,47,-1
 846 795 l 1,48,-1
 706 909 l 1,49,50
 660 891 660 891 626 865 c 128,-1,51
 592 839 592 839 571 803.5 c 128,-1,52
 550 768 550 768 536.5 734.5 c 128,-1,53
 523 701 523 701 515.5 652 c 128,-1,54
 508 603 508 603 504.5 567 c 128,-1,55
 501 531 501 531 497 474 c 128,-1,56
 493 417 493 417 490 384 c 1,57,58
 658 716 658 716 858 716 c 0,59,60
 931 716 931 716 973.5 663 c 128,-1,61
 1016 610 1016 610 1016 545 c 0,12,13
EndSplineSet
EndChar

StartChar: uni0E06
Encoding: 3590 3590 129
Width: 1520
Flags: W
HStem: -13 263<1035.53 1197.43> -10 166<567.928 635.895> 457 129<306.5 481.531> 1129 10G<469 619.185 866.074 960.5 1376.75 1601>
VStem: 206 168<587.608 738.618> 411 154<156.39 293.128> 502 135<602.34 752.794> 887 210<741.783 927.948>
DStem2: 591.856 -13 796.378 -13 0.207912 0.978148<168.091 223.477 517.008 732.067> 1136.1 -13 1355.9 -13 0.207912 0.978148<262.762 1177.74>
LayerCount: 3
Fore
SplineSet
419 586 m 0x3b
 466 586 502 645 502 693 c 0
 502 725 486 754 454 754 c 0
 407 754 374 694 374 645 c 0
 374 614 387 586 419 586 c 0x3b
637 724 m 0
 637 595 528 457 373 457 c 0
 240 457 206 553 206 637 c 0
 206 798 344 1054 594 1149 c 1
 730 1041 l 1
 897 1149 l 1
 1024 1114 1097 966 1097 835 c 0
 1097 813 1095 791 1091 771 c 1
 987 689 933 624 922 575 c 2
 891 430 l 1
 987 315 1087 250 1140 250 c 0
 1204 250 1209 329 1219 377 c 2
 1381 1139 l 1
 1601 1139 l 1
 1405 218 l 2
 1362 14 1228 -13 1160 -13 c 0xbb
 1031 -13 841 156 834 164 c 1
 813 66 714 -10 598 -10 c 0
 446 -10 411 87 411 173 c 0x7d
 411 339 531 484 688 507 c 1
 702 575 l 2
 713 628 768 691 885 771 c 1
 886 777 887 784 887 791 c 0
 887 834 869 901 850 929 c 1
 684 821 l 1
 547 929 l 1
 518 897 499 869 497 862 c 1
 608 862 637 789 637 724 c 0
662 317 m 1
 604 317 565 242 565 187 c 0
 565 166 573 156 588 156 c 0x7d
 620 156 633 179 642 222 c 2
 662 317 l 1
EndSplineSet
Validated: 1
Layer: 2
SplineSet
419 586 m 0,0,1
 453 586 453 586 477.5 620.5 c 128,-1,2
 502 655 502 655 502 693 c 0,3,4
 502 719 502 719 489.5 736.5 c 128,-1,5
 477 754 477 754 454 754 c 0,6,7
 421 754 421 754 397.5 719 c 128,-1,8
 374 684 374 684 374 645 c 0,9,10
 374 620 374 620 385 603 c 128,-1,11
 396 586 396 586 419 586 c 0,0,1
637 724 m 0,12,13
 637 622 637 622 561 539.5 c 128,-1,14
 485 457 485 457 373 457 c 0,15,16
 325 457 325 457 291 473 c 128,-1,17
 257 489 257 489 239.5 516 c 128,-1,18
 222 543 222 543 214 573 c 128,-1,19
 206 603 206 603 206 637 c 0,20,21
 206 699 206 699 232 772 c 128,-1,22
 258 845 258 845 305.5 917 c 128,-1,23
 353 989 353 989 428.5 1052 c 128,-1,24
 504 1115 504 1115 594 1149 c 1,25,-1
 730 1041 l 1,26,-1
 897 1149 l 1,27,28
 988 1124 988 1124 1042.5 1031.5 c 128,-1,29
 1097 939 1097 939 1097 835 c 0,30,31
 1097 801 1097 801 1091 771 c 1,32,33
 939 651 939 651 922 575 c 2,34,-1
 891 430 l 1,35,36
 960 347 960 347 1029 298.5 c 128,-1,37
 1098 250 1098 250 1140 250 c 0,38,39
 1155 250 1155 250 1167.5 257 c 128,-1,40
 1180 264 1180 264 1187 271.5 c 128,-1,41
 1194 279 1194 279 1200 296 c 128,-1,42
 1206 313 1206 313 1208 322 c 128,-1,43
 1210 331 1210 331 1214 352 c 128,-1,44
 1218 373 1218 373 1219 377 c 2,45,-1
 1381 1139 l 1,46,-1
 1601 1139 l 1,47,-1
 1405 218 l 2,48,49
 1393 160 1393 160 1369.5 116 c 128,-1,50
 1346 72 1346 72 1320 48 c 128,-1,51
 1294 24 1294 24 1262.5 9.5 c 128,-1,52
 1231 -5 1231 -5 1207.5 -9 c 128,-1,53
 1184 -13 1184 -13 1160 -13 c 0,54,55
 1116 -13 1116 -13 1057 13 c 128,-1,56
 998 39 998 39 950 73 c 128,-1,57
 902 107 902 107 871 132 c 128,-1,58
 840 157 840 157 834 164 c 1,59,60
 818 90 818 90 751 40 c 128,-1,61
 684 -10 684 -10 598 -10 c 0,62,63
 544 -10 544 -10 505.5 6 c 128,-1,64
 467 22 467 22 447.5 50 c 128,-1,65
 428 78 428 78 419.5 108 c 128,-1,66
 411 138 411 138 411 173 c 0,67,68
 411 298 411 298 490.5 394 c 128,-1,69
 570 490 570 490 688 507 c 1,70,-1
 702 575 l 2,71,72
 719 658 719 658 885 771 c 1,73,74
 887 783 887 783 887 791 c 0,75,76
 887 823 887 823 875.5 865.5 c 128,-1,77
 864 908 864 908 850 929 c 1,78,-1
 684 821 l 1,79,-1
 547 929 l 1,80,81
 502 879 502 879 497 862 c 1,82,83
 573 862 573 862 605 822 c 128,-1,84
 637 782 637 782 637 724 c 0,12,13
662 317 m 1,85,86
 621 317 621 317 593 274.5 c 128,-1,87
 565 232 565 232 565 187 c 0,88,89
 565 156 565 156 588 156 c 128,-1,90
 611 156 611 156 623 172 c 128,-1,91
 635 188 635 188 642 222 c 2,92,-1
 662 317 l 1,85,86
EndSplineSet
EndChar

StartChar: uni0E07
Encoding: 3591 3591 130
Width: 1000
Flags: W
HStem: -10 200<525.565 672.577> 1026 123<770.732 929>
VStem: 285 229<197.345 640> 629 123<858.22 1008.21> 879 174<869.542 1025.91>
DStem2: 632.808 -10 853.059 -10 0.207912 0.978148<209.843 786.125>
LayerCount: 3
Fore
SplineSet
629 876 m 3
 629 977 713 1149 895 1149 c 3
 963 1149 1053 1119 1053 978 c 3
 1053 950 1050 918 1042 881 c 2
 913 272 l 2
 865 46 684 -10 551 -10 c 3
 315 -10 285 162 285 248 c 3
 285 251 285 254 285 257 c 2
 298 719 l 1
 522 640 l 1
 514 282 l 1
 514 201 560 190 590 190 c 3
 646 190 683 224 697 292 c 2
 796 759 l 1
 788 754 771 752 745 752 c 3
 703 752 629 782 629 876 c 3
802 857 m 3
 866 857 879 954 879 980 c 3
 879 1007 869 1026 837 1026 c 3
 802 1026 752 980 752 920 c 3
 752 885 771 857 802 857 c 3
EndSplineSet
Validated: 1
Layer: 2
SplineSet
629 876 m 3,0,1
 629 916 629 916 645.5 961.5 c 128,-1,2
 662 1007 662 1007 693 1050 c 128,-1,3
 724 1093 724 1093 777 1121 c 128,-1,4
 830 1149 830 1149 895 1149 c 0,5,6
 924 1149 924 1149 949 1141.5 c 128,-1,7
 974 1134 974 1134 999 1116.5 c 128,-1,8
 1024 1099 1024 1099 1038.5 1063.5 c 128,-1,9
 1053 1028 1053 1028 1053 978 c 0,10,11
 1053 932 1053 932 1042 881 c 2,12,-1
 913 272 l 2,13,14
 899 207 899 207 869.5 156 c 128,-1,15
 840 105 840 105 803.5 74.5 c 128,-1,16
 767 44 767 44 722 24.5 c 128,-1,17
 677 5 677 5 635.5 -2.5 c 128,-1,18
 594 -10 594 -10 551 -10 c 0,19,20
 484 -10 484 -10 433 9 c 128,-1,21
 382 28 382 28 355 55.5 c 128,-1,22
 328 83 328 83 311 120.5 c 128,-1,23
 294 158 294 158 289.5 187.5 c 128,-1,24
 285 217 285 217 285 248 c 2,25,-1
 285 257 l 1,26,-1
 298 719 l 1,27,-1
 522 640 l 1,28,-1
 514 282 l 2,29,30
 514 190 514 190 590 190 c 0,31,32
 676 190 676 190 697 292 c 2,33,-1
 796 759 l 1,34,35
 785 752 785 752 745 752 c 0,36,37
 704 752 704 752 666.5 782.5 c 128,-1,38
 629 813 629 813 629 876 c 3,0,1
802 857 m 3,39,40
 831 857 831 857 850 884 c 128,-1,41
 869 911 869 911 874 936 c 128,-1,42
 879 961 879 961 879 980 c 0,43,44
 879 1026 879 1026 837 1026 c 0,45,46
 808 1026 808 1026 780 994 c 128,-1,47
 752 962 752 962 752 920 c 0,48,49
 752 893 752 893 765.5 875 c 128,-1,50
 779 857 779 857 802 857 c 3,39,40
EndSplineSet
EndChar

StartChar: uni0E08
Encoding: 3592 3592 131
Width: 1200
Flags: W
HStem: -10 200<666.505 851.977> 344 113<458.823 546.279> 625 124<476.355 658.5> 949 200<571.928 896.953>
VStem: 339 119<458.754 611.695> 517 224<121 370.875> 586 220<469.303 623.803> 964 232<583.766 883.457>
DStem2: 806.148 -10 1025.58 -10 0.207912 0.978148<200.272 788.941>
LayerCount: 3
Fore
SplineSet
339 481 m 0xfd
 339 583 422 749 614 749 c 0
 703 749 806 714 806 583 c 0xfb
 806 564 803 541 798 517 c 2
 744 263 l 2
 742 253 741 243 741 235 c 0
 741 205 756 190 788 190 c 0
 828 190 853 213 863 259 c 2
 956 695 l 2
 961 720 964 743 964 764 c 0
 964 910 843 949 748 949 c 0
 605 949 474 861 407 775 c 1
 301 929 l 1
 394 1046 592 1149 788 1149 c 0
 1027 1149 1196 1053 1196 842 c 0
 1196 810 1193 777 1185 740 c 2
 1087 279 l 2
 1046 85 932 -10 743 -10 c 0
 592 -10 517 56 517 186 c 0
 517 215 521 248 528 283 c 2
 547 373 l 1
 524 351 486 344 462 344 c 0
 408 344 339 390 339 481 c 0xfd
540 625 m 0
 474 625 458 540 458 508 c 0
 458 474 474 457 504 457 c 0
 570 457 586 542 586 574 c 0
 586 608 570 625 540 625 c 0
EndSplineSet
Validated: 1
Layer: 2
SplineSet
339 481 m 0,0,1
 339 513 339 513 349 548 c 128,-1,2
 359 583 359 583 381 619 c 128,-1,3
 403 655 403 655 434 684 c 128,-1,4
 465 713 465 713 512 731 c 128,-1,5
 559 749 559 749 614 749 c 0,6,7
 650 749 650 749 682 741 c 128,-1,8
 714 733 714 733 743 715.5 c 128,-1,9
 772 698 772 698 789 664 c 128,-1,10
 806 630 806 630 806 583 c 0,11,12
 806 555 806 555 798 517 c 2,13,-1
 744 263 l 2,14,15
 741 248 741 248 741 235 c 0,16,17
 741 190 741 190 788 190 c 0,18,19
 848 190 848 190 863 259 c 2,20,-1
 956 695 l 2,21,22
 964 735 964 735 964 764 c 0,23,24
 964 816 964 816 944 854 c 128,-1,25
 924 892 924 892 891 911.5 c 128,-1,26
 858 931 858 931 822.5 940 c 128,-1,27
 787 949 787 949 748 949 c 0,28,29
 648 949 648 949 555 897.5 c 128,-1,30
 462 846 462 846 407 775 c 1,31,-1
 301 929 l 1,32,33
 374 1021 374 1021 510 1085 c 128,-1,34
 646 1149 646 1149 788 1149 c 0,35,36
 975 1149 975 1149 1085.5 1072 c 128,-1,37
 1196 995 1196 995 1196 842 c 0,38,39
 1196 791 1196 791 1185 740 c 2,40,-1
 1087 279 l 2,41,42
 1026 -10 1026 -10 743 -10 c 0,43,44
 517 -10 517 -10 517 186 c 0,45,46
 517 228 517 228 528 283 c 2,47,-1
 547 373 l 1,48,49
 517 344 517 344 462 344 c 0,50,51
 416 344 416 344 377.5 381 c 128,-1,52
 339 418 339 418 339 481 c 0,0,1
540 625 m 0,53,54
 510 625 510 625 490 601 c 128,-1,55
 470 577 470 577 464 553 c 128,-1,56
 458 529 458 529 458 508 c 0,57,58
 458 457 458 457 504 457 c 0,59,60
 534 457 534 457 554 481 c 128,-1,61
 574 505 574 505 580 529 c 128,-1,62
 586 553 586 553 586 574 c 0,63,64
 586 625 586 625 540 625 c 0,53,54
EndSplineSet
EndChar

StartChar: uni0E09
Encoding: 3593 3593 132
Width: 1395
Flags: W
HStem: -13 246<518 701.739> -10 166<1039 1207.59> 365 111<348.642 437.226> 644 122<366.583 553> 949 200<643.666 984.341>
VStem: 232 115<476.13 630.852> 391 243<73.5 323.148> 475 221<488.358 643.125> 1051 227<565.719 886.292> 1219 156<157.917 314.922>
AnchorPoint: "AboveBase" 1379 1227 basechar 0
LayerCount: 3
Fore
SplineSet
429 644 m 0x3d
 363 644 347 559 347 527 c 0
 347 493 363 476 393 476 c 0
 459 476 475 561 475 593 c 0
 475 627 459 644 429 644 c 0x3d
232 500 m 0
 232 654 365 766 488 766 c 0
 618 766 696 707 696 600 c 0xbd
 696 582 694 564 690 544 c 2
 650 357 l 2
 640 311 634 281 634 263 c 0
 634 239 644 233 672 233 c 0
 751 233 962 395 980 410 c 1
 1045 714 l 2
 1049 734 1051 753 1051 771 c 0
 1051 893 953 949 831 949 c 0
 648 949 519 826 489 788 c 1
 380 942 l 1
 472 1055 672 1149 869 1149 c 0
 1127 1149 1278 1040 1278 828 c 0xbe80
 1278 793 1274 754 1265 713 c 2
 1217 487 l 1
 1351 473 1375 373 1375 304 c 0
 1375 201 1305 -10 1091 -10 c 0x7c40
 987 -10 925 45 925 126 c 0
 925 138 926 151 929 164 c 1
 828 104 669 -13 547 -13 c 0
 489 -13 391 7 391 140 c 0xbe40
 391 163 394 189 400 218 c 2
 438 393 l 1
 414 374 387 365 354 365 c 0
 270 365 232 426 232 500 c 0
1169 156 m 0x7c40
 1209 156 1219 226 1219 247 c 0
 1219 287 1199 317 1163 317 c 1
 1143 222 l 2
 1140 208 1139 197 1139 188 c 0
 1139 162 1151 156 1169 156 c 0x7c40
EndSplineSet
Validated: 1
Layer: 2
SplineSet
429 644 m 0,0,1
 399 644 399 644 379 620 c 128,-1,2
 359 596 359 596 353 572 c 128,-1,3
 347 548 347 548 347 527 c 0,4,5
 347 476 347 476 393 476 c 0,6,7
 423 476 423 476 443 500 c 128,-1,8
 463 524 463 524 469 548 c 128,-1,9
 475 572 475 572 475 593 c 0,10,11
 475 644 475 644 429 644 c 0,0,1
232 500 m 0,12,13
 232 611 232 611 311.5 688.5 c 128,-1,14
 391 766 391 766 488 766 c 0,15,16
 586 766 586 766 641 723 c 128,-1,17
 696 680 696 680 696 600 c 0,18,19
 696 574 696 574 690 544 c 2,20,-1
 650 357 l 2,21,22
 634 283 634 283 634 263 c 0,23,24
 634 245 634 245 642 239 c 128,-1,25
 650 233 650 233 672 233 c 0,26,27
 722 233 722 233 827.5 302 c 128,-1,28
 933 371 933 371 980 410 c 1,29,-1
 1045 714 l 2,30,31
 1051 744 1051 744 1051 771 c 0,32,33
 1051 858 1051 858 989.5 903.5 c 128,-1,34
 928 949 928 949 831 949 c 0,35,36
 767 949 767 949 706 930 c 128,-1,37
 645 911 645 911 601.5 882 c 128,-1,38
 558 853 558 853 531 830 c 128,-1,39
 504 807 504 807 489 788 c 1,40,-1
 380 942 l 1,41,42
 451 1029 451 1029 588 1089 c 128,-1,43
 725 1149 725 1149 869 1149 c 0,44,45
 1065 1149 1065 1149 1171.5 1067 c 128,-1,46
 1278 985 1278 985 1278 828 c 0,47,48
 1278 772 1278 772 1265 713 c 2,49,-1
 1217 487 l 1,50,51
 1265 482 1265 482 1298 463 c 128,-1,52
 1331 444 1331 444 1346.5 415.5 c 128,-1,53
 1362 387 1362 387 1368.5 360.5 c 128,-1,54
 1375 334 1375 334 1375 304 c 0,55,56
 1375 261 1375 261 1360 211 c 128,-1,57
 1345 161 1345 161 1314 109.5 c 128,-1,58
 1283 58 1283 58 1224.5 24 c 128,-1,59
 1166 -10 1166 -10 1091 -10 c 0,60,61
 1014 -10 1014 -10 969.5 27 c 128,-1,62
 925 64 925 64 925 126 c 0,63,64
 925 147 925 147 929 164 c 1,65,66
 919 158 919 158 848 113.5 c 128,-1,67
 777 69 777 69 742 50 c 128,-1,68
 707 31 707 31 648.5 9 c 128,-1,69
 590 -13 590 -13 547 -13 c 0,70,71
 521 -13 521 -13 497.5 -7.5 c 128,-1,72
 474 -2 474 -2 448 13 c 128,-1,73
 422 28 422 28 406.5 60.5 c 128,-1,74
 391 93 391 93 391 140 c 0,75,76
 391 174.5 391 174.5 400 218 c 2,77,-1
 438 393 l 1,78,79
 403 365 403 365 354 365 c 0,80,81
 294 365 294 365 263 403 c 128,-1,82
 232 441 232 441 232 500 c 0,12,13
1169 156 m 0,83,84
 1187 156 1187 156 1199.5 175.5 c 128,-1,85
 1212 195 1212 195 1215.5 214 c 128,-1,86
 1219 233 1219 233 1219 247 c 0,87,88
 1219 278 1219 278 1204 297.5 c 128,-1,89
 1189 317 1189 317 1163 317 c 1,90,-1
 1143 222 l 2,91,92
 1139 203 1139 203 1139 188 c 0,93,94
 1139 156 1139 156 1169 156 c 0,83,84
EndSplineSet
EndChar

StartChar: uni0E0A
Encoding: 3594 3594 133
Width: 1390
Flags: W
HStem: 0 200<794 1034> 531 129<348.5 523.328> 953 196<600.933 790.96>
VStem: 243 173<661.785 812.183> 544 135<675.206 826.728> 1113 237<442.773 690.276> 1333 235<1065.23 1188>
DStem2: 531 0 751.489 0 0.207912 0.978148<250.31 703.33> 991.489 0 1211 0 0.207912 0.978148<204.468 611.462>
LayerCount: 3
Fore
SplineSet
460 660 m 0xf8
 507 660 544 719 544 767 c 0
 544 799 528 828 496 828 c 0
 449 828 416 767 416 718 c 0
 416 687 429 660 460 660 c 0xf8
1031 719 m 1
 959 678 880 606 867 545 c 2
 794 200 l 1
 1034 200 l 1
 1107 546 l 2
 1111 567 1113 585 1113 600 c 0xfc
 1113 668 1074 686 1031 719 c 1
243 705 m 0
 243 930 448 1149 714 1149 c 0
 928 1149 1012 1056 1037 924 c 1
 1171 942 1303 1020 1333 1163 c 1
 1339 1188 l 1
 1574 1188 l 1
 1568 1164 l 1xfa
 1536 1010 1392 865 1259 825 c 1
 1323 781 1350 732 1350 674 c 0
 1350 660 1348 645 1345 629 c 2
 1211 0 l 1
 531 0 l 1
 653 575 l 2
 663 622 711 682 822 771 c 1
 825 784 826 798 826 811 c 0
 826 885 783 953 696 953 c 0
 624 953 597 922 596 922 c 1
 596 921 596 920 595 920 c 1
 653 913 679 865 679 803 c 0
 679 670 570 531 415 531 c 0
 282 531 243 615 243 705 c 0
EndSplineSet
Validated: 1
Layer: 2
SplineSet
460 660 m 0,0,1
 494 660 494 660 519 694.5 c 128,-1,2
 544 729 544 729 544 767 c 0,3,4
 544 793 544 793 531.5 810.5 c 128,-1,5
 519 828 519 828 496 828 c 0,6,7
 463 828 463 828 439.5 793 c 128,-1,8
 416 758 416 758 416 718 c 0,9,10
 416 693 416 693 427 676.5 c 128,-1,11
 438 660 438 660 460 660 c 0,0,1
1031 719 m 1,12,13
 972 686 972 686 924 637 c 128,-1,14
 876 588 876 588 867 545 c 2,15,-1
 794 200 l 1,16,-1
 1034 200 l 1,17,-1
 1107 546 l 2,18,19
 1113 577.5 1113 577.5 1113 600 c 0,20,21
 1113 616 1113 616 1109.5 630.5 c 128,-1,22
 1106 645 1106 645 1102 653.5 c 128,-1,23
 1098 662 1098 662 1087.5 673 c 128,-1,24
 1077 684 1077 684 1072 688 c 128,-1,25
 1067 692 1067 692 1051.5 703.5 c 128,-1,26
 1036 715 1036 715 1031 719 c 1,12,13
243 705 m 0,27,28
 243 817 243 817 304.5 919 c 128,-1,29
 366 1021 366 1021 475.5 1085 c 128,-1,30
 585 1149 585 1149 714 1149 c 0,31,32
 866 1149 866 1149 941.5 1090 c 128,-1,33
 1017 1031 1017 1031 1037 924 c 1,34,35
 1146 939 1146 939 1229 1000.5 c 128,-1,36
 1312 1062 1312 1062 1333 1163 c 2,37,-1
 1339 1188 l 1,38,-1
 1574 1188 l 1,39,-1
 1568 1164 l 1,40,41
 1545 1051 1545 1051 1453.5 953.5 c 128,-1,42
 1362 856 1362 856 1259 825 c 1,43,44
 1350 762 1350 762 1350 674 c 0,45,46
 1350 656 1350 656 1345 629 c 2,47,-1
 1211 0 l 1,48,-1
 531 0 l 1,49,-1
 653 575 l 2,50,51
 669 648 669 648 822 771 c 1,52,53
 826 788 826 788 826 811 c 0,54,55
 826 870 826 870 792 911.5 c 128,-1,56
 758 953 758 953 696 953 c 0,57,58
 681 953 681 953 668 951.5 c 128,-1,59
 655 950 655 950 645 947 c 128,-1,60
 635 944 635 944 627 941 c 128,-1,61
 619 938 619 938 613.5 934.5 c 128,-1,62
 608 931 608 931 604 928 c 128,-1,63
 600 925 600 925 598 923.5 c 2,64,-1
 596 922 l 2,65,66
 596 920 596 920 595 920 c 1,67,68
 637 915 637 915 658 883.5 c 128,-1,69
 679 852 679 852 679 803 c 0,70,71
 679 699 679 699 603 615 c 128,-1,72
 527 531 527 531 415 531 c 0,73,74
 323 531 323 531 283 579.5 c 128,-1,75
 243 628 243 628 243 705 c 0,27,28
EndSplineSet
EndChar

StartChar: uni0E0B
Encoding: 3595 3595 134
Width: 1450
Flags: W
HStem: 0 200<866 1106> 457 129<316.5 491.531> 1129 20G<479 629.185 876.074 950>
VStem: 216 168<587.608 738.618> 512 135<602.34 752.794> 1186 236<564.127 690.078> 1405 235<1066.77 1188>
DStem2: 603 0 823.489 0 0.207912 0.978148<250.31 703.33> 1063.49 0 1283 0 0.207912 0.978148<204.468 616.514>
LayerCount: 3
Fore
SplineSet
429 586 m 0xf8
 476 586 512 645 512 693 c 0
 512 725 496 754 464 754 c 0
 417 754 384 694 384 645 c 0
 384 614 397 586 429 586 c 0xf8
647 724 m 0
 647 595 538 457 383 457 c 0
 250 457 216 553 216 637 c 0
 216 798 354 1054 604 1149 c 1
 740 1041 l 1
 907 1149 l 1
 993 1119 1085 1027 1109 924 c 1
 1243 942 1375 1020 1405 1163 c 1
 1411 1188 l 1
 1646 1188 l 1
 1640 1164 l 1xfa
 1608 1013 1469 868 1331 825 c 1
 1395 781 1422 732 1422 674 c 0xfc
 1422 660 1420 645 1417 629 c 2
 1283 0 l 1
 603 0 l 1
 725 575 l 2
 735 622 783 682 894 771 c 1
 896 779 897 789 897 798 c 0
 897 847 876 907 860 929 c 1
 694 821 l 1
 557 929 l 1
 528 897 509 869 507 862 c 1
 618 862 647 789 647 724 c 0
1103 719 m 1
 1031 678 952 606 939 545 c 2
 866 200 l 1
 1106 200 l 1
 1179 546 l 2
 1184 569 1186 589 1186 605 c 0xfc
 1186 674 1146 687 1103 719 c 1
EndSplineSet
Validated: 1
Layer: 2
SplineSet
429 586 m 0,0,1
 463 586 463 586 487.5 620.5 c 128,-1,2
 512 655 512 655 512 693 c 0,3,4
 512 719 512 719 499.5 736.5 c 128,-1,5
 487 754 487 754 464 754 c 0,6,7
 431 754 431 754 407.5 719 c 128,-1,8
 384 684 384 684 384 645 c 0,9,10
 384 620 384 620 395 603 c 128,-1,11
 406 586 406 586 429 586 c 0,0,1
647 724 m 0,12,13
 647 622 647 622 571 539.5 c 128,-1,14
 495 457 495 457 383 457 c 0,15,16
 335 457 335 457 301 473 c 128,-1,17
 267 489 267 489 249.5 516 c 128,-1,18
 232 543 232 543 224 573 c 128,-1,19
 216 603 216 603 216 637 c 0,20,21
 216 699 216 699 242 772 c 128,-1,22
 268 845 268 845 315.5 917 c 128,-1,23
 363 989 363 989 438.5 1052 c 128,-1,24
 514 1115 514 1115 604 1149 c 1,25,-1
 740 1041 l 1,26,-1
 907 1149 l 1,27,28
 974 1126 974 1126 1033 1062.5 c 128,-1,29
 1092 999 1092 999 1109 924 c 1,30,31
 1218 939 1218 939 1301 1000.5 c 128,-1,32
 1384 1062 1384 1062 1405 1163 c 2,33,-1
 1411 1188 l 1,34,-1
 1646 1188 l 1,35,-1
 1640 1164 l 2,36,37
 1616 1052 1616 1052 1526 955 c 128,-1,38
 1436 858 1436 858 1331 825 c 1,39,40
 1422 762 1422 762 1422 674 c 0,41,42
 1422 656 1422 656 1417 629 c 2,43,-1
 1283 0 l 1,44,-1
 603 0 l 1,45,-1
 725 575 l 2,46,47
 741 648 741 648 894 771 c 1,48,49
 897 783 897 783 897 798 c 0,50,51
 897 832 897 832 885 871.5 c 128,-1,52
 873 911 873 911 860 929 c 1,53,-1
 694 821 l 1,54,-1
 557 929 l 1,55,56
 512 879 512 879 507 862 c 1,57,58
 583 862 583 862 615 822 c 128,-1,59
 647 782 647 782 647 724 c 0,12,13
1103 719 m 1,60,61
 1044 686 1044 686 996 637 c 128,-1,62
 948 588 948 588 939 545 c 2,63,-1
 866 200 l 1,64,-1
 1106 200 l 1,65,-1
 1179 546 l 2,66,67
 1186 578 1186 578 1186 605 c 0,68,69
 1186 625 1186 625 1182.5 639.5 c 128,-1,70
 1179 654 1179 654 1168.5 666 c 128,-1,71
 1158 678 1158 678 1151.5 684 c 128,-1,72
 1145 690 1145 690 1127.5 702 c 128,-1,73
 1110 714 1110 714 1103 719 c 1,60,61
EndSplineSet
EndChar

StartChar: uni0E0C
Encoding: 3596 3596 135
Width: 1750
Flags: W
HStem: -10 166<847.846 915.879> -10 120<352.591 538.736> 280 111<484.107 586> 317 170<874.048 942> 949 200<658.421 960.59>
VStem: 231 202<110.167 265.499> 559 130<123.976 278.63> 691 154<157.543 291.544> 1012 226<537.43 899.192>
DStem2: 872.494 -10 1077.02 -10 0.207912 0.978148<163.494 220.41 493.578 783.688> 1370.59 -10 1590.87 -10 0.207912 0.978148<261.719 1174.71>
LayerCount: 3
Fore
SplineSet
515 280 m 0x6f80
 468 280 433 219 433 170 c 0
 433 138 446 110 478 110 c 0
 526 110 559 173 559 222 c 0
 559 253 546 280 515 280 c 0x6f80
689 255 m 0
 689 137 591 -10 427 -10 c 0x6f80
 271 -10 231 67 231 161 c 0
 231 207 240 256 250 303 c 2
 264 366 l 1
 297 523 327 560 457 671 c 1
 421 726 364 767 284 792 c 1
 334 912 550 1149 866 1149 c 0
 1100 1149 1238 1033 1238 813 c 0
 1238 770 1233 723 1222 673 c 2
 1166 410 l 1
 1425 246 l 1
 1615 1139 l 1
 1835 1139 l 1
 1593 0 l 1
 1374 0 l 1
 1114 164 l 1
 1092 62 994 -10 878 -10 c 0
 725 -10 691 91 691 175 c 0
 691 349 823 475 964 487 c 1x9f80
 1000 657 l 2
 1008 696 1012 732 1012 763 c 0
 1012 885 950 949 824 949 c 0
 718 949 631 906 565 831 c 1
 631 795 671 739 685 663 c 1
 552 551 520 537 483 363 c 1
 504 382 529 391 560 391 c 0
 612 391 689 355 689 255 c 0
942 317 m 1x9f80
 884 317 845 243 845 187 c 0
 845 166 853 156 868 156 c 0
 900 156 913 179 922 222 c 2
 942 317 l 1x9f80
EndSplineSet
Validated: 1
Layer: 2
SplineSet
515 280 m 0,0,1
 481 280 481 280 457 244.5 c 128,-1,2
 433 209 433 209 433 170 c 0,3,4
 433 144 433 144 444 127 c 128,-1,5
 455 110 455 110 478 110 c 0,6,7
 512 110 512 110 535.5 146 c 128,-1,8
 559 182 559 182 559 222 c 0,9,10
 559 247 559 247 548 263.5 c 128,-1,11
 537 280 537 280 515 280 c 0,0,1
689 255 m 0,12,13
 689 158 689 158 615.5 74 c 128,-1,14
 542 -10 542 -10 427 -10 c 0,15,16
 318 -10 318 -10 274.5 36 c 128,-1,17
 231 82 231 82 231 161 c 0,18,19
 231 214 231 214 250 303 c 2,20,-1
 264 366 l 2,21,22
 288 480 288 480 322 532.5 c 128,-1,23
 356 585 356 585 457 671 c 1,24,25
 402 755 402 755 284 792 c 1,26,27
 300 830 300 830 333 875 c 128,-1,28
 366 920 366 920 420 969.5 c 128,-1,29
 474 1019 474 1019 538.5 1058.5 c 128,-1,30
 603 1098 603 1098 689.5 1123.5 c 128,-1,31
 776 1149 776 1149 866 1149 c 0,32,33
 1043 1149 1043 1149 1140.5 1062.5 c 128,-1,34
 1238 976 1238 976 1238 813 c 0,35,36
 1238 746 1238 746 1222 673 c 2,37,-1
 1166 410 l 1,38,-1
 1425 246 l 1,39,-1
 1615 1139 l 1,40,-1
 1835 1139 l 1,41,-1
 1593 0 l 1,42,-1
 1374 0 l 1,43,-1
 1114 164 l 1,44,45
 1098 88 1098 88 1031.5 39 c 128,-1,46
 965 -10 965 -10 878 -10 c 0,47,48
 823 -10 823 -10 784.5 6.5 c 128,-1,49
 746 23 746 23 726.5 51.5 c 128,-1,50
 707 80 707 80 699 110 c 128,-1,51
 691 140 691 140 691 175 c 0,52,53
 691 301 691 301 772.5 389.5 c 128,-1,54
 854 478 854 478 964 487 c 1,55,-1
 1000 657 l 2,56,57
 1012 715 1012 715 1012 763 c 0,58,59
 1012 949 1012 949 824 949 c 0,60,61
 669 949 669 949 565 831 c 1,62,63
 664 777 664 777 685 663 c 1,64,65
 674 654 674 654 654.488695683 637.472485719 c 0,66,67
 605 597 605 597 585.5 578.5 c 128,-1,68
 566 560 566 560 542.5 528 c 128,-1,69
 519 496 519 496 507.5 460 c 128,-1,70
 496 424 496 424 483 363 c 1,71,72
 514 391 514 391 560 391 c 0,73,74
 607 391 607 391 648 357 c 128,-1,75
 689 323 689 323 689 255 c 0,12,13
942 317 m 1,76,77
 901 317 901 317 873 275 c 128,-1,78
 845 233 845 233 845 187 c 0,79,80
 845 156 845 156 868 156 c 128,-1,81
 891 156 891 156 903 172 c 128,-1,82
 915 188 915 188 922 222 c 2,83,-1
 942 317 l 1,76,77
EndSplineSet
EndChar

StartChar: uni0E0D
Encoding: 3597 3597 136
Width: 1745
Flags: W
HStem: -417 180<996.568 1225.93> -130 108<999.625 1100.98> -10 120<412.924 595.249> 0 200<1178 1403> 280 111<538.994 645> 949 200<713.421 1016.24>
VStem: 288 201<111.55 266.136> 614 131<124.639 278.43> 881 113<-283.5 -135.407> 1067 227<542.023 897.461> 1101 121<-232.496 -131.259> 1437 167<-121.852 -46.7982>
DStem2: 826.364 -417 1046.85 -417 0.207912 0.978148<676.626 1202.82> 1271.85 -417 1491.36 -417 0.207912 0.978148<630.784 1590.64>
LayerCount: 3
Fore
SplineSet
745 255 m 0xdfd0
 745 140 652 -10 482 -10 c 0xefd0
 335 -10 288 57 288 165 c 0
 288 205 294 252 305 303 c 2
 319 366 l 1
 352 523 382 560 512 671 c 1
 477 726 419 767 339 792 c 1
 389 912 605 1149 921 1149 c 0
 1159 1149 1294 1028 1294 810 c 0
 1294 768 1288 722 1278 673 c 2
 1178 200 l 1
 1403 200 l 1
 1602 1139 l 1
 1822 1139 l 1
 1580 0 l 1
 915 0 l 1
 1055 657 l 2
 1063 696 1067 732 1067 763 c 0
 1067 885 1005 949 879 949 c 0
 773 949 686 906 620 831 c 1
 686 795 727 739 740 663 c 1
 601 541 574 534 538 363 c 1
 560 383 585 391 619 391 c 0
 671 391 745 353 745 255 c 0xdfd0
533 110 m 0
 582 110 614 173 614 222 c 0
 614 253 601 280 570 280 c 0
 522 280 489 216 489 174 c 0
 489 141 504 110 533 110 c 0
881 -243 m 0
 881 -141 959 -22 1089 -22 c 0
 1176 -22 1222 -69 1222 -139 c 0xcfb0
 1222 -220 1179 -254 1165 -265 c 1
 1331 -235 1411 -118 1437 -34 c 1
 1604 -48 l 1
 1553 -250 1353 -417 1125 -417 c 0
 931 -417 881 -324 881 -243 c 0
1036 -237 m 0
 1072 -237 1101 -203 1101 -171 c 0
 1101 -147 1084 -130 1058 -130 c 0
 1025 -130 994 -160 994 -195 c 0
 994 -219 1010 -237 1036 -237 c 0
EndSplineSet
Validated: 1
Layer: 2
SplineSet
745 255 m 0,0,1
 745 195 745 195 716 135.5 c 128,-1,2
 687 76 687 76 624.5 33 c 128,-1,3
 562 -10 562 -10 482 -10 c 0,4,5
 377 -10 377 -10 332.5 34.5 c 128,-1,6
 288 79 288 79 288 165 c 0,7,8
 288 224 288 224 305 303 c 2,9,-1
 319 366 l 2,10,11
 343 480 343 480 377 532.5 c 128,-1,12
 411 585 411 585 512 671 c 1,13,14
 459 755 459 755 339 792 c 1,15,16
 355 830 355 830 388 875 c 128,-1,17
 421 920 421 920 475 969.5 c 128,-1,18
 529 1019 529 1019 593.5 1058.5 c 128,-1,19
 658 1098 658 1098 744.5 1123.5 c 128,-1,20
 831 1149 831 1149 921 1149 c 0,21,22
 1100 1149 1100 1149 1197 1061 c 128,-1,23
 1294 973 1294 973 1294 810 c 0,24,25
 1294 751 1294 751 1278 673 c 2,26,-1
 1178 200 l 1,27,-1
 1403 200 l 1,28,-1
 1602 1139 l 1,29,-1
 1822 1139 l 1,30,-1
 1580 0 l 1,31,-1
 915 0 l 1,32,-1
 1055 657 l 2,33,34
 1067 715 1067 715 1067 763 c 0,35,36
 1067 949 1067 949 879 949 c 0,37,38
 724 949 724 949 620 831 c 1,39,40
 721 776 721 776 740 663 c 1,41,42
 726 650 726 650 698.5 626.5 c 128,-1,43
 671 603 671 603 662 595.5 c 128,-1,44
 653 588 653 588 634 569.5 c 128,-1,45
 615 551 615 551 609.5 543.5 c 128,-1,46
 604 536 604 536 591.5 519 c 128,-1,47
 579 502 579 502 575 489.5 c 128,-1,48
 571 477 571 477 562.5 456.5 c 128,-1,49
 554 436 554 436 549 414 c 128,-1,50
 544 392 544 392 538 363 c 1,51,52
 569 391 569 391 619 391 c 0,53,54
 666 391 666 391 705.5 356.5 c 128,-1,55
 745 322 745 322 745 255 c 0,0,1
533 110 m 0,56,57
 568 110 568 110 591 146 c 128,-1,58
 614 182 614 182 614 222 c 0,59,60
 614 247 614 247 603 263.5 c 128,-1,61
 592 280 592 280 570 280 c 0,62,63
 536 280 536 280 512.5 244.5 c 128,-1,64
 489 209 489 209 489 174 c 0,65,66
 489 148 489 148 500.5 129 c 128,-1,67
 512 110 512 110 533 110 c 0,56,57
881 -243 m 0,68,69
 881 -160 881 -160 939 -91 c 128,-1,70
 997 -22 997 -22 1089 -22 c 0,71,72
 1153 -22 1153 -22 1187.5 -53.5 c 128,-1,73
 1222 -85 1222 -85 1222 -139 c 0,74,75
 1222 -220 1222 -220 1165 -265 c 1,76,77
 1224 -254 1224 -254 1273 -228.5 c 128,-1,78
 1322 -203 1322 -203 1354 -169 c 128,-1,79
 1386 -135 1386 -135 1406 -101.5 c 128,-1,80
 1426 -68 1426 -68 1437 -34 c 1,81,-1
 1604 -48 l 1,82,83
 1565 -202 1565 -202 1429 -309.5 c 128,-1,84
 1293 -417 1293 -417 1125 -417 c 0,85,86
 993 -417 993 -417 937 -366.5 c 128,-1,87
 881 -316 881 -316 881 -243 c 0,68,69
1036 -237 m 0,88,89
 1062 -237 1062 -237 1081.5 -216.5 c 128,-1,90
 1101 -196 1101 -196 1101 -171 c 0,91,92
 1101 -153 1101 -153 1089 -141.5 c 128,-1,93
 1077 -130 1077 -130 1058 -130 c 0,94,95
 1033 -130 1033 -130 1013.5 -149.5 c 128,-1,96
 994 -169 994 -169 994 -195 c 0,97,98
 994 -213 994 -213 1005.5 -225 c 128,-1,99
 1017 -237 1017 -237 1036 -237 c 0,88,89
EndSplineSet
Substitution2: "'ccmp' Pali-Sanskrit Descender Removal" uni0E0D.descless
Substitution2: "Thai Descender Removal Single Substitution" uni0E0D.descless
EndChar

StartChar: uni0E0E
Encoding: 3598 3598 137
Width: 1375
Flags: W
HStem: -430 157<334.003 552.832> -132 142<435.852 627.519> -10 120<262.707 366.623> 280 111<281.157 386.03> 949 200<804.421 1107.24>
VStem: 137 124<110.311 265.616> 206 193<-328 -168.926> 1158 227<540.219 897.779>
DStem2: 914.547 -430 1134.75 -430 0.207912 0.978148<281.144 1216.12>
AnchorPoint: "BelowBase" 1130 -453 basechar 0
LayerCount: 3
Fore
SplineSet
206 -289 m 0xbb
 206 -192 326 10 591 10 c 0xdb
 640 10 689 3 735 -12 c 1
 850 142 l 1
 975 88 l 1
 864 -67 l 1
 900 -82 945 -117 973 -155 c 1
 1146 657 l 2
 1154 696 1158 732 1158 763 c 0
 1158 885 1096 949 970 949 c 0
 864 949 777 906 711 831 c 1
 777 795 817 739 831 663 c 1
 702 550 666 536 632 376 c 1
 616 303 l 2
 583 148 528 -10 307 -10 c 0
 180 -10 137 75 137 156 c 0xbd
 137 280 233 391 343 391 c 0
 373 391 395 382 409 363 c 1
 414 384 l 1
 443 523 478 565 603 671 c 1
 567 726 510 767 430 792 c 1
 480 912 696 1149 1012 1149 c 0
 1250 1149 1385 1028 1385 811 c 0
 1385 769 1379 723 1369 673 c 2
 1139 -410 l 1
 919 -410 l 1
 877 -322 826 -259 765 -220 c 1
 686 -329 572 -430 401 -430 c 0
 269 -430 206 -367 206 -289 c 0xbb
343 280 m 0
 296 280 261 219 261 170 c 0
 261 138 274 110 306 110 c 0xbd
 354 110 387 173 387 222 c 0
 387 253 374 280 343 280 c 0
551 -132 m 0xdb
 448 -132 399 -207 399 -241 c 0
 399 -252 406 -273 441 -273 c 0
 509 -273 595 -207 628 -154 c 1
 614 -138 587 -132 551 -132 c 0xdb
EndSplineSet
Validated: 1
Layer: 2
SplineSet
206 -289 m 0,0,1
 206 -250 206 -250 230 -201 c 128,-1,2
 254 -152 254 -152 298.5 -103.5 c 128,-1,3
 343 -55 343 -55 420.5 -22.5 c 128,-1,4
 498 10 498 10 591 10 c 0,5,6
 668 10 668 10 735 -12 c 1,7,-1
 850 142 l 1,8,-1
 975 88 l 1,9,-1
 864 -67 l 1,10,11
 928 -94 928 -94 973 -155 c 1,12,-1
 1146 657 l 2,13,14
 1158 715 1158 715 1158 763 c 0,15,16
 1158 949 1158 949 970 949 c 0,17,18
 815 949 815 949 711 831 c 1,19,20
 810 777 810 777 831 663 c 1,21,22
 817 650 817 650 788 625.5 c 128,-1,23
 759 601 759 601 750 592.5 c 128,-1,24
 741 584 741 584 721 565.5 c 128,-1,25
 701 547 701 547 695 536.5 c 128,-1,26
 689 526 689 526 676.5 507.5 c 128,-1,27
 664 489 664 489 658.5 471.5 c 128,-1,28
 653 454 653 454 645.5 430 c 128,-1,29
 638 406 638 406 632 376 c 2,30,-1
 616 303 l 2,31,32
 605 249 605 249 592.5 210 c 128,-1,33
 580 171 580 171 556.5 126.5 c 128,-1,34
 533 82 533 82 502 54.5 c 128,-1,35
 471 27 471 27 421 8.5 c 128,-1,36
 371 -10 371 -10 307 -10 c 0,37,38
 219 -10 219 -10 178 38.5 c 128,-1,39
 137 87 137 87 137 156 c 0,40,41
 137 249 137 249 199 320 c 128,-1,42
 261 391 261 391 343 391 c 0,43,44
 388 391 388 391 409 363 c 1,45,-1
 414 384 l 2,46,47
 435 485 435 485 470 536.5 c 128,-1,48
 505 588 505 588 603 671 c 1,49,50
 548 755 548 755 430 792 c 1,51,52
 446 830 446 830 479 875 c 128,-1,53
 512 920 512 920 566 969.5 c 128,-1,54
 620 1019 620 1019 684.5 1058.5 c 128,-1,55
 749 1098 749 1098 835.5 1123.5 c 128,-1,56
 922 1149 922 1149 1012 1149 c 0,57,58
 1191 1149 1191 1149 1288 1061.5 c 128,-1,59
 1385 974 1385 974 1385 811 c 0,60,61
 1385 753 1385 753 1369 673 c 2,62,-1
 1139 -410 l 1,63,-1
 919 -410 l 1,64,65
 856 -278 856 -278 765 -220 c 1,66,67
 613 -430 613 -430 401 -430 c 0,68,69
 306 -430 306 -430 256 -390.5 c 128,-1,70
 206 -351 206 -351 206 -289 c 0,0,1
343 280 m 0,71,72
 309 280 309 280 285 244.5 c 128,-1,73
 261 209 261 209 261 170 c 0,74,75
 261 144 261 144 272 127 c 128,-1,76
 283 110 283 110 306 110 c 0,77,78
 340 110 340 110 363.5 146 c 128,-1,79
 387 182 387 182 387 222 c 0,80,81
 387 247 387 247 376 263.5 c 128,-1,82
 365 280 365 280 343 280 c 0,71,72
551 -132 m 0,83,84
 482 -132 482 -132 440.5 -170 c 128,-1,85
 399 -208 399 -208 399 -241 c 0,86,87
 399 -253 399 -253 408.5 -263 c 128,-1,88
 418 -273 418 -273 441 -273 c 0,89,90
 489 -273 489 -273 545 -235 c 128,-1,91
 601 -197 601 -197 628 -154 c 1,92,93
 609 -132 609 -132 551 -132 c 0,83,84
EndSplineSet
EndChar

StartChar: uni0E0F
Encoding: 3599 3599 138
Width: 1375
Flags: W
HStem: -429 136<297.466 461.868> -152 153<326.014 530.621> -10 120<264.589 366.123> 280 111<280.935 386.019> 949 200<803.421 1106.05>
VStem: 135 161<-291.271 -182.67> 135 126<111.078 263.686> 1157 227<541.219 897.393>
DStem2: 623 -32 741 -90 0.586397 0.810024<6.68052 191.508> 913.779 -429 1133.96 -429 0.207912 0.978148<376.221 1214.12>
AnchorPoint: "BelowBase" 1129 -453 basechar 0
LayerCount: 3
Fore
SplineSet
343 280 m 0xbb
 296 280 261 219 261 170 c 0
 261 138 274 110 306 110 c 0
 354 110 387 173 387 222 c 0
 387 253 374 280 343 280 c 0xbb
135 -277 m 0xbd
 135 -125 301 1 482 1 c 0xdd
 541 1 585 -11 623 -32 c 1
 741 119 l 1
 859 73 l 1
 741 -90 l 1
 748 -97 754 -108 758 -122 c 1
 815 -48 869 -10 891 -10 c 0
 921 -10 954 -27 992 -61 c 1
 1145 657 l 2
 1153 696 1157 731 1157 762 c 0
 1157 885 1094 949 969 949 c 0
 863 949 776 906 710 831 c 1
 776 795 816 739 830 663 c 1
 701 550 665 536 631 376 c 1
 615 303 l 2
 582 148 527 -10 306 -10 c 0
 178 -10 135 72 135 154 c 0xbb
 135 296 246 391 342 391 c 0
 372 391 394 382 408 363 c 1
 413 384 l 1
 442 523 477 565 602 671 c 1
 566 726 509 767 429 792 c 1
 479 912 695 1149 1011 1149 c 0
 1249 1149 1384 1028 1384 810 c 0
 1384 768 1378 722 1368 673 c 2
 1138 -410 l 1
 921 -410 l 1
 921 -400 l 2
 921 -286 886 -245 841 -245 c 0
 787 -245 704 -368 682 -403 c 1
 643 -294 624 -286 615 -276 c 1
 534 -368 454 -429 319 -429 c 0
 171 -429 135 -346 135 -277 c 0xbd
446 -152 m 0
 348 -152 296 -212 296 -252 c 0
 296 -272 314 -293 349 -293 c 0
 412 -293 491 -243 531 -173 c 1
 519 -159 491 -152 446 -152 c 0
EndSplineSet
Validated: 1
Layer: 2
SplineSet
343 280 m 0,0,1
 309 280 309 280 285 244.5 c 128,-1,2
 261 209 261 209 261 170 c 0,3,4
 261 144 261 144 272 127 c 128,-1,5
 283 110 283 110 306 110 c 0,6,7
 340 110 340 110 363.5 146 c 128,-1,8
 387 182 387 182 387 222 c 0,9,10
 387 247 387 247 376 263.5 c 128,-1,11
 365 280 365 280 343 280 c 0,0,1
135 -277 m 0,12,13
 135 -164 135 -164 240 -81.5 c 128,-1,14
 345 1 345 1 482 1 c 0,15,16
 563 1 563 1 623 -32 c 1,17,-1
 741 119 l 1,18,-1
 859 73 l 1,19,-1
 741 -90 l 1,20,21
 752 -101 752 -101 758 -122 c 1,22,23
 798 -70 798 -70 835.5 -40 c 128,-1,24
 873 -10 873 -10 891 -10 c 0,25,26
 935 -10 935 -10 992 -61 c 1,27,-1
 1145 657 l 2,28,29
 1157 715.5 1157 715.5 1157 762 c 0,30,31
 1157 949 1157 949 969 949 c 0,32,33
 814 949 814 949 710 831 c 1,34,35
 809 777 809 777 830 663 c 1,36,37
 816 650 816 650 787 625.5 c 128,-1,38
 758 601 758 601 749 592.5 c 128,-1,39
 740 584 740 584 720 565.5 c 128,-1,40
 700 547 700 547 694 536.5 c 128,-1,41
 688 526 688 526 675.5 507.5 c 128,-1,42
 663 489 663 489 657.5 471.5 c 128,-1,43
 652 454 652 454 644.5 430 c 128,-1,44
 637 406 637 406 631 376 c 2,45,-1
 615 303 l 2,46,47
 604 249 604 249 591.5 210 c 128,-1,48
 579 171 579 171 555.5 126.5 c 128,-1,49
 532 82 532 82 501 54.5 c 128,-1,50
 470 27 470 27 420 8.5 c 128,-1,51
 370 -10 370 -10 306 -10 c 0,52,53
 217 -10 217 -10 176 37 c 128,-1,54
 135 84 135 84 135 154 c 0,55,56
 135 255 135 255 200 323 c 128,-1,57
 265 391 265 391 342 391 c 0,58,59
 387 391 387 391 408 363 c 1,60,-1
 413 384 l 2,61,62
 434 485 434 485 469 536.5 c 128,-1,63
 504 588 504 588 602 671 c 1,64,65
 547 755 547 755 429 792 c 1,66,67
 445 830 445 830 478 875 c 128,-1,68
 511 920 511 920 565 969.5 c 128,-1,69
 619 1019 619 1019 683.5 1058.5 c 128,-1,70
 748 1098 748 1098 834.5 1123.5 c 128,-1,71
 921 1149 921 1149 1011 1149 c 0,72,73
 1190 1149 1190 1149 1287 1061 c 128,-1,74
 1384 973 1384 973 1384 810 c 0,75,76
 1384 751 1384 751 1368 673 c 2,77,-1
 1138 -410 l 1,78,-1
 921 -410 l 1,79,-1
 921 -400 l 2,80,81
 921 -245 921 -245 841 -245 c 0,82,83
 822 -245 822 -245 797 -264 c 128,-1,84
 772 -283 772 -283 748.5 -312 c 128,-1,85
 725 -341 725 -341 709.5 -362.5 c 128,-1,86
 694 -384 694 -384 682 -403 c 1,87,88
 673 -377 673 -377 664 -356.5 c 128,-1,89
 655 -336 655 -336 649 -324 c 128,-1,90
 643 -312 643 -312 637 -302.5 c 128,-1,91
 631 -293 631 -293 628 -289.5 c 128,-1,92
 625 -286 625 -286 620.5 -281.5 c 128,-1,93
 616 -277 616 -277 615 -276 c 1,94,95
 547 -353 547 -353 480 -391 c 128,-1,96
 413 -429 413 -429 319 -429 c 0,97,98
 266 -429 266 -429 228 -415.5 c 128,-1,99
 190 -402 190 -402 171 -378.5 c 128,-1,100
 152 -355 152 -355 143.5 -330 c 128,-1,101
 135 -305 135 -305 135 -277 c 0,12,13
446 -152 m 0,102,103
 378 -152 378 -152 337 -184.5 c 128,-1,104
 296 -217 296 -217 296 -252 c 0,105,106
 296 -268 296 -268 310 -280.5 c 128,-1,107
 324 -293 324 -293 349 -293 c 0,108,109
 397 -293 397 -293 449 -259 c 128,-1,110
 501 -225 501 -225 531 -173 c 1,111,112
 513 -152 513 -152 446 -152 c 0,102,103
EndSplineSet
EndChar

